<svg xmlns="http://www.w3.org/2000/svg" width="167.992" height="168.329" viewBox="0 0 167.992 168.329">
  <g id="b1" transform="translate(-84.006 -10596.009)">
    <path id="Union_92" data-name="Union 92" d="M47.569,103.745h-.02v-.139l-2.1-14.538C20.183,88.143,0,68.567,0,44.552,0,19.947,21.189,0,47.326,0a50.566,50.566,0,0,1,7.121.5c27.1,3.236,48.062,25.021,48.062,51.414,0,28.573-24.562,51.745-54.894,51.829l-.045.012Z" transform="translate(154.52 10608.503) rotate(34)" fill="#5b6eff"/>
    <path id="Union_87" data-name="Union 87" d="M47.569,103.745h-.02v-.139l-2.1-14.538C20.183,88.143,0,68.567,0,44.552,0,19.947,21.189,0,47.326,0a50.566,50.566,0,0,1,7.121.5c27.1,3.236,48.062,25.021,48.062,51.414,0,28.573-24.562,51.745-54.894,51.829l-.045.012Z" transform="translate(151.52 10605.503) rotate(34)"/>
    <text id="_1" data-name="1" transform="translate(149.5 10694.5)" fill="#fff" font-size="70" font-family="SegoeUI, Segoe UI" letter-spacing="0.025em"><tspan x="0" y="0">1</tspan></text>
  </g>
</svg>
