<svg xmlns="http://www.w3.org/2000/svg" width="80" height="80" viewBox="0 0 80 80">
  <g id="call_float" transform="translate(-1733 -782)">
    <circle id="Ellipse_271" data-name="Ellipse 271" cx="40" cy="40" r="40" transform="translate(1733 782)"/>
    <g id="phone-call" transform="translate(1752.461 802)">
      <g id="Group_67" data-name="Group 67" transform="translate(0.539 0)">
        <path id="Path_68" data-name="Path 68" d="M39.49,29.418,33.9,23.824a3.721,3.721,0,0,0-6.193,1.4,3.807,3.807,0,0,1-4.4,2.4c-4-1-9.39-6.193-10.389-10.389a3.621,3.621,0,0,1,2.4-4.4,3.721,3.721,0,0,0,1.4-6.193L11.121,1.049a3.99,3.99,0,0,0-5.394,0l-3.8,3.8c-3.8,4,.4,14.584,9.789,23.974S31.7,42.6,35.694,38.608l3.8-3.8A3.99,3.99,0,0,0,39.49,29.418Z" transform="translate(-0.539 0)" fill="#fff"/>
      </g>
    </g>
  </g>
</svg>
