<svg xmlns="http://www.w3.org/2000/svg" width="110" height="50" viewBox="0 0 110 50">
  <g id="color-theme-white" transform="translate(-1499.047 -62)">
    <g id="Path_458" data-name="Path 458" transform="translate(1499.047 62)" fill="none" opacity="0.8">
      <path d="M25,0H85a25,25,0,0,1,0,50H25A25,25,0,0,1,25,0Z" stroke="none"/>
      <path d="M 25 1.5 C 21.82685852050781 1.5 18.74942779541016 2.121124267578125 15.85320281982422 3.346122741699219 C 13.05501556396484 4.5296630859375 10.54167938232422 6.224308013916016 8.382987976074219 8.382984161376953 C 6.22430419921875 10.54167556762695 4.5296630859375 13.05501556396484 3.346122741699219 15.85319900512695 C 2.121124267578125 18.74943161010742 1.5 21.82686233520508 1.5 25 C 1.5 28.17313766479492 2.121124267578125 31.25056838989258 3.346122741699219 34.14680099487305 C 4.5296630859375 36.94498443603516 6.22430419921875 39.45832443237305 8.382987976074219 41.61701583862305 C 10.54167938232422 43.77569198608398 13.05501556396484 45.4703369140625 15.85320281982422 46.65387725830078 C 18.74942779541016 47.87887573242188 21.82685852050781 48.5 25 48.5 L 85 48.5 C 88.17314147949219 48.5 91.25056457519531 47.87887573242188 94.14679718017578 46.65387725830078 C 96.94498443603516 45.4703369140625 99.45832061767578 43.77569198608398 101.6169967651367 41.61701583862305 C 103.7756958007812 39.45832443237305 105.4703369140625 36.94498443603516 106.6538619995117 34.14680099487305 C 107.8788757324219 31.25056838989258 108.5 28.17313766479492 108.5 25 C 108.5 21.82686233520508 107.8788757324219 18.74943161010742 106.6538619995117 15.85319900512695 C 105.4703369140625 13.05501556396484 103.7756958007812 10.54167556762695 101.6169967651367 8.382984161376953 C 99.45832061767578 6.224308013916016 96.94498443603516 4.5296630859375 94.14679718017578 3.346122741699219 C 91.25056457519531 2.121124267578125 88.17314147949219 1.5 85 1.5 L 25 1.5 M 25 0 L 85 0 C 98.80710601806641 0 110 11.19287872314453 110 25 C 110 38.80712127685547 98.80710601806641 50 85 50 L 25 50 C 11.19287872314453 50 0 38.80712127685547 0 25 C 0 11.19287872314453 11.19287872314453 0 25 0 Z" stroke="none" fill="#fff"/>
    </g>
    <circle id="Ellipse_383" data-name="Ellipse 383" cx="22" cy="22" r="22" transform="translate(1561.541 64.883)" fill="#fff"/>
    <g id="sun" transform="translate(1566.703 71)">
      <g id="Group_182" data-name="Group 182" transform="translate(7.085 6.808)">
        <g id="Group_181" data-name="Group 181">
          <path id="Path_305" data-name="Path 305" d="M115.63,106a9.633,9.633,0,1,0,9.634,9.633A9.645,9.645,0,0,0,115.63,106Z" transform="translate(-105.996 -106)"/>
        </g>
      </g>
      <g id="Group_184" data-name="Group 184" transform="translate(22.48 22.221)">
        <g id="Group_183" data-name="Group 183">
          <path id="Path_306" data-name="Path 306" d="M349.935,346a11.615,11.615,0,0,1-4.239,4.239l5.8,1.561Z" transform="translate(-345.696 -346)"/>
        </g>
      </g>
      <g id="Group_186" data-name="Group 186" transform="translate(13.752)">
        <g id="Group_185" data-name="Group 185">
          <path id="Path_307" data-name="Path 307" d="M212.764,0,209.8,5.286a11.083,11.083,0,0,1,5.934,0Z" transform="translate(-209.797)"/>
        </g>
      </g>
      <g id="Group_188" data-name="Group 188" transform="translate(5.159 4.881)">
        <g id="Group_187" data-name="Group 187">
          <path id="Path_308" data-name="Path 308" d="M76,76l1.561,5.78a11.459,11.459,0,0,1,4.2-4.219Z" transform="translate(-75.996 -76)"/>
        </g>
      </g>
      <g id="Group_190" data-name="Group 190" transform="translate(0.297 13.455)">
        <g id="Group_189" data-name="Group 189">
          <path id="Path_309" data-name="Path 309" d="M5.563,209.5.3,212.486l5.266,2.986a11.222,11.222,0,0,1,0-5.973Z" transform="translate(-0.297 -209.5)"/>
        </g>
      </g>
      <g id="Group_192" data-name="Group 192" transform="translate(5.159 22.221)">
        <g id="Group_191" data-name="Group 191">
          <path id="Path_310" data-name="Path 310" d="M77.557,346,76,351.8l5.8-1.561A11.616,11.616,0,0,1,77.557,346Z" transform="translate(-75.996 -346)"/>
        </g>
      </g>
      <g id="Group_194" data-name="Group 194" transform="translate(13.713 27.597)">
        <g id="Group_193" data-name="Group 193">
          <path id="Path_311" data-name="Path 311" d="M212.2,430.1a11.094,11.094,0,0,1-3.006-.4l3.006,5.286,3.006-5.286A11.1,11.1,0,0,1,212.2,430.1Z" transform="translate(-209.196 -429.699)"/>
        </g>
      </g>
      <g id="Group_196" data-name="Group 196" transform="translate(22.509 4.884)">
        <g id="Group_195" data-name="Group 195">
          <path id="Path_312" data-name="Path 312" d="M346.159,77.612a11.631,11.631,0,0,1,4.208,4.213l1.569-5.78Z" transform="translate(-346.159 -76.044)"/>
        </g>
      </g>
      <g id="Group_198" data-name="Group 198" transform="translate(27.872 13.471)">
        <g id="Group_197" data-name="Group 197">
          <path id="Path_313" data-name="Path 313" d="M434.931,212.735l-5.263-2.979a11.2,11.2,0,0,1-.006,5.962Z" transform="translate(-429.662 -209.756)"/>
        </g>
      </g>
    </g>
  </g>
</svg>
