<svg xmlns="http://www.w3.org/2000/svg" width="95.475" height="47.873" viewBox="0 0 95.475 47.873">
  <g id="Group_322" data-name="Group 322" transform="translate(-136.22 -1188.449)">
    <path id="Union_100" data-name="Union 100" d="M15.384,33.552h-.005v-.04L14.7,28.806C6.527,28.507,0,22.175,0,14.408,0,6.451,6.853,0,15.306,0a16.272,16.272,0,0,1,2.3.162C26.373,1.207,33.152,8.253,33.152,16.79c0,9.24-7.943,16.734-17.751,16.762l-.017,0Z" transform="translate(155.765 1189.143) rotate(34)" stroke="rgba(0,0,0,0)" stroke-width="1"/>
    <path id="Union_101" data-name="Union 101" d="M15.384,33.552h-.005v-.04L14.7,28.806C6.527,28.507,0,22.175,0,14.408,0,6.451,6.853,0,15.306,0a16.272,16.272,0,0,1,2.3.162C26.373,1.207,33.152,8.253,33.152,16.79c0,9.24-7.943,16.734-17.751,16.762l-.017,0Z" transform="translate(203.516 1189.143) rotate(34)" stroke="rgba(0,0,0,0)" stroke-width="1"/>
  </g>
</svg>
