<svg xmlns="http://www.w3.org/2000/svg" width="1578.343" height="1182.451" viewBox="0 0 1578.343 1182.451">
  <g id="Europe" transform="translate(-752.701 -10887.6)">
    <path id="AL" d="M664.8,529.526l1.094.875,4.377,6.347,3.064,1.094,4.158,2.845,3.064,7,.219,4.815-1.094,5.69.656,4.6-1.751,1.751,1.532,4.377.438,4.158,2.626,4.815,2.626,2.407,2.845,5.252,3.5-.438L695,587.52v2.407l2.407,3.939-1.751,5.69-3.72,1.751-2.626,6.784-.656,4.377-1.313,1.094-4.158.656-3.72,2.845,2.188,4.815-1.97,1.532-.656,3.283-1.532,1.532-5.909-1.97-1.532-5.471-3.72-5.909-10.724-5.69-2.626-2.407.875-3.283-.219-3.064-3.064-5.252.656-5.69,1.751-4.815-.656-5.909.219-4.6-1.532-6.347,1.094-4.6,1.97-2.845-.438-4.815-3.283-2.407-3.5-.438v-6.784l-.657-1.313h3.72L646.2,538.5l7-11.6,2.407.656,1.751,4.6,7.441-2.626Z" transform="translate(911.758 11268.377)" fill="#ececec" stroke="#000" stroke-linecap="round" stroke-linejoin="round" stroke-width="2"/>
    <path id="AD" d="M427.56,531.3l-6.128,2.407-1.532-.875v-4.6l1.97-1.532,5.69,1.313V531.3Z" transform="translate(642.811 11268.139)" fill="#ececec" stroke="#000" stroke-linecap="round" stroke-linejoin="round" stroke-width="2"/>
    <path id="AM" d="M999.558,601.755l-7-6.128-5.033-3.72-3.5-1.532-7.659.875-6.347-1.97-3.939-1.97L967.169,586l-4.158-6.565-1.751-4.158,2.188-3.064.438-5.033-3.72-7.222-3.72-2.626-2.845-3.5,9.629-.656,11.6-2.845,7,.657,2.407-.438,7.66-.219-1.094-1.532,5.033-1.094,2.845,3.283,3.5,2.188-1.97,1.97,5.033,2.188h2.626l7.222,5.471v1.532l-4.158,3.283-.438,2.407,7,7.441,5.253,3.064,7,3.283.438,1.97-1.97,5.471h-6.565l1.313,1.97,4.158,2.626,13.35,9.629,3.283-.657,4.815,1.97.438,2.845-2.188,3.064,4.158,3.064,1.751,3.283-3.939,1.094,3.064,3.283,1.094,5.69-4.814-.219-5.471,1.094L1036.1,619.7l.219-2.188-6.784-4.6.219-3.72-1.751-2.626-3.72.438-4.158,1.97-6.347-3.5-2.626.438-.657-2.407-3.939-3.72-7,1.97Z" transform="translate(1277.089 11293.097)" fill="#ececec" stroke="#000" stroke-linecap="round" stroke-linejoin="round" stroke-width="2"/>
    <path id="AT" d="M713.81,442.149l-1.97,5.252.219,1.751,3.5,6.347,5.033,6.346-1.313,1.532-1.313,4.158,1.532,4.377-8.535.656-5.471-1.969-2.845,3.064,5.69,1.532,1.094,2.407-1.094,3.064-4.815,2.626.875,3.283-1.094,1.532,2.407,3.5-.656,3.939-5.471,1.094-3.939,3.72-2.845,1.97-.219,4.158L687.33,505.4l-3.5.438-5.033,2.407-6.128-.438-5.69.438-4.158,1.532-2.189,2.845-6.565,2.626-10.942-1.532-10.942-1.97-5.69-1.094-8.754-.657-18.821-3.283-2.407-1.094-6.784-7.66v-5.033L579.439,496.2l-6.784-.438-7.441.656-3.064,1.313-2.626,4.815-2.407.875-4.6-.875-1.97-1.751-6.565-.656-1.094-3.283-1.751-.656-4.377,4.158-5.033-.875-3.283-1.751-.875-2.189-7.222-1.751.656-1.751-2.407-5.471,2.188-6.565-1.97-1.532,3.72-1.094,1.532-1.094,7.659,3.5,1.97,3.064,2.626.657-.219,2.845,3.5-1.094,2.189-3.5.438-4.158,6.128-.219,5.909.875,3.064,4.158,8.316-1.094,2.407-1.97,8.535-3.283,12.474-1.094.219-3.064,4.377.656,3.283,1.751,5.471-1.094,2.407,1.094.438,2.407,2.626,1.97,3.72.875.656-3.283-.656-4.158-3.72-.657,1.313-2.845-.219-2.845-5.471-6.128,1.313-2.845,6.784-3.939,6.347-1.751,2.188-2.188,1.532-6.346,5.033,1.969,2.845-1.969.438-6.128,4.815,2.626,1.751,2.845,8.535.875,3.064-1.532,5.471.875.219-2.407,2.845-3.5h2.626l.656-7,2.626-.438,3.5,1.751,3.064-.875,10.5,3.72,3.283-.219,6.565,3.72,8.316.438,2.626-1.97,11.161,3.283,2.189,3.5Z" transform="translate(760.111 11151.789)" fill="#5c3bfe" stroke="#000" stroke-linecap="round" stroke-linejoin="round" stroke-width="2"/>
    <path id="BE" d="M515.161,414.635l3.5-1.094,1.751,1.751,2.626.219,6.565,5.033-.875,3.283,3.72,1.532.875,4.377-5.033,2.845-1.313,3.72-3.72-1.532-2.845,2.845-3.064,5.471-.438,3.72,4.377,5.252-2.407,3.72-7.441.875-6.128-5.69-7.222-3.283-3.72-.219-.875-4.377-1.313-1.313,1.751-5.909-4.158,1.313-1.094,3.064-2.845,1.313-4.815.656-5.033-.656-1.094-1.313,1.532-3.064-1.532-1.532.875-3.5-3.5-2.407-7.878-.875-1.97.657-1.313-4.377-9.192-2.407-1.094-4.377-3.5-3.939-7,2.188-6.347-5.252v-2.626L432,403.912l11.161-5.471,10.286-3.72.656,2.845,2.626,1.532,2.626-1.313,8.535,2.407,7-3.283,1.313-2.626,4.6.656-.438-1.97,3.064-1.532,3.283,1.751L489.994,391l2.407,2.845,5.471-1.751,1.094,3.5,5.69,3.064,4.158-.875,3.72,2.845,5.69,2.407-2.188,6.347-2.407,2.845,1.532,2.407Z" transform="translate(657.191 11106.865)" fill="#ececec" stroke="#000" stroke-linecap="round" stroke-linejoin="round" stroke-width="2"/>
    <path id="BG" d="M852.3,518.751l.438,8.1-1.97,3.939-4.377-1.313-4.815,1.094-2.189,4.377-2.626,2.626v5.69l.875,9.192-3.5,1.532-6.347,8.1,6.565,3.939,3.72,4.815,5.252,5.471,1.094,2.626-3.72-.438-1.97.875h-3.939l-3.283,1.313-7.441-5.471-7.66.656-3.283,2.407-7.441.875-2.188,4.815-4.158.656-.656,3.064-3.5-1.094L791.68,589l1.532,2.188,1.97,5.909-.438,1.751-5.471,2.626-3.939-.657-7,.876-7.441,1.97-3.72-2.407-8.1-2.626-1.97,1.313-5.252-3.064-2.626-3.72-3.5,1.094-9.192-.219-.438,1.97-4.158.438-6.565,2.407-5.69-.438-5.252.438-2.188,2.189-6.565-.438v-9.192l1.094-3.72L704.8,585.5l-3.72-7.222-7.441-3.939-7.222-7,2.188-.656,2.407-3.72-3.064-6.346v-7.222l2.407-1.313,3.939-.219,2.407-3.5,3.5-3.72.656-3.064-3.5-2.189-2.845-3.5-6.347-3.283-5.252-8.535-1.313-5.252.875-5.033,4.6-2.188.438-4.158,1.97-1.532,9.41,5.471-3.939,4.377,1.97,3.939,8.1-1.313,8.535.656,11.6,2.189,7.66.875L738.281,517l20.571,3.72,9.192.438,5.033-1.313,3.5-1.97,2.626-3.5,7.222-4.6,7-2.626,9.629-1.97,6.347-.875,9.848,5.033,7,.875,1.97,1.313,3.72-1.094,5.471,5.69,4.815,1.532,5.69,1.094H852.3Z" transform="translate(953.829 11238.666)" fill="#ececec" stroke="#000" stroke-linecap="round" stroke-linejoin="round" stroke-width="2"/>
    <path id="BA" d="M686.57,499.687l6.127-1.532,3.283,1.751-1.094,5.471-3.5,5.909-.219,5.69,1.094,1.751,5.253,2.626,7.222,6.346-.657,1.751-6.784-.219-1.094,1.751,7,8.1-.438,4.815-5.471-.657-1.532,1.751-7,1.094,3.064,4.815-5.033.438-4.377,3.72-1.094,3.72.219,3.283-3.72.438-1.094,1.532,1.313,6.565,2.407,3.5-.219,1.751-2.407,2.188L674.1,576.5l-13.568-8.316-1.313-1.97-3.5.219-2.407-1.313.657-3.5-6.565-5.471-3.283-3.5-.875-4.815-5.252-2.407-10.942-8.973-3.72-4.377-6.128-5.033-5.033-5.252-2.845-8.754-7.441-7-4.158-2.845-.219-3.064.656-10.942,2.626-1.313,3.939.875,3.72,3.939,3.939,2.188,5.909-7,7,.657,3.283-2.626,5.909,3.5,5.471.219,6.128,1.532,3.72-1.313,3.5,2.845,4.815-2.189,3.939.656,3.939-.438,5.69,1.532,4.815.438,2.407,1.751,2.845,4.815Z" transform="translate(853.88 11219.649)" fill="#ececec" stroke="#000" stroke-linecap="round" stroke-linejoin="round" stroke-width="2"/>
    <path id="BY" d="M782.021,321.5l3.939,2.845,2.626-.875,4.158-.219,6.784,4.815,3.5-1.97,3.283-.656,7.878,2.626.438,5.033,3.72,3.283,4.6-2.845,5.909-2.407h7.441l5.909,1.97,5.253,3.939,7.659,3.064.875,5.471-1.313,3.939,4.6,4.6,1.094,2.845-2.845,4.377v4.377l8.973,4.377,1.094,1.094-1.094,3.939,3.064,1.313,3.939,5.252,3.283,3.064,10.724,4.6,1.532,1.751-.876,6.128,11.6,1.094,7,2.845v2.407l1.532,2.407,6.128,3.064,1.313,3.72-5.69,2.188-.657,1.97-6.565,3.939-7.66-.438-5.252-3.283-6.346.219-3.064,5.909,8.535,7.222,1.313,2.188-.438,3.283,2.189,3.283,1.094,7.222,3.5,3.064,2.845,3.939-10.942-.219L885.535,455l-3.72-.875-2.407,1.094-4.815,5.033-1.751,2.626-2.188,7.222,3.939,7.878-1.751,3.064-5.909-1.97-1.094-2.626-4.377-2.407-15.538,1.313-5.033,1.751L839.578,476l-5.471-6.565-8.316,3.5-1.313,2.407-2.188-.656-1.751-2.845-11.161-2.188-4.158,1.532-4.158-1.094-2.626,3.72-1.751-3.064-2.407-.875-6.565.219-2.188-.656-3.939-4.6H776.55l-13.349-1.97-14.225-3.283-17.07-.875-5.252.219-5.033,1.094-12.912,1.094-1.751,3.064-3.5,3.5-4.158,2.626-2.407-1.094-4.158-.656-2.407,1.094.219,3.064-2.188-3.5-.219-2.845,1.751-3.283-.876-2.407.438-5.252-1.751-2.188-3.939-2.188-7.222-2.845v-2.626l4.377-5.909,1.751-1.094,8.754-3.72,1.313-3.5-1.97-8.535-3.72-7.878L680.7,404.224l-4.6-11.161,6.346.875,3.5-.656,8.1-.656,3.5,1.97,7.222-2.845,3.939.219,1.751-5.69,4.377.438,3.064-2.626L722.5,383l2.188-1.532,3.72,5.033,4.377-.438v-2.188l-1.97-2.407-4.158-1.094,1.094-4.377,2.188-3.283-.875-5.033,2.407-6.565,5.69-1.313,1.751-1.313,2.188-4.377,7.878.219.875-2.407,2.845-2.188-8.535-2.188,1.532-6.784v-3.939l5.69-1.313,2.626-3.283,2.407-.657,6.566.875,6.784.219.875-3.72,5.471-5.252,3.064-1.751,2.845-.438Z" transform="translate(947.292 11024.268)" fill="#ececec" stroke="#000" stroke-linecap="round" stroke-linejoin="round" stroke-width="2"/>
    <path id="CH" d="M559.974,450.883l1.751,2.407,5.69,2.845h2.626l1.97,1.532-2.188,6.565-1.094,3.283.219,3.72,2.626.219,7.222,1.751.876,2.188,3.283,1.751,5.033.875,4.377-4.158,1.751.656,1.094,3.283-1.094,6.784,1.094,3.939-4.158-.438-2.189-1.97-2.845.656-1.313,3.939,3.283,7.66-2.626.656-3.064-4.158-1.532-.219-6.347,2.407-4.377-1.751-1.751-4.6-4.377.219v6.347l-1.094,2.407L558,505.375l-.438,2.189,1.532,3.72-2.626,1.532-1.97-3.064-2.845-2.626.875-2.626-4.815-1.313-5.252-4.377-.438-5.471-2.189-1.313-7.441,6.347,1.313,3.283-3.5,4.815-5.252,3.064-6.784-1.751-5.69,2.188-5.252,1.094-3.064-1.532-1.97-3.064-5.033-5.034,1.094-3.72-1.751-4.815-4.815-.656-4.158.219-5.033,3.283,1.094,2.845-5.033,3.5-3.064-.219v-2.189l3.283-2.188.657-3.283-1.751-1.532,2.407-6.346,6.565-4.815,1.094-6.346,4.6-1.97,8.316-8.754,1.313-1.97-2.845-2.407,3.939-3.064h2.407l1.751,1.751,5.909-.656,1.751-3.064,3.283-1.532,2.188.656,6.128.219,7.222-1.313,5.69.438-.438-3.283,2.845-2.626h2.845l3.064,2.188,1.751-.438,2.407,1.97,8.1-.438Z" transform="translate(708.888 11174.132)" fill="#ececec" stroke="#000" stroke-linecap="round" stroke-linejoin="round" stroke-width="2"/>
    <path id="CZ" d="M616.812,403.709l4.6-.875-.219-4.158,7.222,1.751.656,2.407,2.188,2.407,10.067,2.407,5.909,2.407,1.751,1.97,7-1.532,3.939,2.626-1.532,2.407-3.5,2.626,3.5,1.969,4.377,3.939,3.283,4.158,2.188.875,7.66-5.471-3.72-5.252h2.845l4.815,1.313,7.222,4.158,7.878-1.532v3.5l-3.064,1.094,5.909,5.033,2.188,1.313,3.939-2.188,7.66,3.939,1.094-.438,5.909,1.751,1.094,3.939,6.128,4.815,1.094,3.5-6.128.656-4.377,3.283-1.313,1.751-5.033,2.626-1.532,6.565-3.5,1.751-4.6,4.158-3.283,1.532-3.72.438-7.878-1.094-3.064,2.626-2.407,6.128-2.188-3.5-11.161-3.283-2.626,1.97-8.316-.438-6.565-3.72-3.283.219-10.5-3.72-3.064.875-3.5-1.751-2.626.438-.656,7h-2.626l-2.845,3.5-.219,2.407-5.471-.875-3.064,1.532-8.535-.875-1.751-2.845L596.24,473.3l-1.313-1.532-6.347-4.815h-2.845l-2.845-3.5-5.471-3.283-6.347-5.69h-2.845l-5.033-4.377-3.939-5.909-3.064-3.283,2.626-3.72-1.313-3.5-5.033-2.845L547,423.4l1.094-1.532,4.158,4.377,4.158-5.69,2.407-1.313,5.69-1.313,4.6.875,1.751-2.845,4.377-.656,1.313-2.188,3.5-1.532,2.407.219,1.313-2.626,9.629-2.189,7.66-3.283,4.158-1.313-3.283-3.283,1.751-1.313,4.815.875,3.283,3.283v1.97l3.064,1.313,1.97-1.532Z" transform="translate(793.863 11114.947)" fill="#5c3bfe" stroke="#000" stroke-linecap="round" stroke-linejoin="round" stroke-width="2"/>
    <path id="DE" d="M681.516,373.383l-7.441-.219-.438-3.72-2.407-2.188-.219-2.188,10.286,5.69Zm-76.158-17.727h-3.939l-3.064-1.532,1.751-2.188,3.72.875,1.532,2.845Zm61.933,1.094-2.845,1.532H661.6l-2.845,2.845-4.6-2.407-1.094-2.407.219-4.815,1.313-3.064,4.377-1.97,1.97,2.626,3.72,1.313-1.094,3.72,3.72,2.626ZM565.31,342.307l3.939,1.532,3.5,3.5.219,3.064-3.72,3.5,7-.656L578,355.876l3.72-.875,9.848,3.939,7-1.97,1.532,3.064-1.313,3.283-4.815,3.5,3.064,2.626,4.6-.438,7.878,1.97,7.222-5.471,2.407-1.094,7.878-.657,11.161-9.848,11.6,1.97,3.283,4.158,8.1,4.6,7-.438,2.845,4.377,1.751,5.471,4.158,2.845,6.128,1.094,1.532,5.69,3.939,8.973-.657,5.909L683.7,402.49l-1.532,3.5,3.5,3.064,7.222,4.6,3.064,3.72-1.313,5.69,4.377,5.033,1.751,4.158-1.532,5.69-1.751,2.407,4.158,6.784v3.5l4.815,1.97,3.5,7-.875,5.033-3.5,7.878-1.97,1.532-3.064-1.313v-1.97l-3.283-3.283-4.815-.875-1.751,1.313,3.283,3.283-4.158,1.313-7.66,3.283-9.629,2.188-1.313,2.626-2.407-.219-3.5,1.532-1.313,2.188-4.377.657-1.751,2.845-4.6-.875-5.69,1.313-2.407,1.313-4.158,5.69-4.158-4.377-1.094,1.532,5.471,7.441,5.033,2.845L647.6,506l-2.626,3.72,3.064,3.283,3.939,5.909,5.033,4.377h2.845l6.347,5.69,5.471,3.283,2.845,3.5h2.845l6.347,4.815,1.313,1.532-.438,6.128-2.845,1.97-5.033-1.97-1.532,6.346-2.188,2.188-6.347,1.751-6.784,3.939-1.313,2.845,5.471,6.128.219,2.845-1.313,2.845,3.72.656.656,4.158-.656,3.283-3.72-.875-2.626-1.97-.438-2.407-2.407-1.094-5.471,1.094-3.283-1.751-4.377-.657-.219,3.064-12.474,1.094-8.535,3.283-2.407,1.97-8.316,1.094-3.064-4.158-5.909-.875-6.128.219-.438,4.158-2.188,3.5-3.5,1.094.219-2.845-2.626-.656-1.97-3.064-7.66-3.5-1.532,1.094-4.815-2.626-11.161-5.033,2.188,3.5-8.1.438-2.407-1.97-1.751.438-3.064-2.189h-2.845l-2.845,2.626.438,3.283-5.69-.438-7.222,1.313-6.128-.219-2.188-.656-2.407-2.845v-3.283L520.884,571l-.438-5.252.656-3.283,2.188-3.939,3.064-12.036,7.66-8.316-.219-2.845-3.5-1.313-10.5-1.751-4.377-3.064-6.565,1.313-4.6-.219-.656-1.97-3.064-.875-3.939,1.532-7.66-9.41-3.064-.219,1.313-6.565,1.969-1.97v-3.064l-6.128-2.407-3.283-3.5-.656-4.815,1.313-3.72,5.034-2.845-.875-4.377-3.72-1.532.875-3.283-6.565-5.033,1.313-5.252-4.158-2.626,1.094-1.751,4.815-3.5-1.532-2.626,2.845-6.128V451.73l-6.784-8.973,1.532-2.407,3.939-1.532,5.034,1.751,9.848-2.845,1.532-2.188-2.188-1.97.656-1.97,5.69-3.5,1.313-5.69-1.751-2.188-5.69-.656-1.532-2.188,1.313-3.5,6.784.219,2.407-8.316,1.532-3.72-.219-9.41-3.72-3.064,1.094-5.909,2.407-3.064,1.97-.875,8.754-.656,9.848.219,4.158,4.815-1.313,2.626,3.5.656,1.97-5.252,3.064,1.751,2.407-.219-1.094-3.72.438-3.5,1.97-3.064,7.222,1.313,7.878-.656.219-1.313-6.128-1.094-1.97-2.407-.438-8.535-3.283-1.751-3.5.656v-3.283l7.441-2.407v-2.188l-7.441-8.316-.438-3.5,5.909.219,11.38,2.845,6.784-1.532,3.283.875Z" transform="translate(705.085 11046.137)" fill="#5c3bfe" stroke="#000" stroke-linecap="round" stroke-linejoin="round" stroke-width="2"/>
    <path id="DK" d="M579.256,389.677l4.6,2.188,5.252.657.875,4.158-7.66,1.532-11.161-4.6.219-5.471,5.033-.438,2.845,1.97Zm29.982-2.407-5.034.219-4.158,2.188-.657-2.626,3.5-2.188,2.626.438ZM546.21,389.9l-2.626.438-3.72-1.094-1.313-5.033,5.909,2.407,1.751,3.283Zm17.508,4.377-3.064-3.283,5.471-6.346,1.532-.438Zm109.641-8.754-5.252-.438-5.253-2.188.219-4.377,1.094-1.97,9.848,5.033-.657,3.939ZM559.341,366.48l5.034,9.41-.219,6.128-3.939,2.626h-4.6l-11.818-3.72-3.721-6.347-.219-5.033,10.5-3.064,5.69,1.751Zm50.991.438-2.188,1.313-1.532-1.97,1.97-1.97,1.751,2.626Zm-52.3-6.128h-1.97v-6.565l3.283,3.5Zm49.459,0,.219,3.283-1.532,1.532-4.377,1.532-2.407,3.939,4.377,2.626,1.094,3.283-2.188,1.532-5.69,1.532V392.3l-4.815,1.313-3.283-4.6-.219-1.97-2.845-6.784-4.377-.875-4.815.219-3.283-3.939.219-4.6-2.188-4.377-2.845-1.313.875-3.064,6.784-.438,3.283-4.158v-1.97l3.939-.438,1.751,1.532.219,5.69,3.5,1.094,2.407-6.347-1.97-2.407,8.535-4.815,2.407-.219,6.565,1.97-.875,4.6,1.532,4.377Zm-69.155,31.076-3.283-.875-6.784,1.532-11.38-2.845-5.909-.219-1.094-4.6-1.751-3.064,2.407-.656-1.97-8.535-7-2.845-5.471-3.064,1.094-12.255L495,349.41l.219-15.1,2.845-.219,6.784,1.751,3.283,1.97,1.313-4.158,3.5-3.5,4.377-1.751,3.5,2.845.656-9.848-3.5-1.094-2.845.875-2.845,4.158-2.188,5.252-4.158.438-3.283,1.532-5.252-3.064.219-3.064,3.5-4.158,4.377-4.158h4.815l3.5-1.313,8.535.219,6.128-2.845,6.128-7.878,3.283-3.283,7.222-1.094,6.565-3.72-1.751,5.471,2.626,3.72v6.565l-1.97,2.188-3.064,5.471.438,12.255,5.471,3.283H562.4l2.189,2.407-1.532,4.815-5.69,3.064H555.4l-3.064-2.407L549.93,347,547.3,358.164l-4.377-.219-2.626,1.094,3.064,2.626-2.845,1.751-7.441,6.784,2.407,7.441-.438,1.97-3.283,2.845-1.313,2.407,5.034.656,2.845,6.347Z" transform="translate(732.063 10996.578)" fill="#ececec" stroke="#000" stroke-linecap="round" stroke-linejoin="round" stroke-width="2"/>
    <path id="EE" d="M665.245,302.77l8.535.438,8.754,3.939-3.939,1.532-8.1,5.471-.656,1.094-5.69-.219-3.064.438-2.188,1.97-1.97,6.128-3.5,1.094-.656-1.97,3.5-3.939-3.283-3.064-4.158-1.532,1.97-3.939-3.5-3.5,3.283-.438,2.189,1.094,4.377-1.094,1.094-2.188,7-1.313Zm18.164,2.188-1.97.438-5.252-2.407,2.188-2.189,4.158,1.094ZM671.592,296.2l-1.751,1.532-1.97-1.313-1.97,3.5-2.845.656-4.158-5.471-6.347-1.094-2.845-1.532,9.848-.875,2.626-3.5,2.845.219.875,1.97,4.6.656,1.97,2.188-.875,3.064Zm116.426,41.362-4.158-.438-7.441-2.188-8.754,2.626-6.128-2.407-7.66-5.909-1.313-1.532-5.033-1.094-12.255-5.471-2.407,1.532-3.283-2.188L711.2,326.624l2.188-7.441.219-7.878-5.033-.875-1.97,2.845-2.845.656-8.973-2.845-2.626-4.6-3.5-2.407-1.751-2.626v-3.939l-3.283-4.377,1.532-2.407-1.532-6.128,6.566-2.626,7.222-.438,1.97-2.845,4.377-2.845,5.033.438,6.784-2.188,13.787.219.875-3.72h7l16.632,2.626h3.939l6.128,2.626,3.064.656h8.754l13.787,1.094,2.626-2.188,3.283,2.626L793.27,281.1l-2.626.875-1.97,7-1.751,2.188-3.72-.656-5.471.438-4.377,1.094-2.845,2.407.219,2.407,5.69,5.033,3.064,6.128,5.69,4.815,1.751,2.845,5.252,6.346,3.939,5.471-5.033,1.313-2.626,4.377-.438,4.377Z" transform="translate(913.065 10963.776)" fill="#ececec" stroke="#000" stroke-linecap="round" stroke-linejoin="round" stroke-width="2"/>
    <path id="FI" d="M690.354,418.54l4.377.438-1.313,6.128-5.033-3.939,1.97-2.626Zm-4.158,1.094-4.6-1.313,1.97-1.751Zm-14.225-5.909-3.283,1.532-.656-3.72Zm55.806-137.654-3.283,1.094-2.845-.657-.438-1.97,4.377-1.313Zm65.872-119.49-8.1,2.845,3.5,1.751L790.8,163.8l-4.377,7,.219,1.313,6.784,8.754,15.757,3.72,5.033,3.939,7.878,5.033,3.939,1.97.219,4.158-6.565,6.565L814,213.044l-2.626,3.72.876,3.72,5.69,4.6,5.033,4.815,6.565,7.66,6.565,5.471,6.565,9.191.875,3.064-8.1,1.532,2.626,1.97-1.313,2.845.656,4.158-1.094,3.283,4.158.657.656,2.845-3.72,2.188v1.97l3.064,3.72,2.188,1.313,7,1.313,1.97,3.5-2.188,3.72,3.939,4.815,9.848,3.939,1.532,2.845.438,3.72-5.252,6.565-4.377,1.751,1.532,1.751,9.848,5.69,14.444,6.347,5.69,2.845,4.6,4.158,4.815,3.5,1.094,2.188-3.5,9.848-1.532,2.626-4.815,4.815-7.441,6.128-5.033,5.033-11.6,12.912-4.158,3.283-4.6,4.815L844.2,397.093l-1.532,1.751-5.471,3.283-12.255,11.38-7.66,2.188-5.69-2.407-3.939.438-2.626,1.751-5.471.438-4.377,1.313-2.189-1.532-1.532,1.313-4.158.438-4.377-2.188.656,3.283-7.222,3.283-1.751-1.97-4.377,2.188-4.6.438-2.407,1.751-12.912,2.407-3.283,2.845-2.626-.656-14.663,2.407L723.4,430.8l-5.909,4.377-3.939.875,3.283-6.565-5.252-2.407-2.626-3.5-1.532.875-.657,3.283-3.283,1.751-4.377-.219-.875-5.252,1.751-5.033-7.878-1.313-8.316-3.064-1.97-.219-1.532-2.845-4.377,1.97-4.6-1.97-3.72-11.6v-2.845l1.97-3.5-.219-7.441-1.313-4.377,2.407-1.313-1.97-3.5-4.815-6.565-3.5-2.407,1.094-7.222-1.313-3.5-4.158-2.407-2.407-6.346,1.313-5.252,5.252-4.815v-2.626l1.97-2.407-1.094-2.845,5.909-1.094,2.189.875,5.252-.875,4.158-2.188-2.407-3.939,3.283-1.532,2.626-2.626L681.6,317l5.033-1.094,5.252-4.158,5.033-2.407,5.033-4.158,2.407-.219.656-2.845,5.471-4.158,1.751-3.5,5.033-3.939,4.815-8.535,8.316-2.626,8.316.657-1.313-3.72,2.189-.657-1.313-2.845-2.189-1.313V261.409l-2.845-1.97-9.848-3.5-3.72-.219-2.626-2.626-10.067-1.532-3.5-5.471-4.158-4.815-3.939-1.313-2.845-5.69v-2.845l3.283-2.845-.219-3.939,1.532-3.064-1.313-1.97-7.222-5.69-1.751-3.5.219-2.407,2.188-1.751-1.313-2.845-6.128-.875.656-4.158-1.532-3.064-.875-5.252,2.407-2.188-3.939-1.97-4.158-3.283-3.064-.219-2.626-3.5-7.66-3.939-18.164-3.72-9.192-3.939-10.5-5.033-6.347-2.407-.875-1.97-6.347-1.751,1.094-.875h4.6l4.158.875,1.094-1.313-2.188-3.064,4.158-2.407h7.878L647.679,161.4l3.064,3.939,15.1,1.313,1.751,1.094,3.939-.219,8.1-1.97,2.626-2.626,3.283.219,7.878,2.407,8.535,1.751,5.69,1.751,2.845-1.313,1.094-3.72,3.5-2.845,4.6-.657,3.283-3.064-1.532-7,1.313-3.72,1.532-8.316,5.69-3.72,3.72-3.939,4.6-.438,8.316.875,1.97-.438,7.66-3.5,6.347-.657,3.939,2.626L775.7,133.6l9.192,2.407,7.878,1.751,5.69,5.909-1.532,2.188-7,6.346v1.532l3.72,2.845Z" transform="translate(868.26 10792.64)" fill="#ececec" stroke="#000" stroke-linecap="round" stroke-linejoin="round" stroke-width="2"/>
    <path id="GB" d="M486.2,543.575l-3.5,2.845-2.845.438-5.471-2.626v-1.094l5.471-2.407,4.377,1.313Zm-79.879-86.882,2.845,1.97-7.441,4.158-2.626-1.313-1.97-2.626-.219-4.158,2.626-1.094h3.939l2.845,3.064Zm-50.991-24.948-4.6.875h-6.346l.219-3.283-3.064-1.094-3.939-5.909-2.845-1.094-4.158,3.5,1.094,1.97-5.252,3.939-6.347-.656-1.751-1.532-4.6-.875-.438-2.188-5.909-4.377,2.188-3.064,6.346-1.97-2.188-3.064.438-1.751,3.5.219,4.815-1.751,2.626-3.5,2.188-5.033,4.158-1.97,2.845,1.313,4.158-4.377,6.128-.219,5.909-1.532,8.535.657,2.407,2.407,1.094,3.72,2.845,3.72,3.72,3.064v1.97l-4.377,2.407,7.66.656,2.626,5.471-4.6.656-.219,3.064,2.407.438-1.313,3.064-5.69,1.313-3.064,4.815-2.188,1.094-5.033-1.094Zm29.982-44.207-5.69-1.094-1.313-4.377,1.97-3.064,3.939,1.532,1.313,2.845-.219,4.158Zm-15.976-28.888L359.266,360.4l1.313-6.565-4.158-1.97.656-1.97,4.6-1.094,3.72,3.72,4.6,1.313-.656,4.815Zm-7.441-37.423-.219,6.128,6.346,1.751,4.377-.219.875,1.313-7.222,5.909-1.532-.219-.438-4.815-3.064.657-4.158-.657-2.626-4.158-5.909-1.094-1.97-2.407,3.064-1.313.656-2.626,6.128-1.313,3.283-1.532,1.97,2.188.438,2.407Zm75.939-32.17v2.626l-2.845,3.5-4.815,2.626-9.192,6.128-5.471,2.845-1.094,3.5,3.064.219.438,1.751-4.815,3.5-1.313,3.283,6.565-.875,11.6-3.283,7.878,1.094,5.69-.656,15.1.438,4.158-.657,5.033,2.845,2.188,3.72-6.128,7.441-1.751,5.033-4.377,7.66-4.158,4.377-4.377,5.471-4.6,2.407-6.784,1.094,9.848,4.158-3.064,3.939-5.252.219-5.033,3.72-4.6,1.532,7.878,2.407,5.252-2.188,5.909-.219,11.38,4.158,7.878,7.441,4.377,3.283,1.094,2.407,4.6,15.1,3.283,8.316,3.5,3.939,9.848,3.5,2.407,1.313,7.441,7.222,7.441,5.252-3.064,3.283.875,2.626,4.6,6.347.656,3.5-2.845-.219-5.033-3.064-.656,1.532,10.942,7.222,3.5,4.377,2.188,5.909-1.313,2.407-6.565,5.909,6.128,3.064,2.626-.438,4.377-4.6,3.72-.438,9.192.656,8.316,2.188,7.222,4.6,1.532,2.407.875,6.784L554.477,497.4l-6.128,4.158-1.094,3.72-4.6,1.97-3.72-.656-5.252,2.626,3.72,1.313v3.72L535,515.563l-5.471.438,2.407,4.377,5.471.875,9.41-.438,4.158.438-.438,5.909-.875.875-8.316,3.72-2.188,3.939-4.815-.219-2.407,1.532-12.474,4.158-10.723-1.751-6.346.219-8.754,1.313-9.192-2.626-3.939-.438-6.128,3.72-9.192,1.094-4.377-.438,1.97,3.283-1.97.875-8.316-1.094-2.188,1.094-3.064-.438-5.909-3.064-5.69-.219-10.723,2.626-2.188,2.845-2.845,7.66-2.407,2.626-3.064.438-9.848-5.471-3.283,1.094-5.471.656-5.909,1.532-8.535,5.252-1.97,3.283-2.845.438-2.407-1.97-3.064-.656-5.033,1.751-.656-2.845,2.188-2.188,6.128-1.532,5.471-4.158L384,549.046l10.067-8.316,1.751-6.784,5.909-1.532,3.064-5.471,8.973-1.313h6.128l6.128,1.094,6.346-.219,2.407-1.532,4.158-5.252,7.878-6.565-10.286,2.188-8.316,5.033-7-.875-5.033-4.158-4.6-1.751-4.6.875-1.532-1.97-5.252-3.72H394.5l-7.878,3.72-5.69-2.626-1.97-5.033.657-3.064,2.407-1.532,5.471-1.313,8.316-3.72,4.815-1.532,6.128-4.158,2.626-5.033-.656-4.377,1.094-3.064-1.97-3.72.657-3.283-6.565.657-5.909,2.626-1.532-2.407,6.128-3.939,2.188-3.064,5.69-3.72,7.878-2.845,4.158.219,8.1-1.532,5.909,2.845-1.751-4.6,2.626-.875.219-5.252,3.5-4.815-2.626-1.313.219-4.377,3.283-1.751,1.532-5.69-3.72-1.094-4.6,1.313-3.72-3.283-6.128-7.878-.656-3.064,3.5-6.784,5.033-4.377-4.158-1.751-3.064.438-5.909,2.626-4.377,2.845h-4.6l-1.751-1.97-2.407.219-5.471,2.407-7.66-2.845-2.407,5.033-5.69-5.471-.656-4.158h2.845l2.626-5.252,6.347-8.754,1.313-2.626-1.094-3.064L391,379.441l.656-5.69,1.751-2.188,3.283-.875-4.158-2.626-6.346,1.97L382.245,372l.656-4.377-1.313-.875-3.283,3.064.219,7.222-4.6,12.474-2.407,1.97-3.064-1.094,2.407-8.535,3.064-5.471-1.313-.656.656-7.878,2.188-6.346,3.72-8.316L384,345.52l-8.973,5.909-2.188,1.094-5.252-.875-1.751-1.532-2.188-5.033,3.939-.438,3.72-2.407-3.283-1.532,3.283-1.97,3.72-4.6.875-4.158L373.71,326.7l-3.5-1.313-.438-1.97,3.72-4.158-1.532-3.283,3.5-6.784,6.565.219,4.158-.875-5.033-4.377,1.532-6.346,8.1-.656-1.751-3.939.656-4.377,3.5-1.97,2.845.438,2.188,1.97,5.69-1.97,1.313,1.751,6.128-1.313,8.1-.656,9.848-1.313,4.815-.875,5.033.438-1.313,3.72Z" transform="translate(509.11 10980.771)" fill="#ececec" stroke="#000" stroke-linecap="round" stroke-linejoin="round" stroke-width="2"/>
    <path id="GE" d="M1055.735,589.771l-5.033,1.094,1.094,1.532-7.66.219-2.407.438-7-.656-11.6,2.845-9.629.656-2.845-2.626-4.158-.438-2.407-3.72-7.66-5.471-2.626-.875-1.313-2.407-3.064-.656-3.064.875-1.97,4.158-7.441-1.751-7.878-.219-2.407,2.188-9.41-2.845,4.158-6.565.875-3.72-.875-5.252-3.72-5.909-8.1-17.508-2.407-2.626-8.754-3.064-2.407-3.5-7-4.6-8.973-1.97-10.5-6.347-6.347-3.72,1.97-4.6,1.751-.438,10.5,1.97,3.283-.875,12.912,5.471L941.5,520.4l6.784,3.72,13.131,1.094,6.127-1.313h3.939l4.377,2.407,5.252-.438,7,2.626,3.283,3.5,7.659,3.064,6.128,1.751,7,3.283.438,5.252,5.471.875,9.41-4.6,4.6-1.532,3.939.438,4.158,4.158,1.751-4.815,10.067,3.72,4.6,3.939,6.128-.219,4.815,2.188-.438,9.192,6.347,3.064,3.5,2.626,7.441,1.532,6.784,3.283-2.626,4.6-2.626.656V577.3l2.407,1.751,1.97,3.283,9.848,5.69,1.97,1.751-.438,4.377-3.939,3.064-8.973-4.377-3.72,1.094-7-1.97-3.064-2.188.219-1.532-8.754-3.064-4.158-.875-6.565,5.471Z" transform="translate(1217.19 11251.025)" fill="#ececec" stroke="#000" stroke-linecap="round" stroke-linejoin="round" stroke-width="2"/>
    <path id="GR" d="M783.851,753.1h5.033l3.72-2.188,4.815,8.1,3.72-.219,7.66-1.97,8.1.438,3.064,2.188,5.69.438,5.034,1.094,7.222-1.532.875.875.219,6.128,2.626.438,1.532-1.532,3.72-1.313h3.939l3.5-1.751-.875,7.66-1.97.875-9.629-.219L824.118,772.8l-11.6.875-1.532-.438-1.532-4.815-7.222-2.407-13.568-2.189-3.283-.875-6.784.438-2.407-2.188-.875-3.939.438-4.158,3.064.656.875-3.064,4.158,2.407Zm94.979,2.407-3.5-4.6,2.407-1.094,2.626,5.252-1.532.438ZM759.121,730.558l-3.064.438-1.532-4.815,1.094-2.188,4.6,4.6-1.094,1.97Zm137.216,8.973-3.72-.875.875-3.939-1.532-3.5,5.033-5.909,7-2.845,1.97,1.97L904,729.9l-1.97,2.845.875,2.188-3.5.438-3.064,4.158ZM854.757,716.99l-3.283,2.626L849.5,718.3l4.158-2.626Zm13.568-4.815v-1.532l2.845-2.407,5.471-2.189,2.626,1.313-5.471,3.064-3.283.219Zm-48.584-11.818-1.97,2.845-2.845-1.532.875-2.626,2.407-1.313Zm7.878,3.5-2.407,1.313-3.064-4.815,4.158-4.377,1.97,1.532.219,3.939-.875,2.407ZM839.438,684.6l1.313-3.5,3.5-.219v2.407l-4.815,1.313Zm-47.49-1.532-2.188-.875.875-2.626,2.407,1.094-1.094,2.407Zm69.155-8.1,6.128,1.532-1.532,2.188-3.5,1.97-3.72-1.97-2.626-2.626Zm-167.854.219.875,2.626L691.717,680l-3.5-2.626-2.626-3.939,1.97-2.407,1.97,2.626,3.72,1.532Zm116.207,1.532-3.064-.219-5.252-4.6,1.97-3.064,1.97,2.626,2.845.219Zm-125.4-21.228.656,3.939,1.97.656,2.845,3.5-.438,2.626-4.6-1.751-2.189.438-2.407-4.377-2.845.438,1.313-3.939,3.064.219,2.626-1.751ZM839,660.965l-2.407,1.97-3.939-3.72,3.064-2.845-4.6-5.252-.219-2.188,4.6-1.094,2.845,1.97,1.313,2.626.875,5.69L839,660.965ZM685.37,647.615l-2.845.219-.875-1.97,1.751-5.252,2.407.656.438,5.471-.875.875Zm75.72-11.818,1.97,3.72,12.037,5.471,6.128.656,3.72,5.69-.438,1.313,3.283,8.316,2.407,1.97,5.909.656.875,4.158-1.97,1.751-4.158-1.532-4.6-3.5-.875-2.845-4.815-6.347-7.878-.438-3.283-1.532-1.313-3.72-3.283-1.97-4.377-4.158-3.283-2.407-6.565-2.407-1.313-1.532,4.158-2.845,4.6-1.094,3.064,2.626ZM844.033,623.1l-.219,1.97,4.158,3.283,1.532,2.188-2.626,4.6-8.754-1.751-1.751-1.751,3.5-2.845-1.97-1.094-2.626,3.283-4.815-1.532-1.97-1.97,1.532-3.064,3.283.219,3.72-1.751v-1.313l5.033-.438Zm-177.921-3.5-2.845.656-2.626-1.751-2.626-4.158-4.815-4.815,1.532-2.407,3.5-.876,3.064,2.626-2.407,2.626,1.751,1.532,1.97,5.252Zm148.377-18.821-1.532,3.064-.219,2.845-8.316-1.532-.656-5.033,4.815-.219,1.751,1.751,2.188-1.97,1.97,1.094Zm5.252-15.1-3.064.875-3.72-2.845,3.064-1.094,3.72,3.064ZM793.7,579.117l-3.5,1.313-3.939-2.407,2.407-5.033,2.845.219,2.188,2.845Zm34.8-3.72-1.094-1.532-4.6-2.626-10.067-1.313-5.033-1.97-1.97.438-4.377-2.188-2.626.875-5.471,3.72-3.283-.438-3.5-2.189-4.815.876-3.72,4.158L774,575.4l-3.939-.875H765.03l-.438,2.407,4.377,4.6-1.094,2.188,1.094,2.188,4.6.219,5.471,2.845L777.5,590.5l-7-2.626-2.626-.219-2.626,2.626,7.66,5.909L774,599.251l-1.313,1.97-3.283-1.751-5.471-7-6.784-1.313-.875,1.313,2.626,5.252,6.347,3.72-1.313,1.313-6.565-2.188-2.407-3.5-.875-4.377-12.037-6.128-3.064-6.128-4.815,2.845.875,4.377-1.313,8.316.875,2.845,7.66,8.1,2.845,5.909,5.69,4.6,5.69,7,1.532,3.939-2.845,2.407-2.845-1.094.656-4.158-4.815-2.626-4.158,2.626,3.283,5.033,1.094,2.626-.875,2.845-3.5,1.751-5.69.219,5.252,3.064,7.222,2.188,3.5,2.407,3.283.219,3.72,4.6,5.69,1.313,3.72,4.6,4.377,1.094,3.72,1.751,2.188,4.6.656,6.347,1.313,4.6.219,3.721-2.407,1.094-2.845-3.5-9.192-7.878-2.188-.875-2.189,1.532-6.346,1.094-4.158,2.845,3.283,2.845.219,2.626,1.751,3.283,4.377.875,4.377,5.252-6.565,2.188-2.407,1.532-1.751-1.094-.438-2.626-9.41-4.815-1.313,1.313,1.532,5.252,2.845,3.5,4.814,9.41,2.845,8.1-.438,4.6,2.188,3.283.219,3.283-3.72-2.626-4.815-5.471-1.751-3.283-4.815.219-2.845,7.222.438,4.158-3.5-2.407-.438-6.346-4.6-6.128-1.97-.875-2.845-4.158-3.283,1.313-.219,6.347-.875,2.188-4.815-4.158-5.033-7.66-.438-3.939,3.064-3.72-.656-2.626-3.5-5.471-4.6-3.283-2.626-1.094-1.532-3.5-4.377-2.845V671.25l4.377-3.72,2.188-5.69,4.158,1.094,3.064-.438,4.377-5.252,3.5.219,8.535,4.6,9.192,2.626,4.6,2.188,2.626,2.407,3.5.656-1.094-3.064,1.751-.875h4.6l.438-3.5-4.377-1.313-1.751.438-5.252-3.064-5.033-1.751-4.815-3.283-2.626,2.845h-2.626l-7.441-1.97-4.6,1.532-9.192,1.532-2.407-2.845-5.69,2.188-2.188-1.532-4.158-9.192-3.72-4.158-2.626-1.094-.438-4.158,3.283-.438,5.252,1.97,1.97-1.313-1.313-3.5-5.471-.438-3.939,1.094-6.128-4.815-3.283-3.72-4.815-2.407-3.72-7.441-5.69-5.69,5.909,1.97,1.532-1.532.656-3.283,1.97-1.532-2.189-4.815,3.72-2.845,4.158-.656,1.313-1.094.656-4.377,2.626-6.784,3.72-1.751,1.751-5.69-2.407-3.939v-2.407l10.067-.657,1.97-1.313,5.033,1.313,5.252-2.845,3.72-5.471,1.751-.657,6.565-.875,7.222,1.313,6.347-2.188.438-4.6,4.377-.656,6.565.438,2.188-2.188,5.252-.438,5.69.438,6.565-2.407,4.158-.438.438-1.97,9.192.219,3.5-1.094,2.626,3.72,5.252,3.064,1.97-1.313,8.1,2.626,3.72,2.407,7.441-1.97,7-.875,3.939.657,5.471-2.626.438-1.751-1.97-5.909-1.532-2.188,3.5-2.407,3.5,1.094,2.626.656,5.034,3.283,1.97,6.784-7.441,5.471,1.094,9.629-5.471,7-1.751.875Z" transform="translate(920.077 11284.657)" fill="#ececec" stroke="#000" stroke-linecap="round" stroke-linejoin="round" stroke-width="2"/>
    <path id="HR" d="M661,586.208l5.033.875-2.407,1.97L661,586.209Zm28.231,3.283,3.5-.219,1.313,1.97,13.568,8.316,3.72,1.532,2.626,4.158-10.5-6.784-9.629-5.471-6.784-1.532-9.41-4.377-1.094-1.97,12.693,4.377Zm-13.787-7.66-1.751.219-12.255-.219-3.72-.656-1.094-2.845,3.939.438,1.094,1.313Zm-11.6-5.033-4.377.219-5.69-1.751.657-2.407,10.5,1.313Zm-46.4-36.109-.656.875-7.222-5.909-.656-4.158,6.128,5.909Zm-10.724-14.225-4.158-.438,1.751-2.407,2.407,2.845Zm-9.192,3.283-1.97-.219-3.72-9.192.875-2.626-1.751-4.377,1.97-.656,1.094,4.6,2.188,1.97-.219,3.5,1.532,7Zm8.1-10.723-3.283.656-2.188-2.188-2.845-.438-2.188-2.188,2.188-1.532,1.094-2.626,7.222,8.316Zm108.328-32.17-1.532,3.283,3.5,5.909.438,3.5,2.845.875-.875,4.377,2.626,2.188,6.565,2.188,1.97,3.283-5.033.219-3.72.875,1.532,5.69-2.188,3.5-4.815-.438-2.845-4.815-2.407-1.751L705.2,515.3l-5.69-1.532-3.939.438-3.939-.656-4.815,2.188-3.5-2.845-3.72,1.313-6.128-1.532L668,512.458l-5.909-3.5-3.283,2.626-7-.657-5.909,7-3.939-2.188-3.72-3.939-3.939-.875-2.626,1.313-.656,10.942.219,3.064,4.158,2.845,7.441,7,2.845,8.754,5.033,5.252,6.128,5.033,3.72,4.377,10.942,8.973,5.252,2.407.875,4.815,3.283,3.5,6.565,5.471-.656,3.5-7.66-6.128-5.69-3.283-6.784-6.128-8.316-2.407-5.909-2.626-7.222,1.313-3.939-.438-1.532-4.815-12.693-8.535-9.41-8.754-1.751-2.845,6.784-2.626-3.064-1.751-8.535-7.441-2.626-3.5-.219-8.973-1.751-3.72-6.347-4.815L597.75,508.3l-4.6-1.532-3.064,1.97-.656,4.158-6.565,10.942h-2.845l-6.784-9.192-1.094-4.158-2.845-8.535,1.532-1.094,1.094,1.313,7.222,1.751,3.064-2.845,2.407,1.094,7.878-.219,1.313-.657,2.626-4.815,5.69,4.6,3.283,1.532,2.845-1.094,4.377,1.532,3.5.438,2.626-.875-1.751-5.033,1.532-1.532-2.188-2.407,4.6-2.188,4.6-1.313.875-2.407-.438-4.815-1.97-1.97.875-3.064,9.629-3.72,1.532-2.188h4.377v-3.72l1.97-1.751,5.471,1.313,6.347,2.626,3.72,2.626,1.97,2.845,5.909,3.939,4.815,4.815,2.845,1.532,5.471,1.313,2.845,2.845,7.222,1.97,10.724.438,5.471-1.969,2.407-3.064,6.347-.875Z" transform="translate(820.366 11196.593)" fill="#ececec" stroke="#000" stroke-linecap="round" stroke-linejoin="round" stroke-width="2"/>
    <path id="HU" d="M755.975,440.415h3.283l3.064,5.033,4.815,1.751,1.97,2.407,5.033.875,1.97,1.532,1.532,3.72-4.815,5.033-10.067,2.407-4.158,5.252-2.626,2.189.219,3.72L753.13,477.4l-1.532,5.471-3.064,3.283v2.626l-3.5,5.909.438,2.845-4.6,3.283L737.592,511.1l-2.845,1.97-5.69-.656-5.471,4.377-3.064-1.094-7,1.97-2.188-1.094-6.128-.656-2.407.438-6.347-.875-2.188.656-3.283,3.5-4.814,2.188-3.5-1.094-4.6,2.845-6.347.875-2.407,3.064-5.471,1.97-10.724-.438-7.222-1.97-2.845-2.845-5.471-1.313-2.845-1.532-4.815-4.815-5.909-3.939-1.97-2.845-3.72-2.626-6.347-2.626-4.158-4.815-3.064-7.222-5.252-.219,3.939-3.72,5.471-1.094.656-3.939-2.407-3.5,1.094-1.532-.875-3.283,4.815-2.626,1.094-3.064-1.094-2.407-5.69-1.532,2.845-3.064,5.471,1.97,8.535-.656-1.532-4.377,1.313-4.158,1.313-1.532,4.6.657,9.192,5.909,3.5,1.532,10.286.219,15.319-.875,1.313-2.188-1.094-2.845.875-2.189,3.064-1.532,9.41-.875,5.252-1.313,2.188-3.283,1.532-.438,7.66,3.064,10.942-5.471,3.5-7.66,3.939-.875,5.909.219,5.471,1.313,10.067-1.532,3.064,1.97,4.815,4.815,1.313.438,9.41-2.407Z" transform="translate(856.257 11159.871)" fill="#ececec" stroke="#000" stroke-linecap="round" stroke-linejoin="round" stroke-width="2"/>
    <path id="IE" d="M389.436,374.343l1.532,2.407-4.815.875,3.283,11.38,1.313,1.97v8.973l1.97,7,.219,5.471-2.845,3.939-1.97,4.6-.438,3.939-3.5,4.6-3.283,1.97,3.5,3.283-6.128,1.751-5.69-.656-2.845,1.751-8.535.438-8.1,1.532-3.72,3.939-5.471,1.532-2.188,2.188-5.033,1.751-3.72-2.626-2.188.438.438,4.6-6.347,2.845-3.939.656-2.188,1.532-12.693,3.064L301.9,458.38l-7.222,1.751-2.626-.219,3.5-3.939,3.5-2.845-8.316,1.313-3.064,1.094-1.313-1.313,7-4.158-7.222.219-6.565-.875-.875-2.188,6.346-5.033,5.252-1.97-.219-1.97-11.161.219,1.094-2.407,3.72-2.188,3.939-.219,3.283,1.313,2.407-1.751-1.313-3.72,8.535-5.033,6.565-.657,7.222-1.532,7.222-1.751-5.252-2.626-5.033,3.939-5.69.657-4.158-1.094h-4.6l5.909-4.377,3.5-3.72-1.751-1.532,4.377-5.033,7.878-2.188-3.5-2.845-8.535.438-3.064-2.845-5.69.219.875-2.626-7.66-.438,1.094-2.188-1.313-2.407,6.128-1.313-.438-4.377,4.158-1.751,4.377-.875.219-2.407-4.377-.438-4.377.875,1.751-4.6-1.751-2.188-.875-3.72-1.97-2.188,6.128-.438,2.626-1.094,10.286.219,4.158,2.845,3.72-2.626,10.5,1.97,1.313-5.69,8.316-3.283,2.626-4.377-8.1.875-7.878-2.188,1.532-1.751,4.6-1.532,4.158-3.5-.656-2.407,3.72-5.909,6.784-1.751h5.252l3.5-1.97,2.626,4.377-2.188,2.188,1.313,1.97,2.626-1.751-1.094-4.6,1.97-2.845,4.158-.656,1.313-1.751,7,3.72-5.471,3.283-1.094,1.532-4.158,1.97-2.188,5.033-2.626,3.5-4.815,1.751-3.5-.219-.438,1.751,2.188,3.064-6.346,1.97-2.188,3.064L347.418,368l.438,2.188,4.6.875,1.751,1.532,6.346.656,5.252-3.939-1.094-1.97,4.158-3.5,2.845,1.094,3.939,5.909,3.064,1.094-.219,3.283h6.346l4.6-.875Z" transform="translate(475.001 11038.174)" fill="#ececec" stroke="#000" stroke-linecap="round" stroke-linejoin="round" stroke-width="2"/>
    <path id="IT" d="M743.432,759.012l-2.626,5.471-6.128,9.41L731.4,785.054l.656,4.377,3.5,3.064-1.532,1.094,3.5,3.939.219,2.845-3.939,4.158-.876,3.72.219,3.283-6.347-1.313-3.064.656-8.1-3.064-4.158-6.128-6.565-4.377h-6.565l-3.064-1.094-6.347-4.158-6.565-3.064-5.69-4.6-3.72-.875-3.283-2.188h-6.347l-5.033-3.5-2.845-5.033,2.845-8.1,3.064-1.751,1.97-2.626,5.033,5.033,3.939-1.751,3.064-3.5,5.252.219,1.094,1.97,3.064.656,5.471,3.5,3.064.875,7.441-2.188,6.565.875,6.128-1.094,3.72-1.313,2.626-2.188,3.064-.656,7.66.656,4.377-2.626,1.751.438,4.377-2.626,2.407,2.407ZM572.076,668.191l1.532,1.97,3.939,10.942-1.313,3.5-2.845,4.377,1.751,6.128-1.313,25.167-1.313,6.347-1.97.875-6.347-2.626-3.283.656-2.626-1.313-.656,6.565-3.939,4.6-6.565-.438-1.532-1.313-5.252-8.316-.875-9.41,1.313-2.845v-5.471l2.407-.219v-3.72l-3.939-2.626V696.86l1.532-3.064-.219-5.69-1.751-1.97-1.751-5.033-4.815-5.252.219-7.441,7.441,1.313,2.845-.656,6.784-3.283,4.6-5.471,3.064-1.094,3.283-3.939,1.532,1.97L566.824,659l2.626,3.283,1.97,1.094-1.532,3.064,2.188,1.751ZM673.183,476.92l-.438,1.969-7.222,5.034,1.532,3.064,5.033,1.532-3.5,4.6.656,2.188,2.845.438-.875,4.377,4.158,2.407,3.283,2.845.438,2.845-3.283.219,1.532-1.313-4.377-4.815-4.377,1.97-7-1.97-4.6,4.377-3.283.875-3.72,2.407-7,2.626-3.939-.875-2.188,1.532-.875,6.784,1.751,1.313,3.283,5.69,3.72,2.407L643.2,533.6l-1.97,1.532-2.845-1.094-.656,3.72,1.97,9.848,3.064,7,2.626,2.845,5.909,4.815,5.909,2.407,11.161,8.1,6.128,2.407,1.532,1.532,3.939,6.128,3.5,7,3.939,11.161,2.845,5.471,5.034,6.347,10.5,8.973,9.41,6.347,8.754,4.158,6.565.656,15.319-.875,5.69,1.532.875,2.626-.875,1.97-6.347,4.6v3.72l3.283,2.626,15.538,7,15.757,5.69,4.815,3.064,5.909,4.6,14.006,6.347,2.407,3.064,8.754,6.565,3.939,5.252,1.094,3.939L817.4,704.3l-3.5-1.094-4.158-2.845-6.784-11.818-10.942-1.094-6.347-2.845-1.532-3.064-5.033-.875-2.845,1.97-3.064,4.377-3.283,6.565-3.283,9.41v3.72l2.407,3.72,6.347,2.188,5.252,3.283,3.5,3.5.656,8.316,1.97,4.6-1.97,2.845-4.158-.656-5.471,1.532-3.72,3.064-1.532,3.064,1.094,7.441-.656,3.064-7.222,5.471-3.5,5.471-2.188,5.033h-9.41l-2.407-3.283-.219-4.815,1.313-2.845,3.5-1.532,1.97-6.128-1.094-4.377,2.407-3.5,6.128-1.532v-6.346l-3.064-2.845L753.5,720.277l-5.252-9.41-3.064-8.316-2.407-3.939-3.064-2.188-8.1-.656-10.067-5.69-.656-2.407,1.313-2.407-2.407-6.128-4.377-3.72-5.69,1.313-2.626-.219-.219-3.283-4.377-2.845-5.909-.438-1.532-1.532-5.69-8.754-3.72-3.72-5.033.219-8.535-1.97-4.377,1.532-7-5.69-6.128-1.97-12.474-11.6-3.939-4.377-7.66-4.815-5.033-7-3.939-2.626-8.754-3.064-.656-2.845-6.784-6.784-3.72-2.188-2.845-4.6-5.471-1.094.219-5.909L590.9,583.5l-3.72-4.815-2.626-11.6L582.8,563.8,578.86,561.4l-8.754-2.626-12.474-7.441-2.407-.219-7.441-2.845-4.6-.438-5.69,2.626-6.784,7-5.471,7.441-1.97,1.313-7.441,2.626-6.565,1.094-.438-3.283,4.6-5.69-.656-4.377-7.222,1.313-11.161-5.252-1.97-1.97-.219-3.064-1.532-2.845,3.064-5.471,1.751-1.532-1.094-3.72-7-3.064-3.283-6.784,1.751-.875,4.158.438,3.72-2.845,2.626-.656,1.751-5.471-3.939-3.5-3.72-5.69-1.97-1.313-.219-3.5,5.69-3.72,3.064,1.532,5.252-1.094,5.69-2.188,6.784,1.751,5.252-3.064,3.5-4.815-1.313-3.283,7.441-6.346,2.188,1.313.438,5.471,5.252,4.377,4.815,1.313-.875,2.626,2.845,2.626,1.97,3.064,2.626-1.532-1.532-3.72.438-2.188,4.815-5.69,1.094-2.407v-6.346l4.377-.219,1.751,4.6,4.377,1.751,6.346-2.407,1.532.219,3.064,4.158,2.626-.656-3.283-7.66,1.313-3.939,2.845-.656,2.189,1.97,4.158.438-1.094-3.939,1.094-6.784,6.565.656,1.97,1.751,4.6.875,2.407-.875,2.626-4.815,3.064-1.313,7.441-.657,6.784.438,10.286-3.283v5.033l6.784,7.66,2.407,1.094,18.821,3.283,8.754.656,5.69,1.094Z" transform="translate(719.109 11186.611)" fill="#5c3bfe" stroke="#000" stroke-linecap="round" stroke-linejoin="round" stroke-width="2"/>
    <path id="LI" d="M520.945,462.422l-2.626-.219-.219-3.72,1.094-3.283,2.407,5.471Z" transform="translate(759.517 11183.165)" fill="#ececec" stroke="#000" stroke-linecap="round" stroke-linejoin="round" stroke-width="2"/>
    <path id="LT" d="M784.674,341.454v3.939l-1.532,6.784,8.535,2.188-2.845,2.188-.875,2.407-7.878-.219-2.188,4.377-1.751,1.313-5.69,1.313-2.407,6.565.875,5.033-2.188,3.283L765.635,385l4.158,1.094,1.97,2.407v2.189l-4.377.438-3.72-5.033-2.188,1.532-4.6,1.094-3.064,2.626-4.377-.438-1.751,5.69-3.939-.219-7.222,2.845-3.5-1.97-8.1.656-3.5.656-6.347-.875-1.751-6.565-2.407-1.97-9.848-4.815-5.033-1.532-1.313,1.313-2.845-4.377v-4.6l2.188-6.784-2.845-2.845-3.064-1.313-1.97-2.845-12.474-.219-5.252-1.313-8.535-3.064-4.377-2.626-3.939.438-1.313-2.626.438-3.5-2.407-5.252-3.5-6.346-1.532-8.316,6.128-3.72,7.878-4.158,10.286-3.064,12.912,1.094,9.41-.219,2.188,1.97,3.5-1.532,10.724,1.094,5.033.219,8.1,1.97,10.067-.875,3.72-2.845,5.033-.438,5.252,6.346,13.349,2.188,1.97.875,11.818,6.784,5.69,4.6,3.283,1.532,5.033,1.094Z" transform="translate(908.312 11019.634)" fill="#ececec" stroke="#000" stroke-linecap="round" stroke-linejoin="round" stroke-width="2"/>
    <path id="LU" d="M480.867,412.532l.656,4.815,3.283,3.5,6.128,2.407v3.064l-1.97,1.97-1.313,6.565-2.845-1.532-4.377,1.313h-3.064l-4.6-2.626,2.407-3.72-4.377-5.252.438-3.72,3.064-5.471L477.146,411Z" transform="translate(703.303 11130.634)" fill="#ececec" stroke="#000" stroke-linecap="round" stroke-linejoin="round" stroke-width="2"/>
    <path id="LV" d="M794.435,310.47l4.158.657,1.094,2.407,7,3.72,1.532,4.815-1.751,3.5-.657,6.784,3.939-.656,2.188,1.313.656,2.626,3.72,4.6,2.845,1.751,4.158,9.192-.656,3.72-2.845.438-3.064,1.751-5.471,5.252-.875,3.72-6.784-.219-6.565-.875-2.407.656-2.626,3.283-5.69,1.313-5.033-1.094-3.283-1.532-5.69-4.6-11.818-6.784-1.97-.875L745.2,353.145l-5.252-6.346-5.033.438-3.72,2.845-10.067.875-8.1-1.97-5.033-.219-10.724-1.094-3.5,1.532-2.188-1.97-9.41.219-12.912-1.094-10.286,3.064-7.878,4.158-6.128,3.72-1.751-6.128L641.9,339.139l.219-6.128,4.158-3.5,1.751-2.626,1.313-9.848,5.471-7.878,5.252-.875,6.784-2.188,7.659-1.97,3.064,4.158,10.723,6.565,2.626,2.188,5.033,7.441,9.629,3.939,6.784-1.313,7.878-5.252,2.188-2.407v-2.407l-2.626-10.286-2.407-4.377.219-2.845L736,293.4l3.283,2.188,2.407-1.532,12.255,5.471,5.033,1.094,1.313,1.532,7.66,5.909,6.127,2.407,8.754-2.626,7.441,2.188,4.158.438Z" transform="translate(906.648 10990.873)" fill="#ececec" stroke="#000" stroke-linecap="round" stroke-linejoin="round" stroke-width="2"/>
    <path id="MD" d="M781.706,538.463l-4.377-5.033,1.97-1.532-3.064-10.942-.219-5.69,1.97-10.5-1.094-6.346-3.064-5.033-3.064-6.346-6.565-4.6-2.845-3.72-4.6-3.939-5.471-7L748,464.931l-6.565-10.723-5.471-6.565-5.471-3.5h-4.6l.438-1.313,5.033-3.064,1.532.438,8.754.219,2.626-2.188,1.751.657,3.5-2.188,7.66,2.188,7.878,5.252,5.471.656,1.313,2.626,12.255,1.313,3.064,4.158,3.064,2.188,3.064-1.532,3.064,3.064,1.313,5.033-1.313,6.784,1.313,2.626,5.033,2.626,6.347,4.377v5.252l1.97,4.158,4.377,2.845,4.6,1.751,2.188,3.5.438,6.346,6.347,3.72-1.313,1.532-6.347.875L818.69,505.2l-3.5,1.313-4.6-1.751-4.158-.438-4.6-2.189-5.471,3.5,1.094,4.6,2.188,3.72-.875,4.377-5.033,3.72v2.845l-5.471,6.346,1.094,3.064-.875,2.188-4.377.438-2.407,1.532Z" transform="translate(1006.478 11161.178)" fill="#ececec" stroke="#000" stroke-linecap="round" stroke-linejoin="round" stroke-width="2"/>
    <path id="MK" d="M710.9,532.632l7.222,7,7.441,3.939,3.72,7.222,1.97,2.188-1.094,3.72V565.9l-4.377.656-.438,4.6-6.346,2.188-7.222-1.313-6.565.875-1.751.656-3.72,5.471-5.252,2.845-5.033-1.313-1.97,1.313-10.067.656-2.845-2.407-3.5.438-2.845-5.252L665.6,572.9l-2.626-4.815-.438-4.158L661,559.55l1.751-1.751-.656-4.6,1.094-5.69,3.72.657L668,546.419l.438-5.69,7.441-3.283,2.188-.219,3.5,2.626,3.283-4.158,4.6-.875,4.815-.656,4.377-1.97,4.158.656,5.033-1.751,3.064,1.532Z" transform="translate(929.347 11273.369)" fill="#ececec" stroke="#000" stroke-linecap="round" stroke-linejoin="round" stroke-width="2"/>
    <path id="ME" d="M652.74,512.9l.875,2.626,5.69,3.72,4.158,4.377,6.565,3.5,4.6,1.094,11.6,6.347.219,2.188-3.5.875-.438,1.532-4.377.875,1.97,3.283-.438,2.845-7.441,2.626-1.751-4.6-2.407-.656-7,11.6-1.751.656-5.471-.438,3.5,4.158,3.72,1.751.656,1.313v6.784l-4.6-2.626-1.97-3.939-6.784-6.347-7.66-4.377.219-2.189-3.5.219-2.626-4.158,2.407-2.188.219-1.751-2.407-3.5L633.7,531.94l1.094-1.532,3.72-.438-.219-3.283,1.094-3.72,4.377-3.72,5.033-.438-3.064-4.815,7-1.094Z" transform="translate(896.902 11251.738)" fill="#ececec" stroke="#000" stroke-linecap="round" stroke-linejoin="round" stroke-width="2"/>
    <path id="NO" d="M462.278,437.148l.219,3.72-2.188-.219-1.532-2.407-.438-4.377,1.532-1.094Zm-3.939-24.292H454.4l.656-2.845,1.97-.657Zm71.125-69.812-5.033-.438-2.188-1.751,6.128-1.751L529.9,340.2Zm7.879-10.067-.657-1.97,5.909-1.313,1.97,2.188Zm61.277-36.328-9.192.657-.656-2.407,4.6-1.751h2.626ZM613.5,273.67l-4.377.657.219-2.407,3.939-.657.219,2.407Zm8.973-12.474-.219-2.407,2.188-2.626,2.188.875-.656,3.283-3.5.875Zm6.784-54.492-3.283,1.532,2.407-5.69,2.407-1.532.876,3.283Zm18.6-11.38,5.034.438-1.094,1.751-3.064.657-2.407,1.751-4.158.438-4.158,2.188-3.5.657-.875-2.626,1.97-2.188h2.845l2.188-2.626,7.222-.438ZM675,175.627l4.814,4.6-.656,3.283-2.626,1.532-7.222.219-3.5-1.97L660.99,184.6l-3.5-2.407,3.5-3.064,5.69.875,1.094-3.72,3.72.657.875-3.283,2.626,1.97Zm13.787,10.942,2.845-2.407,3.283-.875,1.313-4.815,3.939-1.094,3.5,2.188,1.97,2.626L705.2,184.6l-6.784,2.626-5.471,4.377-3.5-.438-1.532,1.532-5.252,1.313-3.72-1.97-1.97,1.97-3.064.875-2.626-.875-6.347,3.283-6.128.657-2.188-2.407,6.784-4.158,11.161-1.313,6.347-5.033.875-5.471,1.313-1.97-2.845-1.313.438-3.72,5.252-3.72,2.845-3.064,3.283-.657,1.97,2.407-2.407,3.064-3.5,2.626,2.407,3.283,1.313,5.252-3.064,4.815ZM722.7,156.588l3.064,1.751,3.283-.657,5.033,1.532,2.188,3.283-2.626,1.97.875,3.72-8.316,1.094-1.97-1.094-3.283,1.97-3.064,3.064-4.815-1.313.438-3.5-.657-5.033,1.532-1.094,6.347.657-.875-4.377,2.845-1.97Zm271.368-5.69-3.939.875.438-3.939,3.5,3.064ZM791.86,142.582l-2.845.875-3.939-.657-1.532-2.188,4.815-2.188,3.72.657-.219,3.5Zm-33.046.657L761,144.77l3.283-1.094,2.407,2.188-3.064,1.751-1.751,2.626-4.377.219-6.346,5.033-.219,1.751-10.942,1.094-3.283-.657,3.72-5.909h3.72l3.72-1.751-.657-1.751,5.471-4.377,1.313-3.72,3.064-2.188Zm10.5-4.377,3.064.438,2.845,3.5h-5.033l-4.377-3.939h3.5Zm81.629-9.41,1.094,2.407-7.222,4.6-3.5.219-4.6-2.626.219-1.751,4.158-1.97,1.97.219,5.909-3.064,1.97,1.97Zm8.535-.657-3.939,1.094-3.72-1.97-.438-3.5,1.751-.657,7,2.626Zm-14.006-7-.875,1.751-5.909,4.6-4.815,1.532-3.939-.657-1.751,1.313h-4.377l-4.377-1.313-4.377-2.626,7.66-.219,1.313-1.094h3.283l6.128-.875,2.407.657,4.6-3.064h5.033ZM978.1,173.22l-3.72-2.845v-1.532l7-6.347,1.532-2.188-5.69-5.909-7.878-1.751-9.192-2.407-9.192-4.377-3.939-2.626-6.347.657-7.66,3.5-1.97.438-8.316-.875-4.6.438-3.72,3.939-5.69,3.72-1.532,8.316-1.313,3.72,1.532,7-3.283,3.064-4.6.657-3.5,2.845-1.094,3.72-2.845,1.313-5.69-1.751-8.535-1.751-7.878-2.407-3.283-.219-2.626,2.626-8.1,1.97-3.939.219-1.751-1.094-15.1-1.313-3.064-3.939L814.838,166H806.96l-4.158,2.407,2.188,3.064-1.094,1.313-4.158-.875h-4.6l-1.094.875-11.161.438,5.69,3.5.219,4.377-3.064,4.158-3.5,1.97,6.347,1.97-5.471,3.5-2.188-.219-18.821-3.72-6.347-.219-8.973-1.97-4.6,1.094v1.751l1.751,7.878-4.6,6.784-13.787-3.939-3.283,1.97-8.1,4.158-3.283,7.66-2.407,2.407-5.909,1.313-1.094,2.407,5.909,5.033,2.189,2.845L709.136,231l-3.283,2.188-7.222,6.347-6.565,6.346-2.845,1.97,2.188,5.471-7.222,3.283-5.252,1.094-8.316.875,3.064,8.535-1.313,5.909-.219,10.286-7.222,10.942L655.3,305.184l10.286,3.5,2.407,6.346.219,2.626-3.72,4.815-15.538-1.97-7.222.875-7.222,3.283-7.66,8.316-2.626,2.188,1.094,3.283-4.377,6.128,5.909,8.973-2.407,2.407,1.313,6.128-.219,3.939,5.471,9.629v3.5l-1.97,14.006,8.316,4.6,2.626.875,7.441,5.909-.875,4.158-2.845,5.471h-5.252l-3.939,1.313.657,3.5,6.784,10.723,1.094,3.064-1.313,4.6-.219,6.128-4.158,4.377-2.845,1.751-5.69,1.532-1.97,5.252-3.283,3.283,3.5,9.629-1.313,8.535-1.532,3.064-4.158.438-2.188-3.939L617,475.227,603.872,472.6l-5.034-6.347-.875-6.784-5.471,2.626L593.8,464.5v5.033l-5.471,8.535-2.407-.438-2.845,1.751-2.845.438-1.313-2.188-2.407.438-1.751,2.188-7.441,2.845,2.188,1.532-3.72,2.188-1.313,1.97-5.909,3.283-9.41,8.535-5.033,2.407-3.5,2.626h-3.064l-3.939,1.97-10.067,1.97-6.784-.875-4.6.875-2.407-1.532v-2.407l-2.626-.219-1.751,2.626-3.5-.875,1.532-5.252-6.784-.219-8.316-3.5-1.969-1.751-6.784-2.845-3.064-3.064-1.751-3.5.656-7.878,1.313-1.094,5.909,1.751,6.128,2.845-.219-2.626-5.252-3.5,1.751-3.939-.438-3.5,5.69-4.6-.875-1.532-7.441,4.377-6.784,1.97-2.407,2.626-2.407,1.313h-4.6l-1.094-1.97,1.094-7.222,2.626-5.909,3.939-2.188,7.441,1.532,2.188-2.188,2.845-.438,5.252-2.626-8.973,1.094-2.626-2.188L484.6,445.9l2.626-3.064.656-3.283,4.815-3.72,3.939-1.751,3.5,1.313,3.283-4.158-10.942,2.407-4.377,2.407-5.909,6.128-.438,2.407-4.377,1.97-3.283,3.283-1.313,2.626-6.128,4.158-3.064.656v-5.252L466,447.652l-.656-3.5,7,.438,3.939-2.626h-5.909l-3.064-1.532-2.626-3.283-1.313-4.158,2.407-3.939-4.815-4.377-1.094-4.815-.219-5.471,1.969-1.094,4.6.875,5.252-.438,11.38-1.97,7.441,1.313,3.064-.219,4.377-1.532,4.158-.219,4.815,2.626,1.532-1.094,11.818-2.626-6.565-3.283.219,3.064-7.878.657-7-1.313-2.845-1.313-1.094,2.845-2.407.656-7.441-1.094-10.286.657-4.6,1.532-3.064-.219-5.471-2.626-1.969-1.97-.656-5.69,6.128-.657-4.158-5.033-4.158-2.845-.438-3.064,1.532-2.845,3.283.438,8.316-.219,13.131,3.283,10.723-.657L491.6,389h-6.346L469.5,386.156l-4.815.219-2.626-.657-1.532-2.188.875-4.158,2.407-.875,2.626,1.313,4.158-5.033,4.158-2.188,4.377-1.094,4.377,2.188,2.845-.219,8.754-1.751-2.845-1.094-7.66,1.094-.438-1.094,5.252-5.033,9.192-.875,12.912,1.094,5.034,1.751.875-3.939,11.6-3.064L514.145,362.3l-3.939-1.094-10.723,1.532-.219-2.845,5.033-5.033,8.973-1.97,4.158-2.407,6.784-.438,5.69.657,2.626,2.845,9.629,3.72L531,348.515l2.407-3.72,7.222-.875v-3.5l-4.815-.656v-2.626l4.158-1.97,6.128-1.532,7,1.751-1.313,2.845,1.97,1.094,3.72-3.283,8.535-1.751,6.128,4.6,1.094,2.407,2.407-1.094,5.909-1.094,5.909.657,3.939-.438-2.188-2.845.875-2.188,5.252-2.188,3.72-.657,5.69-2.626L603,326.631l-3.064-.657,6.347-3.283-3.72-1.313-5.252,1.97-3.5,1.97,3.283,2.188-2.407,2.407-13.35,6.128-6.565,1.751-3.064-.219-4.158-5.471-4.6-.219,2.845-4.815,3.5-1.751,3.064-5.033,5.033-2.845,7-7.222,6.128-2.407,1.97-2.407,6.565-3.283,6.565-1.97.656-2.188-5.909,1.97.875-4.6,3.064-2.188,14.881-6.128,3.5,2.845,4.6-.438,5.033-3.5-.656-1.532-4.6,2.188h-3.283l-.875-1.313-4.6-1.094-.656-2.626,2.845-6.128,7.441-7.222,1.094-2.845,2.845-1.532,3.72.438-.438-2.407-4.6-2.407,13.568-2.407H650.7l5.252-1.97,1.094-2.188-14.006,2.407-5.252.219-1.751-5.909.438-3.283,4.158-4.815,3.064-.438,3.72-2.407.219-3.283,5.033-1.751,4.6-4.6,5.033-1.094,3.064.438,6.565-1.532,14.444-.219.219-1.313-13.787-.657-7.66.438-.875-1.313,6.128-5.909,4.377-2.188,3.72.438,3.939,2.188,1.313-1.751-3.5-3.283,1.532-3.283-5.69,2.407-3.939.657-1.97-4.377,5.033-4.377h5.033l.656-3.283,7.222-2.845,4.158-.438,3.283-1.313,1.313.875,1.97,5.033,3.283.657,2.189-1.751-2.845-2.407-2.407-3.939,4.377-3.283,5.033-.438,5.69,1.532,5.033-.438,1.97-2.626-13.787-.219-1.751-1.97,2.626-2.626,4.815-1.751,5.471-.219,5.252-3.064,1.97-2.407.657-3.5,3.064-2.845,8.535-1.751-1.313-4.815,1.751-3.064,2.188-1.313,4.6,3.283,3.939,1.094-1.094-3.064.656-2.626h4.6l2.189-1.094.656-2.845,3.064-2.626,10.286-1.532,1.094,5.471,1.532,3.064,1.751-6.128,3.5-4.6,5.252-1.97,1.97,2.407-.875,9.41-4.158,5.252,3.283-.438,5.471-5.033,1.313-2.626-1.532-6.128,1.313-1.751,7.66-.219,4.158.875,1.532-3.283,3.72-.219,3.939,1.97,8.972,3.064-2.845-4.815-2.188-1.751-4.6-1.094-4.815-2.188,2.626-2.188,5.252.657,4.377-1.751,4.815-.438,2.407,1.313,1.751-2.188,5.471-1.094,6.128,1.97,3.5,5.909,5.252,3.064-.219-3.064,1.313-4.158,5.033-4.377,4.6-2.188,3.064-.219,6.347-7.441-3.5-2.188,7.222-5.033,2.407-.219,11.818,4.6,3.283-1.97,7.441,1.751-1.751,2.188-6.784,6.347-1.094,1.751-.219,4.815-2.626,3.064,1.751,3.064,3.5-.875,3.939-2.845.219-2.845,9.41-8.1,4.158-4.6,5.033-3.72,3.283-.657,1.97,2.407-.438,3.283.438,9.41,8.1-3.064,2.407-6.565,2.407-1.532-1.751-3.064.875-2.407,5.033-2.845,4.815.875,7.222.657,5.909,1.751.438,3.064-1.751,1.97-6.347,2.407,1.532,1.532,4.377-1.313,1.97,12.037,1.97-4.6,2.188-1.532.219-3.283,1.751-4.158,3.939-2.845h5.909l7.222,3.72,5.471.657,3.939,1.751,5.252-1.532,4.377,2.188.219,2.188,8.316.657,8.316,3.5,1.313,3.5-9.629,2.188-3.939,2.188-7.222.875-25.167-1.532.875,1.532,18.164,3.283,1.313,1.094.875,4.6,3.939,1.532,7.659-.438v-2.845l7,1.313,8.316.438,2.407,3.72-.656,3.283-5.252.219-9.192-3.064-.875,5.033-2.407,1.97-12.693,2.845-2.407,5.69L978.1,173.22ZM889.465,112.6l8.1,1.094,4.815,3.064-7.878,1.094-3.72-.219-4.377-3.939,3.064-1.094Z" transform="translate(683.812 10776)" fill="#ececec" stroke="#000" stroke-linecap="round" stroke-linejoin="round" stroke-width="2"/>
    <path id="PL" d="M784.457,356.557l1.313-1.313,5.033,1.532,9.848,4.815,2.407,1.97,1.751,6.565,4.6,11.161,6.347,10.723,3.72,7.878,1.97,8.535-1.313,3.5-8.754,3.72-1.751,1.094-4.377,5.909v2.626l7.222,2.845,3.939,2.188,1.751,2.188-.438,5.252.875,2.407-1.751,3.283.219,2.845,2.188,3.5,2.626,3.939v2.845l5.909,6.128,4.158,6.128,3.064,2.188-2.626,2.845,3.939,5.69.219,2.845-2.626,3.939-6.565,1.094-10.5,10.067-5.252,5.909-7.441,9.629-1.313,2.188,3.283,8.316-.219,3.939,4.158,3.064-.875,1.97-7.222-1.532-1.97-.438-12.474-4.158-1.751-3.064-2.188-1.532L776.8,519.6l-7.878-.656-7,.438-3.064,3.283-3.939-.219-5.252-2.188-6.565.219-5.034,2.188-2.407,4.6-3.72-1.313-3.064.875-1.313-5.909-3.064-.875-6.565-6.565-4.815,2.845-2.188,3.72H706.11l-1.094-3.283-2.845-.438-1.094-3.5L694.949,508l-1.094-3.939-5.909-1.751-1.094.438-7.66-3.939-3.939,2.188-2.188-1.313-5.909-5.033,3.064-1.094v-3.5l-7.878,1.532-7.222-4.158-4.815-1.313h-2.845l3.72,5.252-7.66,5.471-2.188-.875-3.283-4.158-4.377-3.939-3.5-1.97,3.5-2.626,1.532-2.407-3.939-2.626-7,1.532-1.751-1.97L616.6,475.39l-10.067-2.407-2.188-2.407-.656-2.407-7.222-1.751.219,4.158-4.6.875,3.5-7.878.875-5.033-3.5-7-4.815-1.97v-3.5l-4.158-6.784,1.751-2.407,1.532-5.69-1.751-4.158-4.377-5.033,1.313-5.69-3.064-3.72-7.222-4.6-3.5-3.064,1.532-3.5,4.158-3.939.656-5.909-3.939-8.973-1.532-5.69,6.128,1.97,1.532-1.094-.219-3.939-8.973-1.532-.219-2.626,4.377.875,8.316-3.064,14.225-3.939,15.1-3.72,7.222-1.094,4.377-4.815,4.158-3.72,8.316-1.532,2.845-1.751,6.128-2.626,14.444-2.626,12.036-.875,11.818,5.033-1.97.656-6.565-2.626,4.815,7.66,2.407,2.626,4.377,1.97,3.72.656,10.724-1.094,4.815-2.407,1.094.219,14.444.875,50.116,1.97,15.319.219Z" transform="translate(818.583 11047.205)" fill="#5c3bfe" stroke="#000" stroke-linecap="round" stroke-linejoin="round" stroke-width="2"/>
    <path id="PT" d="M336.781,703.767l-2.626.438-9.848,5.471h-2.845l-5.471-2.407-9.848-.875-3.283-.656-3.939,1.532h-3.283l-2.407,2.188-1.751-.656,2.188-4.6,3.5-8.973v-5.69l.875-4.815-.656-4.6-1.532-3.064,2.407-7.66V665.47l-1.97-5.033,6.128.656-3.72-3.064h-3.283L290.386,660l-3.283.219.219-3.064-1.094-3.939L290.6,651.9l3.5-3.72-.656-3.5-2.626,2.407-1.313,3.064-6.128,1.532-3.283-1.094V646.43l1.313-3.72.875-5.033,1.751-4.815L283.6,629.8l3.5-2.845,3.064-4.158,9.41-19.477-1.313-2.188,3.72-14.444,2.626-5.033,1.313-9.41-.438-4.377-1.532-4.377-1.532-9.41v-3.064l-1.97-3.939.219-2.188,3.064-3.72,2.626-2.407,4.158-1.97,8.973-2.188,2.188,3.939-2.845,4.158,1.97,2.845,6.565-2.407,6.347-.219,4.815,1.751H341.6l5.471-1.97,1.751-3.064,3.283,1.094,11.38.219,1.532,2.407.219,6.784,4.158.438,4.158,1.97.656,2.407-5.471,5.471-4.6,2.407-3.5,3.064-2.407,3.5-4.377,3.5,1.751,4.377.875,7.66-.875,8.316.875,2.407-5.909,4.6-.438,2.188,3.064,2.845v4.158l-3.72,7.66-2.189,1.094h-9.41l-2.407.656,2.407,4.158,3.064,2.626.656,4.158,3.5,7,3.721.875,1.094,1.751-1.313,5.252-7,6.565L339.626,660l6.565,9.41,3.72-.438-1.532,5.252-4.6,1.313-7.659,9.41-1.751,4.815,2.407,14.006Z" transform="translate(476.665 11277.528)" fill="#ececec" stroke="#000" stroke-linecap="round" stroke-linejoin="round" stroke-width="2"/>
    <path id="RO" d="M870.008,534.422l3.283,3.5,3.939,1.97,8.754,1.97,1.313-2.626,1.97.656,3.5-1.094,4.815-2.845,4.815-.438,4.815,1.532,4.158,3.939-.438,9.41-1.532,4.6-13.568,2.845.875-1.313-1.532-4.377-2.188-2.188-1.97,2.407,1.313,3.72-1.532,3.064-.438,5.252,1.313,1.97-3.5,4.377-1.094,2.845,1.751,10.5-.875,8.1h-4.377l-5.69-1.094-4.815-1.532-5.471-5.69-3.72,1.094-1.97-1.313-7-.875-9.848-5.033-6.347.875-9.629,1.97-7,2.626-7.222,4.6-2.626,3.5-3.5,1.97L803.7,594.6l-9.192-.438-20.571-3.72-5.471,1.094-7.66-.875-11.6-2.189-8.535-.656-8.1,1.313-1.97-3.939,3.939-4.377-9.41-5.471-1.751-2.626-3.5-1.969-1.094-3.72,5.471-3.939-6.565-3.5-3.72,1.094-3.72,3.939-2.845.438-2.188-2.626-3.283-1.532-7.66-1.532-3.283-2.626-4.6-1.313.438-1.313,3.939-1.751-5.033-2.407,3.283-4.377-1.97-2.407-5.69-1.751-8.316-4.158-4.815-3.939-.875-8.973-1.751.438-3.939-4.377-6.347-3.72-3.72-4.377,7-1.97,3.064,1.094,5.471-4.377,5.69.657,2.845-1.97,3.283-10.286,4.6-3.283-.438-2.845,3.5-5.909v-2.626l3.064-3.283,1.532-5.471,3.064-3.064-.219-3.72,2.626-2.188,4.158-5.252,10.067-2.407,4.815-5.033,4.6-1.97,1.97-2.626h1.532l5.909,3.283,5.909-.219,15.1,3.064,7.878-1.532,2.626.656,9.41,7.222,4.6-1.094,2.188-2.626,7.441-2.845,18.383-2.626,2.407-4.158.438-3.064,8.1-1.751h4.6l5.471,3.5,5.471,6.565,6.565,10.723,3.283,2.845,5.471,7,4.6,3.939,2.845,3.72,6.565,4.6,3.064,6.346,3.064,5.033,1.094,6.347-1.97,10.5.219,5.69,3.064,10.942-1.97,1.532,4.377,5.033Z" transform="translate(918.175 11165.219)" fill="#ececec" stroke="#000" stroke-linecap="round" stroke-linejoin="round" stroke-width="2"/>
    <path id="RS" d="M671.685,474.288l3.72,4.377,6.347,3.72,3.939,4.377,1.751-.438.875,8.973,4.815,3.939,8.316,4.158,5.69,1.751,1.97,2.407-3.283,4.377,5.033,2.407-3.939,1.751-.438,1.313,4.6,1.313,3.283,2.626,7.66,1.532L725.3,524.4l2.188,2.626,2.845-.438,3.72-3.939,3.72-1.094,6.565,3.5L738.87,529l1.094,3.72,3.5,1.97,1.751,2.626-1.97,1.532-.438,4.158-4.6,2.189-.875,5.033,1.313,5.252,5.252,8.535,6.346,3.283,2.845,3.5,3.5,2.188-.656,3.064-3.5,3.72-2.407,3.5-3.939.219-2.407,1.313v7.222l3.064,6.346-2.407,3.72-2.188.657-3.064-1.532-5.033,1.751-4.158-.657-4.377,1.97-4.815.657-1.313-2.845,2.188-1.97,2.626-7,.438-2.626-10.286-2.626v-2.845l-4.815-2.626-.438-1.532-5.034-4.6-6.128-2.845-2.407-2.845-3.72,1.97,1.313,3.5-.875,2.188-3.72,2.845v3.064l-3.283,1.094-.219-2.188-11.6-6.347-4.6-1.094-6.565-3.5-4.158-4.377-5.69-3.72-.875-2.626,1.532-1.751,5.471.656.438-4.815-7-8.1,1.094-1.751,6.784.219.656-1.751-7.222-6.346-5.252-2.626-1.094-1.751.219-5.69,3.5-5.909,1.094-5.471-3.283-1.751-6.128,1.532,2.188-3.5-1.532-5.69,3.72-.875,5.033-.219-1.97-3.283-6.565-2.188-2.626-2.188.875-4.377-2.845-.875-.438-3.5-3.5-5.909,1.532-3.283,4.6-2.845,3.5,1.094,4.815-2.189,3.283-3.5,2.189-.657,6.346.875,2.407-.438,6.128.656,2.189,1.094Z" transform="translate(898.09 11203.248)" fill="#ececec" stroke="#000" stroke-linecap="round" stroke-linejoin="round" stroke-width="2"/>
    <path id="SK" d="M755.5,437.208l-3.283,6.565-1.751,6.346-3.5,3.72.219,5.471-9.41,2.407-1.313-.438-4.815-4.815-3.064-1.97-10.067,1.532-5.471-1.313-5.909-.219-3.939.875-3.5,7.66L688.748,468.5l-7.66-3.064-1.532.438-2.188,3.283-5.252,1.313-9.41.875-3.064,1.532-.875,2.188,1.094,2.845-1.313,2.188-15.319.875-10.286-.219-3.5-1.532-9.192-5.909-4.6-.656-5.033-6.346-3.5-6.346-.219-1.751,1.97-5.252,2.407-6.128,3.064-2.626,7.878,1.094,3.72-.438,3.283-1.532,4.6-4.158,3.5-1.751,1.532-6.565,5.033-2.626,1.313-1.751,4.377-3.283,6.128-.656,2.845.438,1.094,3.283h4.815l2.189-3.72,4.815-2.845,6.565,6.565,3.064.875,1.313,5.909,3.064-.875,3.72,1.313,2.407-4.6,5.034-2.188,6.565-.219,5.252,2.188,3.939.219,3.064-3.283,7-.438,7.878.656,6.784,2.188,2.188,1.532,1.751,3.064,12.474,4.158,1.97.438Z" transform="translate(865.052 11140.974)" fill="#ececec" stroke="#000" stroke-linecap="round" stroke-linejoin="round" stroke-width="2"/>
    <path id="SI" d="M650.6,473.755l-5.471-1.313-1.97,1.751v3.72h-4.377l-1.532,2.188-9.629,3.72-.875,3.064,1.97,1.97.438,4.815-.875,2.407-4.6,1.313-4.6,2.188,2.188,2.407-1.532,1.532,1.751,5.034-2.626.875-3.5-.438-4.377-1.532-2.845,1.094-3.283-1.532-5.69-4.6-2.626,4.815-1.313.657-7.878.219-2.407-1.094-3.064,2.845-7.222-1.751-1.094-1.313,3.72-2.407,3.283-.219-.438-2.845-3.283-2.845-4.158-2.407.875-4.377-2.845-.438-.656-2.188,3.5-4.6-5.033-1.532L567,479.883l7.222-5.033.438-1.97,10.942,1.97,10.942,1.532,6.565-2.626,2.188-2.845,4.158-1.532,5.69-.438,6.128.438,5.033-2.407,3.5-.438,5.252,1.094.219-4.158,2.845-1.97,5.252.219,3.064,7.222,4.158,4.815Z" transform="translate(817.632 11190.652)" fill="#ececec" stroke="#000" stroke-linecap="round" stroke-linejoin="round" stroke-width="2"/>
    <path id="SE" d="M667.992,532.49l-3.283-.656-.657-8.316,4.377-10.067,2.188-.656,5.909-14.225,1.094,4.377-3.283,7-.656,4.815-1.313,1.094-4.377,16.632Zm57.338-49.678-2.845,3.064-3.064,1.094.219,7.222,3.283,2.626-2.845,1.094-1.532,3.939-3.939,1.313-3.283,3.5-.656,3.5-4.6,1.97,2.626-5.252-1.97-1.532-3.064-4.6.875-1.97-1.313-7,5.909-6.346,2.845-2.407,7.222-2.188h2.845Zm80.535-247.3-5.909.657-4.815-1.313-2.188.657-8.316.657-2.407,1.532-4.6-1.532-4.377-2.626-4.377,2.407-3.5-2.188-2.188,4.158.219,3.939-3.939-.438.656,2.407-4.377,3.283-7,.438,1.532,3.283-1.97,1.532,2.188,3.72-2.845,3.283-4.6,4.158-1.094,2.188,3.72,2.407,3.5,5.471,3.5,2.407-.875,2.626-4.6,2.407-4.815,3.72-4.377,9.41-6.784,2.845-5.252,3.5-6.565,1.532-5.252,4.815-3.939-1.751-3.283,1.094-2.188,3.939-4.158,3.283-5.252-.438.438,1.751-5.033.657-2.188,8.754-4.815,1.313-1.532,1.751-1.97-1.313-4.6.219,3.5,6.128-3.72,3.939h-2.626l-3.283,1.532-4.158-1.751-.438,2.626,1.751,2.845,2.845,2.188-.219,2.845-1.97,9.41,1.532,3.939-4.6,2.626-1.751,2.407,1.313,3.72-.219,2.407,1.532,4.158,1.751,9.192,2.407,4.377-.219,3.5,2.845,1.97,4.6-.219,3.064,3.5,6.784-1.751,1.751,2.407,6.347,4.815,3.72.657,4.158,2.626V409.5l6.347,2.188,4.158,4.377,1.751,3.5-.219,2.188-5.69,3.283-2.845,2.845-8.316,4.6-1.313-.219-4.6,2.188L696,435.76l3.064-1.532,5.69-1.313,3.064,2.626-4.815,1.094-.656,3.5-1.751,2.188-4.377,1.532L690.1,447.14l-8.754,3.064-2.407,2.626-5.69,2.188-2.845,1.751h-8.316l-8.1-.219,2.188,1.97,1.97-.438,7.878.875,3.72,2.845-6.565,1.97,3.72,7-1.532,1.751.875,7.66-2.407.219-.656,3.064,1.313,5.471,2.188,4.6-.219,2.188-3.283,5.252,1.97,6.346-3.283,11.6-4.158,6.784-2.845,8.973-3.939,3.064-5.252-1.97-7.441,1.094-7-.656-6.565.438-1.751.875,1.532,3.064-5.033-.438-3.72,2.407-4.377,4.6v3.283L615.47,557l-3.72,4.377h-2.407l-7-1.094L590.3,562.909l-11.161-2.188,1.094-2.188.438-6.784-1.313-3.72-2.845-2.407-6.784-8.316-2.626-5.033,5.252,1.97,2.188-1.094-3.939-5.69,4.815-.219,1.532-2.188-1.313-3.283-4.158-1.313-4.158-5.252-3.939-2.626-7.66-10.286-2.845-7-2.407.656-2.626-8.1-3.72-1.313-1.313-8.1-3.939-.875-2.845-3.72-.875-7-2.626-1.313-1.751-3.064-1.751-6.565-.657-5.909-1.97-3.939,1.094-2.626,2.407-.438,2.407,1.751,2.188,3.939,4.158-.438,1.532-3.064,1.313-8.535-3.5-9.629,3.283-3.283,1.97-5.252,5.69-1.532,2.845-1.751,4.158-4.377.219-6.128,1.313-4.6-1.094-3.064L549.6,386.3l-.656-3.5,3.939-1.313h5.252l2.845-5.471.876-4.158-7.441-5.909-2.626-.875-8.316-4.6,1.97-14.006v-3.5l-5.471-9.629.219-3.939-1.313-6.128,2.407-2.407-5.909-8.973,4.377-6.128-1.094-3.283,2.626-2.188,7.66-8.316,7.222-3.283,7.222-.875,15.538,1.97,3.72-4.815-.219-2.626L580.018,276l-10.286-3.5,9.629-10.942,7.222-10.942.219-10.286,1.313-5.909-3.064-8.535,8.316-.875,5.252-1.094,7.222-3.283-2.188-5.471,2.845-1.97,6.565-6.346,7.222-6.346,3.283-2.188.438-3.064-2.188-2.845-5.909-5.033L617,184.963l5.909-1.313,2.407-2.407,3.283-7.66,8.1-4.158,3.283-1.97,13.787,3.939,4.6-6.784-1.751-7.878v-1.751l4.6-1.094,8.973,1.97,6.347.219,18.821,3.72,2.188.219,5.471-3.5-6.347-1.97,3.5-1.97,3.064-4.158-.219-4.377-5.69-3.5,11.161-.438,6.347,1.751.875,1.97,6.347,2.407,10.5,5.033,9.192,3.939,18.164,3.72,7.66,3.939,2.626,3.5,3.064.219,4.158,3.283,3.939,1.97-2.407,2.188.875,5.252,1.532,3.064L780.7,186.5l6.128.875,1.313,2.845-2.188,1.751-.219,2.407,1.751,3.5,7.222,5.69,1.313,1.97-1.532,3.064.219,3.939-3.283,2.845v2.845l2.845,5.69,3.939,1.313,4.158,4.815,3.5,5.471Z" transform="translate(769.381 10808.684)" fill="#5c3bfe" stroke="#000" stroke-linecap="round" stroke-linejoin="round" stroke-width="2"/>
    <path id="TR" d="M736.966,601.71l-6.347,1.094-.219-3.283,4.815-1.313Zm425.654-47.052,9.41,2.845,2.407-2.188,7.878.219,7.441,1.751,1.97-4.158,3.064-.875,3.064.656,1.313,2.407,2.626.875,7.659,5.471,2.407,3.72,4.158.438,2.845,2.626,2.845,3.5,3.72,2.626,3.72,7.222-.438,5.033-2.189,3.064,1.751,4.158,4.158,6.565-1.094,1.313,3.939,1.97,6.346,1.97,7.66-.875,3.5,1.532,5.033,3.72,7,6.128,1.75,1.97-7.222-4.158-3.064,3.5-.219,8.316-1.313.875-6.128-.219-2.626.875,2.626,5.471,3.064,2.626v5.034l4.6,5.471.438,4.6,1.97,4.815.656,4.815,1.094,1.532,3.064.656-1.313,8.316-1.313,2.626-.875,4.377,3.72,1.313,7,4.377.219,2.845,1.313,3.283.656,4.377,7,5.033v5.033l-4.6-1.094-8.1,6.784-2.626-2.626-.656-5.252-3.283-3.283-2.845-.438-4.6,3.064-9.191-.656-6.347-2.407-6.346-1.751-4.158,1.313-4.815-1.532-3.283,4.158-4.377,4.158-2.626.656-3.5-5.69-2.845-.438-2.626,2.845-4.815,1.751-10.067,2.188-7,.656-8.972-1.313-7,.438-6.784,3.064-11.38,6.128-8.973,3.064-9.191,1.97-16.632-.438-2.407-.656-7.66-5.033-7.441-1.313-7.441,3.5L1082.3,717.7l-7.66,3.5-10.5-.219-4.158-3.72-8.1-1.532-1.313,3.5-.657,8.316,3.939,6.784-7.222,3.064v5.69l-3.939,2.407-1.75,3.5-4.815-2.626-2.188-.219,1.532-2.845L1030,732.579l1.532-3.283,7.659-8.535-.875-5.252-4.377-3.5-6.346,4.6-3.721,1.751-.657,2.626-2.407,1.751-3.939.875-6.347-2.188-7-3.064-4.158-2.407-3.064-.656-2.845,1.094-7.66,6.128-6.784,8.973-1.751,1.751-7,3.72-4.815,1.313-2.188-.219-9.629,1.751-4.815.219-3.5,1.97-7.659-2.188-4.815-2.845-3.064-2.845-5.033-6.346-3.5-2.845-7.222-2.626-12.693-6.565-11.6-1.532-8.754-.656-1.532,2.407.219,9.192-1.094,2.626-.219,4.815-2.407,2.407-4.6-2.188-4.158,1.97-8.1,2.845-2.626.219-10.067-3.5-6.347-4.6-1.313-4.377-2.845-5.909-3.939.656-5.033-.875-7-3.5-5.252-.219-2.626,4.158-2.188,1.532L807,720.324l1.751-2.845-8.1.438-3.939,2.188-3.283-.219-2.188-2.188,4.377-1.313,8.535-.875,1.97-.875,1.97-2.845,3.72-2.626-2.626-1.094-13.131.656-9.192-.438-2.188,1.532-.876-3.5,7.879-3.064-.657-2.845-9.192-4.815-.656-3.5-4.377-6.784,4.158-1.094.219-5.471-.875-3.283-8.535-2.845-1.751.219L767.6,669.99l-3.72-1.97-2.626,1.532-7.222-3.064-1.313-1.313,1.094-3.064,2.188-2.407-1.97-4.158-.219-2.188,3.939-.219,2.188,2.407.657,4.815,7.878,1.532,6.347-1.313-5.471-2.407-2.407-2.626-2.626-5.033,3.939-2.407,2.626-3.72-5.909-2.626.438-5.252-5.471-5.909.657-1.751,5.033-6.128-2.626-1.532-9.41,1.532-3.5,1.313-6.784.438-.656-3.5,1.313-2.845-1.094-7.441.438-3.939,3.72-1.313,3.72-5.909,6.565-6.784h7.66l2.845-1.97h4.6l1.751,2.626,4.158,1.97,7-.219,3.064-1.97-3.5-3.283,3.72-1.094,3.283.875-.219,3.939,8.973-1.094,9.629.875,3.064-.438h7.441l1.094-1.094L814,588.142l4.377-3.283,14.881-2.626,8.1-1.751-12.474-1.751-3.064-1.313-4.377-3.064-2.188-2.407.657-5.69,1.313-1.532,4.814-.219,16.851,2.626,11.6-1.751,13.349,3.939,12.255-.875,2.407-1.532,2.407-5.69,16.194-9.192,5.252-4.6,6.128-2.626,10.942-3.064,8.754-3.72,2.626-.438,22.76,1.751,15.319.219,6.565-3.5,4.377,1.094-.219,4.6,5.69,5.69,7.66,3.064,9.629-2.626,3.939,1.094,4.815,8.754,3.283,3.064,3.939,1.97,2.845.438,3.283-3.064,3.72-.219,6.346,2.845,2.626,3.064,10.5,2.407,9.41,1.313,4.377,2.626,13.568,2.626,4.815-.438,7.878-2.845,15.319-2.845,11.38,4.158,5.471.219,3.72,1.094,3.72-.656,10.942-5.034,3.064-2.626,3.72-.875,11.38-7.222,1.97-3.064Zm-376.2-15.538-.219,3.939,2.188,4.377,5.033,5.909,4.377,3.064,17.726,7.222,3.064.657-1.97,7.66-4.6,1.094-14.006-3.283-3.5-.219-6.346,3.064-5.033-.875-6.784,1.313-1.313,4.6-4.377,5.252-7.222,4.158-5.471,2.188-7.659,8.1-3.283,4.815-3.283,1.532,1.094-4.377-.657-3.72,5.033-4.377,7.222-3.5,1.532-2.845-11.818.656h-7.222l-2.188-3.939,1.751-.875,5.471-7-1.094-9.629,7.441-5.471-1.97-6.784-5.034-3.283-2.626-.656.657-3.064,4.158-.656,2.188-4.815,7.441-.875,3.283-2.407,7.66-.656,7.441,5.471,3.283-1.313h3.939l1.97-.875,3.72.438Z" transform="translate(1011.826 11278.479)" fill="#ececec" stroke="#000" stroke-linecap="round" stroke-linejoin="round" stroke-width="2"/>
    <path id="UA" d="M946.208,582.839v1.313l-8.535-1.751-1.97-1.969,10.5,2.407Zm-57.775,31.951-4.158-3.939-4.815-1.532-4.815.438-4.815,2.845-3.5,1.094-1.97-.657-1.313,2.626-8.754-1.97-3.939-1.97-3.283-3.5,2.407-1.532,4.377-.438.875-2.189L853.636,601l5.471-6.346v-2.845l5.033-3.72.875-4.377-2.188-3.72-1.094-4.6,5.471-3.5,4.6,2.188,4.158.438,4.6,1.751,3.5-1.313,2.626,2.845,6.347-.875,1.313-1.532-6.347-3.72-.438-6.347-2.188-3.5-4.6-1.751-4.377-2.845-1.97-4.158v-5.252l-6.347-4.377-5.034-2.626-1.313-2.626,1.313-6.784-1.313-5.033-3.064-3.064-3.064,1.532-3.064-2.189-3.064-4.158-12.255-1.313-1.313-2.626-5.471-.656-7.878-5.252-7.66-2.188-3.5,2.188-1.751-.657-2.626,2.189-8.754-.219-1.532-.438L791.7,512.59l-.438,1.313-8.1,1.751-.438,3.064-2.407,4.158L761.94,525.5l-7.441,2.845-2.188,2.626-4.6,1.094-9.41-7.222-2.626-.656-7.878,1.532-15.1-3.064-5.909.219-5.909-3.283H699.35l-1.97,2.626-4.6,1.969-1.532-3.72-1.97-1.532-5.033-.875-1.97-2.407-4.815-1.751L674.4,508.87h-3.283L670.9,503.4l3.5-3.72,1.751-6.347,3.283-6.565,7.222,1.532.875-1.97-4.158-3.064.219-3.939-3.283-8.316,1.313-2.188,7.441-9.629,5.252-5.909,10.5-10.067,6.565-1.094,2.626-3.939-.219-2.845-3.939-5.69,2.626-2.845-3.064-2.188-4.158-6.128-5.909-6.128v-2.845l-2.626-3.939-.219-3.064,2.407-1.094,4.158.656,2.407,1.094,4.158-2.626,3.5-3.5,1.751-3.064,12.912-1.094,5.033-1.094,5.252-.219,17.07.875,14.225,3.283,13.349,1.97h5.033l3.939,4.6,2.188.656,6.565-.219,2.407.875,1.751,3.064,2.626-3.72,4.158,1.094,4.158-1.532,11.161,2.188,1.751,2.845,2.188.656,1.313-2.407,8.316-3.5,5.471,6.565,1.313,1.094L852.1,408.2l15.538-1.313,4.377,2.407,1.094,2.626,5.909,1.97,1.751-3.064-3.939-7.878,2.188-7.222,1.751-2.626,4.815-5.033,2.407-1.094,3.72.875,3.064-1.751,10.942.219,5.69,1.751,3.72-.219,3.939-1.97,1.094-5.252,3.5-1.313,8.1,1.97,2.188-.219,5.909-2.626,3.5-.438,4.377.656,7.441-.438,5.471,3.064,3.064,3.064,3.72,5.909,8.754,6.565-.219,2.188-6.347,1.094,2.845,4.158,1.094,4.377,2.626,3.72-.875,2.188,6.784.219,6.347,2.188,8.973-1.094,3.283,4.815,4.158.438.438,1.97,3.064,6.128,1.97,2.407-.438,3.939,1.094,2.188,4.158,3.5,1.532,2.188,2.407.875,5.033-3.064,6.128.875,5.909,4.377h5.033l3.72,2.407,3.064-2.845,9.41-1.97,5.033-2.188,2.188.219,5.033,3.939,1.094,2.626,3.283,3.5,10.286,6.346,2.845-1.313,1.969-3.283L1094.8,457l5.252.438,7.879,4.158,3.064.219,3.5-1.313,4.377,3.939,4.158.438,9.629,5.033,6.347-.656,2.188,1.751-.219,3.72,2.188,1.97-.219,5.69-3.72,4.6-5.033,1.751,2.407,3.283,6.784,1.97-1.969,1.97-3.064-.438-1.751,2.188-.657,5.033,5.471,1.532,2.626,6.128v2.407l2.626.656-2.845,10.286-.219,3.939-9.192.438-13.131-.656-1.969.438-1.97,4.158-5.033,3.064-3.72.438-1.751,1.751v5.034l-.875,2.845,2.407,1.532-1.532,3.5,1.094,2.845-1.094.219-9.41-.438-7.441.656-4.6,5.252h-3.283l-7,3.283-3.064,3.72-3.064-1.751-6.784,1.094-3.72,2.407-6.784-.219-5.033,1.313-10.067,8.316-2.845.219-2.188-2.188-3.5,5.69-5.252,2.626,1.313,6.784,6.128,9.848,7.878,8.535,3.72,3.064,5.252,1.532,6.784-3.064,5.252.875,3.72-2.626,3.283-.219,8.1,2.188-2.407,5.471-.657,5.69-4.158,1.313-4.815-.219-4.815.875-5.909-3.283H1046l-2.407,4.158-5.033,2.845-1.313,3.064-5.69-.656-4.6.438-6.128,3.064-4.158,6.128-5.033,3.939-4.158,1.094-4.377-.219-2.845-1.313-6.347-3.939,1.532-4.377,1.094-7.66-2.626-6.347-5.033-3.064-3.5.438-1.97-.656-8.1-5.252-4.158-.438L967,612.383l-3.283-2.626,7.66-6.346,7.659-5.252,3.72-.438,4.6-2.626,4.815-3.5-2.845-5.033-4.158,1.313-4.815-2.407-1.97-1.751-6.784,1.751-3.939-.219L959.338,587l-4.158-1.751-8.754-4.377-5.69-.656v-2.189l3.939-.656.219-2.188-8.316-1.313-.219-2.845,4.377,1.094,7,.438,6.347,1.094,4.6-3.939-5.252,1.094-6.347-1.094-4.6-3.939-4.815,2.626-7-1.094-5.252,1.751-5.033-.438-8.973,2.407-.875,6.346-4.377,8.754-6.784,8.1-10.067,4.6-3.72-.875-1.97,2.407.438,2.845,2.188,1.97,2.407,6.784-.219,2.845Z" transform="translate(941.112 11091.416)" fill="#5c3bfe" stroke="#000" stroke-linecap="round" stroke-linejoin="round" stroke-width="2"/>
    <path id="XK" d="M697.769,551.459l-4.6.875-3.283,4.158-3.5-2.626-2.188.219-7.441,3.283-.438,5.69-1.094,1.751-3.72-.656-.219-4.815-3.064-7-4.158-2.845L661,548.395l-4.377-6.346-1.094-.875.438-2.845L654,535.045l4.377-.875.438-1.532,3.5-.875,3.283-1.094V527.6l3.72-2.845.875-2.189-1.313-3.5,3.72-1.97,2.407,2.845,6.128,2.845,5.033,4.6.438,1.532,4.815,2.626v2.845l10.286,2.626-.438,2.626-2.626,7-2.188,1.97,1.313,2.845Z" transform="translate(921.028 11256.729)" fill="#ececec" stroke="#000" stroke-linecap="round" stroke-linejoin="round" stroke-width="2"/>
    <path id="NL" d="M464.56,429.1l-1.313,2.626-7,3.283-8.535-2.407-2.626,1.313-2.626-1.532-.656-2.845,6.128-.875,7.659,1.532,3.283-1.313,2.626,1.094,3.064-.875Zm-7.441-11.6,3.283,3.064-3.283.656-3.5-2.188,3.5-1.532Zm39.611-18.6-6.565-.875L488.2,396.5l5.252-3.72,7-3.283,3.72.875,1.094,1.97-2.407,2.407L496.73,398.9ZM480.1,373.737l-2.407,2.407-1.313-3.064,3.72-3.064v3.72ZM464.56,429.1l-5.69-1.751-4.815,1.094-6.128-1.532-3.72-2.845,2.626-1.532,5.034-.219,8.754,1.532,2.626-1.97-1.313-2.188-5.033-4.6,3.5-5.909L463.466,407l7-8.316,1.97-4.377,2.626-12.036,2.189-4.377,3.064,1.094,4.377-1.751,7.441-4.377,2.188-3.72,2.189-1.97,8.754-3.5,4.6-.875,19.477-1.094,3.939,3.72,5.909,1.313.219,9.41-1.532,3.72-2.407,8.316-6.784-.219-1.313,3.5,1.532,2.188,5.69.656,1.751,2.188-1.313,5.69-5.69,3.5-.656,1.97,2.188,1.97-1.532,2.189-9.848,2.845-5.034-1.751-3.939,1.532-1.532,2.407,6.784,8.973v2.626l-2.845,6.128,1.532,2.626-4.815,3.5-1.094,1.751,4.158,2.626-1.313,5.252-2.626-.219-5.252-.657-1.532-2.407,2.407-2.845,2.189-6.346-5.69-2.407-3.72-2.845-4.158.875-5.69-3.064-1.094-3.5-5.471,1.751-2.407-2.845-3.283,2.188-3.283-1.751-3.064,1.532.438,1.97-4.6-.656Zm39.611-34.14,1.97-1.97-1.094-4.158-4.6-.656-1.094-1.751.875-5.471-6.128-.875-.875-5.471-3.283.656-5.033,3.283,1.313,2.845,3.5,3.5v1.97l-4.6,1.532.219,5.69-.438,3.5,11.818,3.064Z" transform="translate(668.838 11072.044)" fill="#ececec" stroke="#000" stroke-linecap="round" stroke-linejoin="round" stroke-width="2"/>
    <path id="ES" d="M580.366,674.309l-.875,2.188-4.377-.875V672.34l2.626-3.5,5.909-1.532,1.751,2.845-5.033,4.158Zm47.49-29.763,2.626,1.094,2.845-1.094,3.064.875.438,2.188-4.815,7.66-1.313,3.064-4.6,2.845-8.754-3.72-.656-3.5-3.064-1.532-3.72,2.845-3.064-2.188-.656-2.626,11.6-8.1,3.283-1.97,7-1.97,1.094,2.626Zm32.17-1.751-.656.438-8.535-4.158-3.5-.875.219-3.064,5.69-.438,4.6,1.532,2.626,3.939-.438,2.626ZM490.639,521.337l1.094,2.845,9.41,2.845-.656,7,3.939-.875,9.629,3.72,4.815.438,4.815,4.6,7.878-.875,7,4.6,6.784-.875,1.532.875h10.286l1.751-5.252,8.754,2.407,5.471,2.188,3.72.656,2.407,3.283v4.6l1.532.875,6.128-2.407,6.128,2.626,2.845,2.626,4.6-2.407,10.286,2.626,2.626-1.751,8.316-2.407,6.784,1.313,2.626,4.815L627.2,560.51l-.438,3.064,2.626,2.845.219,4.6-6.565,6.128L604,587.428l-6.346,5.909-14.444,3.283-9.848,3.283L568.548,601l-8.973,8.316,2.407.656,2.626,2.626-.875,1.313-5.471,2.407h-1.97l-6.346,10.067-5.69,7.222-3.283,3.283-3.283,4.6-7,12.255-.219,3.5,3.5,12.036,4.815,5.909,5.252,2.407,1.313,2.188-1.751,2.188-5.252,3.72-9.41,5.033L525,694.881l-.656,3.939L521.5,700.57l-1.094,5.471-3.939,9.629,2.845,2.626-2.845,1.751-14.225.656-8.973,6.128-4.377,5.252-4.158,9.848-4.815,5.69-2.188,1.094-3.283-2.626-4.158-.219-4.158.656-2.188,2.189-3.283,1.094-3.283-1.094-10.067-.438-5.033,1.751-4.158-1.094-7-.656-15.319,1.313-8.754,7.441H399.6l-6.784,2.626-4.6,6.565-1.094,3.5-2.188-.656-.657,2.626-4.6,1.751-5.252-2.188-4.377-3.283-2.188-.219-3.5-4.815-2.626-6.784V753.75l-3.283-1.313-.656-3.064.438-3.5-2.626-4.377-10.942-8.1-8.1-.656-6.565,1.094L327.6,719.829l1.751-4.815,7.66-9.41,4.6-1.313,1.532-5.252-3.72.438-6.565-9.41,1.97-8.754,7-6.565,1.313-5.252-1.094-1.751-3.72-.875-3.5-7-.656-4.158-3.064-2.626-2.407-4.158,2.407-.656h9.41l2.188-1.094,3.72-7.66v-4.158l-3.064-2.845.438-2.188,5.909-4.6-.875-2.407L349.7,615l-.875-7.66-1.751-4.377,4.377-3.5,2.407-3.5,3.5-3.064,4.6-2.407,5.471-5.471-.656-2.407-4.158-1.97-4.158-.438-.219-6.784-1.532-2.407-11.38-.219-3.283-1.094-1.751,3.064-5.471,1.97h-3.064l-4.815-1.751-6.346.219-6.565,2.407-1.97-2.845,2.845-4.158-2.188-3.939-8.973,2.189-4.158,1.97-2.626,2.407-2.845-.219v-5.471l5.69-5.69-3.5-.438,2.626-4.158-2.188-2.188.219-5.69-5.033,1.97-1.094-2.626,3.064-4.815-3.064-.438L285.8,536l1.751-6.784,4.377-2.189,4.158-3.283,5.69.657,3.72-.657,7.878-3.5-.875-3.283.875-1.532,7-3.72,4.377-.438,4.158-1.97,2.845,1.094,2.407-.219,2.845,1.313,3.72,3.5L346.2,516.3l4.377-1.094,7.878-.219,3.72.438,7-.656,3.939.219,6.346-1.751,5.033,2.188,9.629.875,5.69,1.751,15.757,3.064h5.909l8.1-1.751,3.5-1.094,3.283.656,4.6-1.313L446,519.8l10.286,2.845,4.6-2.845,7.441,1.313,7.222,2.845,3.939.219,5.69-.656,5.471-2.188Z" transform="translate(483.439 11247.459)" fill="#ececec" stroke="#000" stroke-linecap="round" stroke-linejoin="round" stroke-width="2"/>
    <path id="FR" d="M731.794,675.271l-.656,5.033,2.188,3.72,1.313,14.225-3.939,7,.219,6.565-3.5,9.41-1.751,2.407-8.316-4.377-2.626-2.407,2.189-3.939-4.815-1.97.875-3.72-.438-1.97-3.5-1.094,2.189-2.845v-1.751l-3.283-2.188-.656-1.97L710.128,693l-1.313-1.97.219-2.845,1.97-4.158,2.626-1.97,6.128-1.751,2.626-2.407,4.158,1.313,1.313-2.626-.438-5.909.657-2.407,2.845,1.094.875,5.909ZM438.76,570.444l-.875,3.064-4.158-5.252,2.188-1.094ZM623.466,448.766l4.6,2.626h3.064l4.377-1.313,2.845,1.532,3.064.219,7.66,9.41,3.939-1.532,3.064.875.656,1.97,4.6.219,6.565-1.313,4.377,3.064,10.5,1.751,3.5,1.313.219,2.845-7.66,8.316-3.064,12.037-2.188,3.939-.656,3.283.438,5.252-1.313,4.377v3.283l2.407,2.845-3.283,1.532-1.751,3.064-5.909.656-1.751-1.751h-2.407l-3.939,3.064,2.845,2.407-1.313,1.97-8.316,8.754-4.6,1.969-1.094,6.347-6.565,4.815-2.407,6.347,1.751,1.532-.656,3.283-3.283,2.188v2.188l3.064.219,5.033-3.5L638.785,556l5.034-3.283,4.158-.219,4.815.656,1.751,4.815-1.094,3.72,5.034,5.033,1.97,3.064-5.69,3.72.219,3.5,1.97,1.313,3.72,5.69,3.939,3.5-1.751,5.471-2.626.656-3.72,2.845-4.158-.438-1.751.875,3.283,6.784,7,3.064,1.094,3.72-1.751,1.532-3.064,5.471,1.532,2.845.219,3.064,1.969,1.97,11.161,5.252,7.222-1.313.657,4.377-4.6,5.69.438,3.283-1.313.656-1.751.656-5.252,2.407-8.535,7.441-3.939,2.188-1.532,3.939-4.377,3.064-5.252,1.094-5.033,2.188-2.407-.875H630.25l-3.72-2.626-7.441-1.751-2.407-3.939-5.471-.219-1.751-3.283-4.158.656-3.283,1.532-4.377-.219-12.912-3.939-3.064-3.064-3.72,1.094-3.5,3.5-14.225,8.973-5.69,9.41-.219,2.626,1.532,8.535,3.5,5.471-6.784-1.313-8.316,2.407-2.626,1.751L531.332,688.4l-4.6,2.407-2.845-2.626-6.128-2.626v-3.283l-5.69-1.313-1.97,1.532L507.7,679.21l-3.72-.656-5.471-2.188-8.754-2.407L488,679.21H477.715l-1.532-.875-6.784.875-7-4.6-7.878.875-4.815-4.6-4.815-.438-9.629-3.72-3.939.875.656-7-9.41-2.845-1.094-2.845,4.377-1.094,4.158-4.158,3.72-15.538,2.845-18.164,2.188-3.5,2.626-.875-2.188-2.626-2.407,3.283,1.532-16.632,1.094-6.128,1.97-6.565,6.784,5.252,1.751,2.188,1.97,7.441,1.313.219L450.8,587.952l-3.939-5.033-7.878-5.034-1.094-2.845,3.939-1.313-1.094-3.939-1.094-12.912-6.565-1.313-10.5-5.69-3.72-5.69-3.5-4.158-.875-3.72,1.97-3.939-1.751-2.407-3.064-1.751,2.407-3.5-6.565-.438-3.939-1.094-.656-2.407,2.845-3.064-3.5-1.751-5.69.438-.438-3.72-4.815.656-2.626-.656-2.407-2.407-2.845.438-4.815-.875-1.751-1.532-10.5-2.845-4.377-.219-4.158,1.313-2.407-.656-2.845-4.815-6.784-2.407,1.313-1.532,6.784-1.313,1.313-1.532-4.815-1.969-.438-2.626,3.5.656.219-2.626-8.754.219L344,485.095l1.094-3.064,5.033-2.626,12.693-3.064,5.471.438,3.72-.438,6.565-3.5,6.346-.875,5.909,1.751,5.471,6.128,2.626,2.188,6.784-3.72,9.629.219,1.97,1.97,2.626-3.72,2.188,2.188,10.286-.438-3.283-5.471-.438-13.131-2.845-3.72-4.6-9.41.438-3.064,7,.657,5.909-1.313,2.845.875.656,6.128,2.407,3.5h4.815l5.033,1.094,6.565.219,9.41,1.751,3.939-1.094,7.66-4.377-3.939-1.532-.438-1.532,1.97-4.815,11.38-5.471,8.1-1.532,8.316-2.845,4.377-3.064,2.626-3.939,1.094-2.845.656-14.881,2.188-4.815,6.346-3.5,14.006-2.407,1.97-1.094,1.97,4.815v2.626l6.346,5.252,7-2.188,3.5,3.939,1.094,4.377,9.192,2.407L567,422.5l1.97-.656,7.879.875,3.5,2.407-.875,3.5,1.532,1.532-1.532,3.064,1.094,1.313,5.033.657,4.815-.657,2.845-1.313,1.094-3.064,4.158-1.313-1.751,5.909,1.313,1.313.875,4.377,3.72.219,7.222,3.283,6.128,5.69,7.441-.875Z" transform="translate(552.607 11113.877)" fill="#ececec" stroke="#000" stroke-linecap="round" stroke-linejoin="round" stroke-width="2"/>
    <path id="PT-2" data-name="PT" d="M336.781,703.767l-2.626.438-9.848,5.471h-2.845l-5.471-2.407-9.848-.875-3.283-.656-3.939,1.532h-3.283l-2.407,2.188-1.751-.656,2.188-4.6,3.5-8.973v-5.69l.875-4.815-.656-4.6-1.532-3.064,2.407-7.66V665.47l-1.97-5.033,6.128.656-3.72-3.064h-3.283L290.386,660l-3.283.219.219-3.064-1.094-3.939L290.6,651.9l3.5-3.72-.656-3.5-2.626,2.407-1.313,3.064-6.128,1.532-3.283-1.094V646.43l1.313-3.72.875-5.033,1.751-4.815L283.6,629.8l3.5-2.845,3.064-4.158,9.41-19.477-1.313-2.188,3.72-14.444,2.626-5.033,1.313-9.41-.438-4.377-1.532-4.377-1.532-9.41v-3.064l-1.97-3.939.219-2.188,3.064-3.72,2.626-2.407,4.158-1.97,8.973-2.188,2.188,3.939-2.845,4.158,1.97,2.845,6.565-2.407,6.347-.219,4.815,1.751H341.6l5.471-1.97,1.751-3.064,3.283,1.094,11.38.219,1.532,2.407.219,6.784,4.158.438,4.158,1.97.656,2.407-5.471,5.471-4.6,2.407-3.5,3.064-2.407,3.5-4.377,3.5,1.751,4.377.875,7.66-.875,8.316.875,2.407-5.909,4.6-.438,2.188,3.064,2.845v4.158l-3.72,7.66-2.189,1.094h-9.41l-2.407.656,2.407,4.158,3.064,2.626.656,4.158,3.5,7,3.721.875,1.094,1.751-1.313,5.252-7,6.565L339.626,660l6.565,9.41,3.72-.438-1.532,5.252-4.6,1.313-7.659,9.41-1.751,4.815,2.407,14.006Z" transform="translate(476.665 11277.528)" fill="#ececec" stroke="#000" stroke-linecap="round" stroke-linejoin="round" stroke-width="2"/>
    <path id="CY" d="M866.731,650.1h-.438l.219-.219Zm0,0h.438l.219.219h-.656Zm-.875-.656h-.219v-.219h.219v-.219l.219.219v.219Zm7.66-1.751.438.219.656.656.438.876.219.656.438.438.438.219h-1.094l-.656-.219-.438-.438h-.438l-1.532.219-1.313.219-.219.219-.219.219H868.92l-.219-.219.438-.219h.219l-.219-.656H868.7l-.438-.219v-.875l-.219-.219-.656-.219v-.438l.219-.219.438-.219.219.219.219.219.438-.219.219-.219.219-.219.219-.219.438.438.438.219h.219l.438.219h.219l.656-.219h.438l.219.219h.875V647.7Zm-8.754,2.407v.438l-.656.219-.656.656v.438l-.219.656V654.7h-.219l-.219.219v.656l-.219.219H861.26l-.438.219-.219.219-.219.438-.219.219-.438.219-.875.219-.875.438-.656.219-.438-.656.219,1.094-.875.438-1.97.438-.438.219-.219.219-.438.219h-.438l-1.97-.219-2.188.219-.219.219-.438.219-1.313,1.094-.219.656h-.656l-.656.219v.219l-.219-.219-.219-.438.219-.438.219.219h.656l-.219-.875-.875-.219-.438.438-.219.219-.438-.219v.219l-.875-.219-.656-.438-.219-.219v-.438h-.875l-.219.219v.219h-.438l-.219.438h-.875l-.219.219.219.438-.438.219h-1.094l-1.313-.219-1.094-.438-1.532-.875-.656-.219-.656-.219h-1.094l-.656-.219-.438-.438-1.313-.875-.219-.219-.219-.875v-.219l-.219-.219-.875-1.97-.219-.219-.656-.438-.438-.219-.219-.219-.219-.438v-.438l.219-.438-.656-.875-.219-.438V650.1l-.219-.438-.656-1.094-.438-.656-.219-.875.219-.656h.219l.656.219.875,1.094.656.219.438.219h1.313l.875-.438.657-.876.656-.875.219-1.094.219-.656.438-.219.219-.219v-.219h.219l.219.219h.656l.219.219.438.438h.657l.438-.438.219-.438V643.1l.875.219.438.875.219.438.219.438.438.219.876.219.656.219.438.438.438.219.219.438v.438l.219.219.219.219h.219l.875-.219.219-.438.219-.438.219-.219.219.219.219.219.438.219h.438l.438-.219.438-.438.438-.438.438-.219.656-.438.219-.438h.438l.656.219h1.532l.219-.219h.219l.219-.438.656-.438h.438l.438.219.219.219h.656l.438.438.438.438.438.219.656.219h.219l.219-.219v-.219l.219-.438.657-.657h1.969v.438l.219.438.219.219.438.438.438.438v.219l.219.656v1.97l-.219.656.219.438.219.219h.875v-1.532l.219-.219.219-.219.219-.219.219.219.219.875.219.438.219.219.656-.219v-.438l.219-.219h.438l.219.219h.438l.219-.219.219.219h.219l.657.438h.656l.656.438Z" transform="translate(1122.352 11406.474)" fill="#ececec" stroke="#000" stroke-linecap="round" stroke-linejoin="round" stroke-width="2"/>
    <circle id="_0" data-name="0" transform="translate(1018.942 11497.427)" stroke-width="2" stroke="#000" stroke-linecap="round" stroke-linejoin="round" fill="#ececec"/>
    <circle id="_1" data-name="1" transform="translate(1403.015 11543.823)" stroke-width="2" stroke="#000" stroke-linecap="round" stroke-linejoin="round" fill="#ececec"/>
    <circle id="_2" data-name="2" transform="translate(1283.963 11225.622)" stroke-width="2" stroke="#000" stroke-linecap="round" stroke-linejoin="round" fill="#ececec"/>
  </g>
</svg>
