<svg id="fb-ads" xmlns="http://www.w3.org/2000/svg" width="282.521" height="44.148" viewBox="0 0 282.521 44.148">
  <path id="Контур_202" data-name="Контур 202" d="M135.484,80.693c-1.867,0-2.465.822-2.465,2.689v3.063h5l-.522,4.93h-4.558V106.39h-5.976V91.375h-4.034v-4.93h4.034V83.457c0-5,2.018-7.62,7.62-7.62a24.487,24.487,0,0,1,3.511.224v4.631" transform="translate(-65.638 -67.247)" fill="#4468b0"/>
  <path id="Контур_203" data-name="Контур 203" d="M133.493,92.527c0-5.6,2.614-9.786,8.142-9.786a5.99,5.99,0,0,1,5.751,3.511V83.189h5.753v19.945h-5.753v-2.988c-.821,1.942-2.689,3.436-5.751,3.436-5.529,0-8.142-4.183-8.142-9.786Zm6.05,1.345c0,2.988,1.121,4.93,3.885,4.93,2.465,0,3.735-1.793,3.735-4.631V92.154c0-2.839-1.27-4.631-3.735-4.631-2.839,0-3.885,1.942-3.885,4.93Z" transform="translate(-60.658 -63.991)" fill="#4468b0"/>
  <path id="Контур_204" data-name="Контур 204" d="M158.675,82.792a11.078,11.078,0,0,1,5.751,1.345l-1.344,4.258a9.486,9.486,0,0,0-4.034-.9c-3.288,0-4.706,1.867-4.706,5.08v1.2c0,3.212,1.419,5.08,4.706,5.08a10.067,10.067,0,0,0,4.034-.9l1.344,4.258a11.08,11.08,0,0,1-5.751,1.345c-7.1,0-10.309-3.81-10.309-9.935v-.9C148.44,86.6,151.652,82.792,158.675,82.792Z" transform="translate(-53.644 -63.967)" fill="#4468b0"/>
  <path id="Контур_205" data-name="Контур 205" d="M159.837,93.946V92.154c0-5.677,3.213-9.412,9.786-9.412,6.2,0,8.89,3.735,8.89,9.263v3.212H165.888c.15,2.689,1.345,3.959,4.706,3.959a17.572,17.572,0,0,0,6.425-1.2l1.12,4.109a19.632,19.632,0,0,1-7.769,1.494C162.751,103.583,159.837,99.773,159.837,93.946Zm6.051-2.614h7.321v-.523c0-2.166-.9-3.884-3.511-3.884C166.935,86.925,165.888,88.643,165.888,91.332Z" transform="translate(-48.234 -63.991)" fill="#4468b0"/>
  <path id="Контур_206" data-name="Контур 206" d="M194.124,97.029c0,5.6-2.689,9.786-8.216,9.786a6.279,6.279,0,0,1-5.976-3.436v2.988h-5.677V76.411l6.051-.523v13.3a6.028,6.028,0,0,1,5.6-3.212c5.527,0,8.216,4.183,8.216,9.786Zm-5.975-1.419c0-2.839-1.121-4.93-3.96-4.93-2.465,0-3.81,1.793-3.81,4.632V97.4c0,2.839,1.345,4.631,3.81,4.631,2.914,0,3.96-2.092,3.96-4.93Z" transform="translate(-41.435 -67.223)" fill="#4468b0"/>
  <path id="Контур_207" data-name="Контур 207" d="M189.127,93.624v-.971c0-5.752,3.286-9.861,9.935-9.861S209,86.975,209,92.653v.971c0,5.752-3.286,9.861-9.935,9.861C192.413,103.559,189.127,99.376,189.127,93.624Zm13.82-1.419c0-2.614-1.121-4.706-3.885-4.706-2.839,0-3.884,2.092-3.884,4.706v1.868c0,2.614,1.12,4.706,3.884,4.706,2.839,0,3.885-2.092,3.885-4.706Z" transform="translate(-34.42 -63.967)" fill="#4468b0"/>
  <path id="Контур_208" data-name="Контур 208" d="M204,93.624v-.971c0-5.752,3.288-9.861,9.935-9.861s9.936,4.183,9.936,9.861v.971c0,5.752-3.288,9.861-9.936,9.861C207.213,103.559,204,99.376,204,93.624ZM217.82,92.2c0-2.614-1.121-4.706-3.885-4.706-2.839,0-3.884,2.092-3.884,4.706v1.868c0,2.614,1.12,4.706,3.884,4.706,2.839,0,3.885-2.092,3.885-4.706Z" transform="translate(-27.406 -63.967)" fill="#4468b0"/>
  <path id="Контур_209" data-name="Контур 209" d="M225,95.908l5.976-9.487H237.4l-6.275,9.861,6.5,10.085H231.2L225,96.58v9.786h-5.976V76.411L225,75.888" transform="translate(-20.32 -67.223)" fill="#4468b0"/>
  <path id="Контур_210" data-name="Контур 210" d="M244.626,97.289l-2.465,6.873h-3.288l8.89-23.755h3.66l8.591,23.755H256.5l-2.316-6.873Zm8.366-2.839L249.48,83.992h-.075L245.6,94.45Z" transform="translate(-10.96 -65.092)" fill="#4468b0"/>
  <path id="Контур_211" data-name="Контур 211" d="M269.186,104.212h-2.764v-2.39h-.075a5.214,5.214,0,0,1-4.93,2.839c-5.9,0-7.62-5.528-7.62-9.636,0-4.856,2.615-8.591,7.171-8.591a5.844,5.844,0,0,1,5.155,2.913l.074-.224V80.457h2.914v23.755Zm-7.7-2.017c1.867,0,4.706-1.2,4.706-5.827,0-2.839-.447-7.321-4.631-7.321-4.483,0-4.706,4.258-4.706,6.5C256.859,99.282,258.353,102.2,261.491,102.2Z" transform="translate(-3.921 -65.068)" fill="#4468b0"/>
  <path id="Контур_212" data-name="Контур 212" d="M277.214,89.9c0-1.12-.447-2.913-4.109-2.913-.9,0-3.436.3-3.436,2.465,0,1.419.9,1.718,3.138,2.316l2.914.747c3.586.9,4.856,2.241,4.856,4.557,0,3.586-2.914,5.752-6.872,5.752-6.874,0-7.321-3.959-7.471-6.051h2.839c.075,1.345.524,3.511,4.633,3.511,2.091,0,3.959-.822,3.959-2.764,0-1.419-.971-1.868-3.436-2.465l-3.361-.822c-2.391-.6-4.035-1.793-4.035-4.183,0-3.81,3.137-5.528,6.574-5.528,6.2,0,6.649,4.557,6.649,5.453h-2.839Z" transform="translate(1.944 -63.153)" fill="#4468b0"/>
  <path id="Контур_213" data-name="Контур 213" d="M125.608,113.924a2.439,2.439,0,0,0,2.465-2.465V72.465A2.438,2.438,0,0,0,125.608,70H86.465A2.439,2.439,0,0,0,84,72.465v39.069A2.439,2.439,0,0,0,86.465,114Z" transform="translate(-84 -70)" fill="#4468b0"/>
  <path id="Контур_214" data-name="Контур 214" d="M108.682,112.042V94.786h5.677l.9-6.648h-6.574V83.879c0-1.867.522-3.212,3.286-3.212h3.511V74.691c-.6-.075-2.689-.224-5.154-.224-5.08,0-8.517,3.063-8.517,8.74v4.856H96.132v6.648h5.677v17.256Z" transform="translate(-78.278 -67.893)" fill="#fff"/>
</svg>
