<svg id="google-tag-manager-logo" xmlns="http://www.w3.org/2000/svg" width="358.566" height="59.836" viewBox="0 0 358.566 59.836">
  <path id="Path_391" data-name="Path 391" d="M780.189,64.153q-1.889,4.731-3.774,9.462-1.608,4.051-3.219,8.1h-2.309q-3.465-8.726-6.925-17.415c-.059-.081-.1-.178-.2-.234-.175,0-.178.112-.128.246.137,5.781.037,11.562.072,17.39h-2.64V59.366h3.871l7,17.994.2.019,6.99-18.019h3.927V81.686h-2.711V67.117a15.6,15.6,0,0,0,.025-2.979c0-.1,0,.044-.053-.041C780.289,64.063,780.221,64.1,780.189,64.153Z" transform="translate(-523.887 -40.861)" fill="#757575"/>
  <path id="Path_392" data-name="Path 392" d="M235.576,61.055l-2.054,1.8c-.623-.371-1.181-1.056-1.954-1.5a8.853,8.853,0,0,0-12.83,5.74,9.136,9.136,0,0,0,3.871,9.923,8.876,8.876,0,0,0,10.736-.9,7.835,7.835,0,0,0,2.2-4.986h-8.156a10.136,10.136,0,0,1-.072-2.518h10.855c.374,3.487-.234,6.65-2.786,9.243-2.839,2.883-6.361,3.609-10.181,2.954a11.3,11.3,0,0,1-9.275-9.038,11.789,11.789,0,0,1,5.3-12.509c4.238-2.646,10.727-2.057,14,1.349C235.343,60.756,235.424,60.877,235.576,61.055Z" transform="translate(-148.475 -39.661)" fill="#757575"/>
  <path id="Path_393" data-name="Path 393" d="M900.071,94.693H897.5V78.775h2.468c.28.639.016,1.3.187,2,.508-.433.894-.935,1.409-1.321a6.46,6.46,0,0,1,7.925.256,5.974,5.974,0,0,1,1.711,4.531c.031,3.375.019,6.75.019,10.125a1.727,1.727,0,0,1-.072.33h-2.54a1.419,1.419,0,0,1-.137-.935c-.025-3.116,0-6.233-.078-9.349-.05-1.951-.935-3.095-2.493-3.506a4.154,4.154,0,0,0-4.622,1.611,6.414,6.414,0,0,0-1.106,3.818c-.022,2.493,0,4.986,0,7.479A1.785,1.785,0,0,1,900.071,94.693Z" transform="translate(-617.799 -53.843)" fill="#757575"/>
  <path id="Path_394" data-name="Path 394" d="M582.75,81.782h-2.767V62.043H573.75V59.45h15.115v2.555H582.75Z" transform="translate(-394.944 -40.923)" fill="#757575"/>
  <path id="Path_395" data-name="Path 395" d="M1130.336,78.686v2.749c-.489.156-.842-.15-1.228-.24-2.8-.658-4.715,1.642-5.086,3.634a22.133,22.133,0,0,0-.146,3.883V94.7h-2.7V78.817h2.493a19.574,19.574,0,0,1,.146,2.06C1126.145,78.421,1128.311,77.7,1130.336,78.686Z" transform="translate(-771.77 -53.87)" fill="#757575"/>
  <path id="Path_396" data-name="Path 396" d="M480.057,81.744H477.48V59.39h2.577Z" transform="translate(-328.676 -40.881)" fill="#757575"/>
  <path id="Path_397" data-name="Path 397" d="M689.127,79.541c0-.249.078-.524-.131-.735a7.289,7.289,0,0,0-2.521.056v2a4.977,4.977,0,0,1-.383-.349c-2.359-2.964-7.289-3.039-10.079-.312a9.575,9.575,0,0,0-1.5,10.908c2.627,4.986,9.066,4.986,11.64,1.617a.19.19,0,0,1,.312-.059,12.836,12.836,0,0,1-.044,2.041c-.284,4.457-4.269,5.367-6.978,4.363a4.872,4.872,0,0,1-2.718-2.724l-2.474,1.035a4.31,4.31,0,0,0,.972,1.9,7.342,7.342,0,0,0,6.046,2.655,7.558,7.558,0,0,0,6.233-2.6,8.149,8.149,0,0,0,1.621-5.323C689.165,89.2,689.134,84.369,689.127,79.541Zm-3.135,9.689a4.955,4.955,0,0,1-4.494,3.282,4.818,4.818,0,0,1-4.715-3.048,6.915,6.915,0,0,1,.137-5.946,4.923,4.923,0,0,1,9.106.608,7.19,7.19,0,0,1,.427,2.671,7.463,7.463,0,0,1-.461,2.434Z" transform="translate(-463.578 -53.846)" fill="#757575"/>
  <path id="Path_398" data-name="Path 398" d="M430.38,79.506c0-.224.062-.467-.128-.683H427.7v2.129a7.054,7.054,0,0,0-11.076.031,9.3,9.3,0,0,0-1.2,9.3,7.141,7.141,0,0,0,8.193,4.675,6.426,6.426,0,0,0,4.051-2.446c.368,3.413-.6,5.659-2.8,6.545a5.756,5.756,0,0,1-3.428.274,4.769,4.769,0,0,1-3.428-2.951l-2.45,1.038a3.042,3.042,0,0,0,.542,1.312,7.184,7.184,0,0,0,6.364,3.244,7.594,7.594,0,0,0,6.32-2.584,7.825,7.825,0,0,0,1.6-5.167C430.38,89.323,430.38,84.427,430.38,79.506Zm-3.263,10.066a4.817,4.817,0,0,1-4.915,2.964,5.024,5.024,0,0,1-4.456-3.858,6.966,6.966,0,0,1-.221-1.87,5.765,5.765,0,0,1,2.06-4.961,4.837,4.837,0,0,1,7.392,1.645,6.784,6.784,0,0,1,.125,6.08Z" transform="translate(-285.466 -53.886)" fill="#757575"/>
  <path id="Path_399" data-name="Path 399" d="M1018.337,78.792H1015.8v2.032c-.156-.1-.209-.118-.234-.156-2.434-3.3-8.05-3.3-10.814.178a9.872,9.872,0,0,0-.919,10.219c2.658,5.036,9.237,5.049,11.805,1.49l.122.028c.312,4.123-1.078,5.8-3.02,6.5-2.686.979-4.615.2-6.763-2.711l-2.356.988a2.466,2.466,0,0,0,.5,1.3,7.059,7.059,0,0,0,5.959,3.25c2.612.1,4.952-.449,6.719-2.537a7.924,7.924,0,0,0,1.63-5.314c.031-4.83,0-9.661,0-14.491A1.293,1.293,0,0,0,1018.337,78.792Zm-2.552,7.85c-.05,2.325-.8,4.294-3,5.388a5.042,5.042,0,0,1-7.146-4.285,7.432,7.432,0,0,1,.486-3.967,4.967,4.967,0,0,1,9.477,1.088A6.286,6.286,0,0,1,1015.784,86.642Z" transform="translate(-690.296 -53.839)" fill="#757575"/>
  <path id="Path_400" data-name="Path 400" d="M1077.383,87.114a5.633,5.633,0,0,0,.094-.726,11.1,11.1,0,0,0-.056-1.247c-.312-2.933-1.558-5.3-4.407-6.457a7.368,7.368,0,0,0-7.981,1.088c-2.4,2-3.089,4.675-2.9,7.691.352,5.61,5.445,9.038,11.079,7.031a6.955,6.955,0,0,0,3.939-3.705l-2.275-1.091c-2.384,2.8-4.491,3.5-6.972,2.344-1.823-.845-3.247-3.194-2.936-4.93Zm-7.427-6.545a4.45,4.45,0,0,1,4.491,4.179h-9.287a4.788,4.788,0,0,1,4.8-4.176Z" transform="translate(-731.105 -53.684)" fill="#757575"/>
  <path id="Path_401" data-name="Path 401" d="M504.192,87.211h6.233a5.164,5.164,0,0,0,.05-2.079c-.726-6.975-7.548-8.2-11.322-5.993-3.2,1.87-4.516,5.488-3.827,9.393.8,4.562,4.441,7.14,9.038,6.563a7.452,7.452,0,0,0,5.881-4.188l-2.3-1.119c-2.259,2.833-4.612,3.559-7.13,2.281-1.764-.9-3.151-3.319-2.73-4.859Zm-1.247-6.545c2.45-.019,4.647,1.976,4.547,4.185h-9.225c-.087-2.038,2.287-4.154,4.668-4.176Z" transform="translate(-340.837 -53.791)" fill="#757575"/>
  <path id="Path_402" data-name="Path 402" d="M634.477,84.317a5.566,5.566,0,0,0-2.493-4.918,8.236,8.236,0,0,0-6.507-.954,6.42,6.42,0,0,0-4.195,2.8,6.9,6.9,0,0,0,2.054,1.558c2.278-2.163,4.569-2.68,6.619-1.5a3.618,3.618,0,0,1,1.817,3.967,2.781,2.781,0,0,1-.361-.087,11.032,11.032,0,0,0-6.417-.458,5.232,5.232,0,0,0-3.288,8.349c2.091,2.668,6.906,2.8,9.4.312.221-.224.368-.542.72-.673.171.683-.056,1.337.156,1.951h2.493C634.483,91.157,634.505,87.735,634.477,84.317Zm-8.037,8.414c-2.231-.24-3.543-2.079-2.749-3.964a3.116,3.116,0,0,1,2.284-1.823,7.913,7.913,0,0,1,5.448.623,3.118,3.118,0,0,1,.436.312,5.129,5.129,0,0,1-5.419,4.843Z" transform="translate(-427.19 -53.816)" fill="#757575"/>
  <path id="Path_403" data-name="Path 403" d="M855.069,83.879A5.217,5.217,0,0,0,853,79.713a8.429,8.429,0,0,0-9.988.312,2.892,2.892,0,0,0-1.081,1.412c.658.489,1.3.969,1.973,1.477,2.316-2.253,4.675-2.777,6.756-1.558a3.543,3.543,0,0,1,1.714,3.917c-.143-.037-.293-.069-.433-.118a11.032,11.032,0,0,0-6.348-.4,5.228,5.228,0,0,0-3.313,8.268c1.736,2.353,5.9,2.933,8.477,1.2a14.672,14.672,0,0,0,1.68-1.508c.2.711-.034,1.371.168,1.954H855.1C855.091,91.035,855.138,87.457,855.069,83.879Zm-8.922,8.667a2.777,2.777,0,0,1-.866-4.968c1.649-1.247,5.61-1.047,7.168.374A4.963,4.963,0,0,1,846.147,92.546Z" transform="translate(-579.067 -53.846)" fill="#757575"/>
  <path id="Path_404" data-name="Path 404" d="M963.809,84.86a9.939,9.939,0,0,0-.053-1.4,5.514,5.514,0,0,0-2.079-3.783,8.484,8.484,0,0,0-9.568,0A4.263,4.263,0,0,0,950.6,81.4l1.96,1.474c2.864-2.344,4.843-2.752,6.887-1.452a3.562,3.562,0,0,1,1.627,3.883,10.954,10.954,0,0,0-6.756-.555c-1.985.5-3.628,1.524-4.167,3.646a4.993,4.993,0,0,0,1.605,5.429,6.812,6.812,0,0,0,7.6.443,8.215,8.215,0,0,0,1.761-1.621c.252.739,0,1.406.19,2.007h2.515C963.812,91.345,963.812,88.11,963.809,84.86Zm-8.869,7.691a2.807,2.807,0,0,1-.365-5.338,7.53,7.53,0,0,1,6.566.564A4.953,4.953,0,0,1,954.939,92.551Z" transform="translate(-653.891 -53.829)" fill="#757575"/>
  <path id="Path_405" data-name="Path 405" d="M312.051,86.212a8.213,8.213,0,1,0-16.421.377c.019.312.034.577.05.835a8.123,8.123,0,0,0,11.961,6.828C310.882,92.629,312.135,89.733,312.051,86.212Zm-3.839,4.129a5.3,5.3,0,0,1-5.84,2.082,5.678,5.678,0,0,1-4-5.2c0-.184,0-.365,0-.545A5.75,5.75,0,0,1,301,81.518a5.245,5.245,0,0,1,7.3,1.614,6.716,6.716,0,0,1-.081,7.208Z" transform="translate(-203.498 -53.779)" fill="#757575"/>
  <path id="Path_406" data-name="Path 406" d="M363.553,78.209c-4.728-.047-8.224,3.518-8.274,8.43s3.378,8.545,8.1,8.57a8.1,8.1,0,0,0,8.3-8.34C371.709,81.9,368.3,78.256,363.553,78.209Zm-.346,14.46a5.089,5.089,0,0,1-4.17-2.35,6.654,6.654,0,0,1,.221-7.5,5.4,5.4,0,0,1,5.635-1.87,5.641,5.641,0,0,1,3.952,4.737c.041.386.056.776.075,1.016C368.835,90.338,366.445,92.791,363.207,92.669Z" transform="translate(-244.558 -53.835)" fill="#757575"/>
  <rect id="Rectangle_212" data-name="Rectangle 212" width="59.836" height="59.836" fill="none"/>
  <path id="Path_407" data-name="Path 407" d="M90.281,110.164,80.76,100.88,101.207,80l9.857,9.661Z" transform="translate(-55.592 -55.068)" fill="#8ab4f8"/>
  <path id="Path_408" data-name="Path 408" d="M40.245,23.686,30.759,14,10.016,34.547a6.856,6.856,0,0,0,0,9.686L30.447,64.8l9.661-9.038L24.541,39.39Z" transform="translate(-5.516 -9.637)" fill="#4285f4"/>
  <path id="Path_409" data-name="Path 409" d="M106.277,30.572,85.709,10a6.856,6.856,0,1,0-9.7,9.7L96.582,40.267a6.856,6.856,0,1,0,9.7-9.7Z" transform="translate(-50.942 -5.504)" fill="#8ab4f8"/>
  <circle id="Ellipse_320" data-name="Ellipse 320" cx="6.7" cy="6.7" r="6.7" transform="translate(23.062 43.942)" fill="#246fdb"/>
</svg>
