<svg id="google-adwords" xmlns="http://www.w3.org/2000/svg" width="317.118" height="51.507" viewBox="0 0 317.118 51.507">
  <path id="Контур_197" data-name="Контур 197" d="M99.372,118.435h12.26L94.852,68.093v48.425A6.368,6.368,0,0,0,99.372,118.435Z" transform="translate(-61.223 -67.956)" fill="#0f9d59"/>
  <path id="Контур_198" data-name="Контур 198" d="M89.127,93.274,96.182,114.3a5.554,5.554,0,0,0,1.438,2.26V68Z" transform="translate(-63.922 -68)" fill="#0a6e3d"/>
  <path id="Контур_199" data-name="Контур 199" d="M88.781,68.047,72,118.388H84.26a6.417,6.417,0,0,0,5.959-4.178L105.63,68.047Z" transform="translate(-72 -67.978)" fill="#4284f4"/>
  <path id="Контур_200" data-name="Контур 200" d="M251.028,94.079h7.807L255.89,86.2c-.274-.616-.547-1.507-.89-2.6a19.1,19.1,0,0,1-.89,2.6Zm8.356,1.37h-8.836l-3.083,7.74h-1.712l8.766-21.917h.96l8.562,21.917h-1.713Zm13.081-7.466a4.556,4.556,0,0,0-3.972,1.849,9.273,9.273,0,0,0-1.37,5.411c0,4.589,1.781,6.918,5.342,6.918a4.918,4.918,0,0,0,4.041-1.575c.89-1.1,1.3-2.808,1.3-5.274v-.274c0-2.534-.412-4.315-1.233-5.411A4.983,4.983,0,0,0,272.465,87.984Zm0-1.37a7.288,7.288,0,0,1,3.083.616,5.864,5.864,0,0,1,2.328,2.192h.069c-.069-1.233-.069-2.466-.069-3.7V79.9h1.438V103.12h-.958l-.343-2.466h-.137a6.058,6.058,0,0,1-5.342,2.808,6.2,6.2,0,0,1-5.137-2.123,9.246,9.246,0,0,1-1.781-6.1,10.294,10.294,0,0,1,1.781-6.438A6.014,6.014,0,0,1,272.465,86.614Zm29.657,16.575h-1.3L296.027,86.34c-.411-1.37-.686-2.534-.89-3.425-.137.89-.411,1.849-.686,3.014-.274,1.1-1.918,6.918-4.795,17.26h-1.3L282.327,81.34H283.9l3.835,14.041c.137.548.274,1.1.411,1.575a12.8,12.8,0,0,1,.343,1.37,7.886,7.886,0,0,1,.274,1.233c.069.411.137.822.206,1.164a63.115,63.115,0,0,1,1.507-6.164l3.767-13.219h1.711l4.384,15.137c.48,1.781.89,3.151,1.1,4.246.137-.753.274-1.507.478-2.26.206-.822,1.713-6.507,4.59-17.123h1.575Zm9.8-8.219a7.856,7.856,0,0,0,1.507,5.205,5.031,5.031,0,0,0,4.178,1.849,5.122,5.122,0,0,0,4.178-1.849,8.406,8.406,0,0,0,1.507-5.205,7.864,7.864,0,0,0-1.507-5.205,5.033,5.033,0,0,0-4.178-1.849,5.122,5.122,0,0,0-4.178,1.849A8.258,8.258,0,0,0,311.917,94.97Zm12.807,0a9.177,9.177,0,0,1-1.917,6.233,6.69,6.69,0,0,1-5.342,2.26,6.9,6.9,0,0,1-3.767-1.027,6.182,6.182,0,0,1-2.466-2.945,11.474,11.474,0,0,1-.89-4.452,9.177,9.177,0,0,1,1.918-6.233,7.362,7.362,0,0,1,10.549.068A8.8,8.8,0,0,1,324.725,94.97Zm10.549-8.356a12.439,12.439,0,0,1,2.191.206l-.274,1.438a10.606,10.606,0,0,0-2.124-.274,4.193,4.193,0,0,0-3.424,1.781,7.152,7.152,0,0,0-1.3,4.452v8.9h-1.505V86.956h1.232L330.2,89.9h.137a7.415,7.415,0,0,1,2.124-2.534A5.375,5.375,0,0,1,335.273,86.614Zm11.095,1.37a4.555,4.555,0,0,0-3.972,1.849,9.3,9.3,0,0,0-1.3,5.411c0,4.589,1.781,6.918,5.342,6.918a5.012,5.012,0,0,0,4.041-1.575c.89-1.1,1.3-2.808,1.3-5.274v-.274c0-2.534-.411-4.315-1.233-5.411A5.22,5.22,0,0,0,346.368,87.984Zm0-1.37a7.284,7.284,0,0,1,3.083.616,6.347,6.347,0,0,1,2.328,2.192h.069c-.069-1.233-.069-2.466-.069-3.7V79.9h1.439V103.12h-.959l-.343-2.466h-.137a6.058,6.058,0,0,1-5.342,2.808,6.2,6.2,0,0,1-5.137-2.123,9.246,9.246,0,0,1-1.781-6.1,10.294,10.294,0,0,1,1.781-6.438A6.193,6.193,0,0,1,346.368,86.614Zm21.986,12.329a3.859,3.859,0,0,1-1.644,3.356,8.289,8.289,0,0,1-4.725,1.164,11.153,11.153,0,0,1-5.205-1.027V100.86a11.416,11.416,0,0,0,5.205,1.233,6.629,6.629,0,0,0,3.63-.822,2.44,2.44,0,0,0,1.232-2.123,2.527,2.527,0,0,0-1.027-2.055,12.037,12.037,0,0,0-3.288-1.644,22.751,22.751,0,0,1-3.424-1.507A4.369,4.369,0,0,1,357.6,92.5a3.572,3.572,0,0,1-.48-1.986,3.238,3.238,0,0,1,1.507-2.877,7.713,7.713,0,0,1,4.316-1.1,13.525,13.525,0,0,1,5,.959l-.547,1.37a11.126,11.126,0,0,0-4.452-.959,5.974,5.974,0,0,0-3.151.685,2.019,2.019,0,0,0-1.165,1.849,2.609,2.609,0,0,0,.89,2.055,11.369,11.369,0,0,0,3.563,1.712,22.186,22.186,0,0,1,3.218,1.438,4.358,4.358,0,0,1,1.507,1.438A2.71,2.71,0,0,1,368.354,98.942ZM201.712,96.819a3.972,3.972,0,0,0,1.027-2.945c0-2.877-1.712-7.4-5.068-7.4a3.889,3.889,0,0,0-2.808,1.3,4.614,4.614,0,0,0-.89,3.014c0,2.671,1.575,7.192,5,7.192A3.879,3.879,0,0,0,201.712,96.819Zm-1.164,7.671a3.9,3.9,0,0,0-.89-.069,16.731,16.731,0,0,0-4.247.616c-.89.342-3.424,1.3-3.424,4.178s2.808,4.932,7.055,4.932c3.835,0,5.891-1.85,5.891-4.384C204.863,107.709,203.562,106.682,200.548,104.49Zm2.808-17.808a6.9,6.9,0,0,1,2.877,5.411c0,3.014-1.713,4.383-3.357,5.753a2.78,2.78,0,0,0-1.095,1.986,2.2,2.2,0,0,0,1.027,1.712l1.438,1.1c1.781,1.507,3.357,2.877,3.357,5.685,0,3.766-3.63,7.6-10.479,7.6-5.822,0-8.562-2.808-8.562-5.754a5.8,5.8,0,0,1,3.082-4.932c2.466-1.507,5.891-1.712,7.672-1.849a4.443,4.443,0,0,1-1.233-2.74,3.549,3.549,0,0,1,.412-1.575,8.29,8.29,0,0,1-1.3.069,6.362,6.362,0,0,1-6.643-6.3,7.162,7.162,0,0,1,2.6-5.411,10.688,10.688,0,0,1,7.192-2.192h8.219l-2.6,1.438Zm-20.136,13.9a7.326,7.326,0,0,0,1.233-4.452c0-3.562-1.713-10.205-6.644-10.205a5.809,5.809,0,0,0-3.63,1.37,6.091,6.091,0,0,0-1.848,4.932c0,3.972,1.985,10.479,6.849,10.479A5.412,5.412,0,0,0,183.22,100.586Zm-5,3.288a9.428,9.428,0,0,1-9.726-9.452c0-5.274,4.315-9.726,10.343-9.726a9.348,9.348,0,0,1,9.52,9.452A9.845,9.845,0,0,1,178.219,103.874Zm-16.712-3.288a7.326,7.326,0,0,0,1.233-4.452c0-3.562-1.644-10.205-6.644-10.205a5.809,5.809,0,0,0-3.63,1.37,6.091,6.091,0,0,0-1.848,4.932c0,3.972,1.985,10.479,6.849,10.479A5.192,5.192,0,0,0,161.508,100.586Zm-5,3.288a9.428,9.428,0,0,1-9.726-9.452c0-5.274,4.315-9.726,10.343-9.726a9.349,9.349,0,0,1,9.521,9.452A9.718,9.718,0,0,1,156.507,103.874Zm-12.807-.616-5.754,1.3a45.559,45.559,0,0,1-6.643.685c-11.1,0-15.274-8.219-15.274-14.589,0-7.877,6.028-15.068,16.232-15.068a24.837,24.837,0,0,1,6.165.822,15.2,15.2,0,0,1,5.342,2.534l-3.355,3.219-1.439.342L140,80.86a11.644,11.644,0,0,0-8.562-3.767c-6.371,0-11.1,4.863-11.1,11.849,0,7.6,5.479,14.726,14.178,14.726a12.135,12.135,0,0,0,5.137-1.027V96.134l-6.1.342,3.218-1.712h8.493l-1.027,1.027a.909.909,0,0,0-.411.616,18.413,18.413,0,0,0-.069,1.986Z" transform="translate(-51.235 -64.422)" fill="#77777a"/>
  <path id="Контур_201" data-name="Контур 201" d="M186.793,102.4c-1.37-.137-1.644-.342-1.644-1.918V77.332c.137-1.438.547-1.644,1.781-2.4h-5.754l-3.012,1.438h3.082V101.3c0,.822-.137.959-1.1,2.123h7.124l1.507-.89C188.163,102.469,187.477,102.469,186.793,102.4Zm12.6-11.644c.753-.274,1.164-.548,1.164-1.1a3.965,3.965,0,0,0-3.973-3.493c-1.575,0-4.589,1.233-4.589,5.616,0,.685.069,1.438.137,2.123Zm3.767,11.986a12.912,12.912,0,0,1-1.3.753,9,9,0,0,1-3.9.753,8.432,8.432,0,0,1-5.342-1.575,10.528,10.528,0,0,1-4.11-8.493,9.057,9.057,0,0,1,9.111-9.246,7.7,7.7,0,0,1,4.109,1.1A6.744,6.744,0,0,1,204.531,90l-9.314,3.767-3.083.205c.96,5.137,4.452,8.082,8.151,8.082a11.009,11.009,0,0,0,4.862-1.37Z" transform="translate(-21.932 -64.729)" fill="#77777a"/>
</svg>
