<svg id="google-analystic" xmlns="http://www.w3.org/2000/svg" width="306.646" height="51.507" viewBox="0 0 306.646 51.507">
  <path id="Контур_184" data-name="Контур 184" d="M235.687,102.849c-.416.208-.936.52-1.352.728a9.15,9.15,0,0,1-3.954.728,8.872,8.872,0,0,1-5.411-1.561,10.669,10.669,0,0,1-4.162-8.636,9.313,9.313,0,0,1,9.365-9.469,8.731,8.731,0,0,1,4.266,1.144,6.916,6.916,0,0,1,2.914,4.058l-9.677,3.85-3.121.208c1.04,5.2,4.578,8.22,8.428,8.22a10.111,10.111,0,0,0,4.995-1.457Zm-3.85-12.278c.728-.312,1.145-.52,1.145-1.145,0-1.665-1.873-3.538-4.059-3.538-1.664,0-4.681,1.249-4.681,5.723,0,.728.1,1.457.1,2.185Zm-12.07,13.215,1.561-.937c-.728-.1-1.352-.1-2.081-.208-1.354-.1-1.666-.416-1.666-1.977V91.195A127.853,127.853,0,0,1,218,77.252c.209-1.457.624-1.665,1.873-2.393h-5.828l-3.121,1.457h3.226c0,1.873-.208,4.474-.208,6.555-.1,4.266-.209,8.845-.209,11.966V101.5c0,.833-.207.937-1.145,2.185h7.18ZM206.345,86.616a6.788,6.788,0,0,1,2.914,5.515c0,3.018-1.769,4.474-3.435,5.827a2.983,2.983,0,0,0-1.143,1.977,2.356,2.356,0,0,0,1.04,1.769l1.457,1.145c1.769,1.561,3.433,2.913,3.433,5.723,0,3.85-3.747,7.7-10.822,7.7-5.931,0-8.844-2.809-8.844-5.827a5.949,5.949,0,0,1,3.121-4.995c2.5-1.561,6.035-1.769,7.8-1.873a4.167,4.167,0,0,1-1.248-2.809,3.094,3.094,0,0,1,.416-1.561c-.416,0-.937.1-1.352.1a6.425,6.425,0,0,1-6.764-6.451,7.453,7.453,0,0,1,2.6-5.515,10.884,10.884,0,0,1,7.389-2.289h8.428l-2.6,1.457h-2.393Zm-2.914,18.209h-.936a17.657,17.657,0,0,0-4.266.624c-.937.312-3.538,1.353-3.538,4.266s2.809,4.994,7.179,4.994c3.954,0,6.037-1.872,6.037-4.474C207.906,108.156,206.552,107.011,203.431,104.826Zm1.145-7.8A4.256,4.256,0,0,0,205.616,94c0-2.913-1.769-7.6-5.2-7.6a4.046,4.046,0,0,0-2.914,1.353,4.536,4.536,0,0,0-.937,3.018c0,2.705,1.561,7.284,5.1,7.284A3.5,3.5,0,0,0,204.576,97.022Zm-23.724,7.284a9.647,9.647,0,0,1-9.989-9.677c0-5.411,4.369-9.989,10.613-9.989a9.546,9.546,0,0,1,9.78,9.677A10.009,10.009,0,0,1,180.852,104.306Zm5.2-3.33A7.8,7.8,0,0,0,187.3,96.4c0-3.642-1.77-10.509-6.764-10.509a5.607,5.607,0,0,0-3.642,1.353,6.323,6.323,0,0,0-1.873,4.995c0,4.058,1.976,10.717,6.971,10.717A4.973,4.973,0,0,0,186.054,100.976Zm-26.95,3.33a9.647,9.647,0,0,1-9.989-9.677c0-5.411,4.371-9.989,10.613-9.989a9.548,9.548,0,0,1,9.782,9.677A10.076,10.076,0,0,1,159.1,104.306Zm5.1-3.33a7.8,7.8,0,0,0,1.248-4.578c0-3.642-1.769-10.509-6.764-10.509a5.613,5.613,0,0,0-3.642,1.353,6.327,6.327,0,0,0-1.872,4.995c0,4.058,1.976,10.717,6.971,10.717A4.975,4.975,0,0,0,164.2,100.976Zm-17.793,1.873V98.166a11.423,11.423,0,0,1,.1-1.873c.1-.312.1-.416.416-.624l1.04-.936h-8.116L136.733,96.4l5.826-.312v6.139a12.148,12.148,0,0,1-4.89.936c-8.428,0-13.63-6.763-13.63-14.047,0-6.764,4.578-11.342,10.613-11.342a11.05,11.05,0,0,1,8.22,3.642l-.937,1.561,1.352-.312,3.226-3.018a14.292,14.292,0,0,0-5.1-2.393,21.5,21.5,0,0,0-5.932-.833c-9.78,0-15.5,6.868-15.5,14.359,0,6.139,4.059,13.943,14.672,13.943A45.178,45.178,0,0,0,141,104.1Z" transform="translate(-55.258 -64.765)" fill="#75787d" fill-rule="evenodd"/>
  <path id="Контур_185" data-name="Контур 185" d="M76.071,71.538v29.551L89.494,87.354l11.862,11.862,25.077-25.077V71.85a3.841,3.841,0,0,0-3.85-3.85c-9.468,0-33.818.1-42.974,0A3.509,3.509,0,0,0,76.071,71.538Z" transform="translate(-75.967 -68)" fill="#f7991f"/>
  <path id="Контур_186" data-name="Контур 186" d="M91.156,85.111,85.121,91.25l6.035,6.139Z" transform="translate(-71.698 -59.93)" fill="#f7991f"/>
  <path id="Контур_187" data-name="Контур 187" d="M76,106.87v2.081a3.686,3.686,0,0,0,3.642,3.641h43.287a3.508,3.508,0,0,0,3.538-3.537V80.232l-25.077,25.077L89.527,93.447S76.1,106.974,76,106.87Z" transform="translate(-76 -62.231)" fill="#f15823"/>
  <path id="Контур_188" data-name="Контур 188" d="M220.261,93.461h-8.949l-3.121,7.8h-1.666L215.474,79.1h.937l8.74,22.163h-1.769Zm-8.429-1.353h7.908L216.723,84.1c-.209-.624-.521-1.457-.937-2.6a15.1,15.1,0,0,1-.936,2.6Z" transform="translate(-14.442 -62.765)" fill="#75787d"/>
  <path id="Контур_189" data-name="Контур 189" d="M232.466,99.531V88.917a5.253,5.253,0,0,0-1.04-3.642,3.964,3.964,0,0,0-3.226-1.145,5.968,5.968,0,0,0-4.369,1.457c-.937,1.041-1.354,2.6-1.354,4.787v9.053h-1.455V83.09h1.248l.312,2.289h.1c1.04-1.665,3.017-2.6,5.723-2.6,3.745,0,5.619,1.977,5.619,6.035V99.531Z" transform="translate(-7.606 -61.031)" fill="#75787d"/>
  <path id="Контур_190" data-name="Контур 190" d="M242.969,99.531l-.416-2.6h-.1a8.769,8.769,0,0,1-2.6,2.289,6.944,6.944,0,0,1-3.121.624,5.085,5.085,0,0,1-3.745-1.249,4.749,4.749,0,0,1,.624-7.18c1.352-.936,3.226-1.353,5.826-1.457l3.123-.1V88.813a5.726,5.726,0,0,0-.937-3.538,3.61,3.61,0,0,0-3.121-1.145,10.59,10.59,0,0,0-4.786,1.249l-.521-1.353a12.727,12.727,0,0,1,5.307-1.249,5.519,5.519,0,0,1,4.059,1.457c.936.937,1.352,2.393,1.352,4.37V99.531Zm-6.035-1.041a5.951,5.951,0,0,0,4.162-1.457,5.415,5.415,0,0,0,1.56-4.162V91.206l-2.912.1a11.831,11.831,0,0,0-4.892,1.041,3.193,3.193,0,0,0-1.457,2.809,2.987,2.987,0,0,0,.937,2.393A3.462,3.462,0,0,0,236.934,98.49Z" transform="translate(-2.604 -61.031)" fill="#75787d"/>
  <path id="Контур_191" data-name="Контур 191" d="M244.821,101.7h-1.457V78.182h1.457Z" transform="translate(2.931 -63.198)" fill="#75787d"/>
  <path id="Контур_192" data-name="Контур 192" d="M245.768,82.99h1.561l3.433,9.261c1.04,2.809,1.769,4.786,1.976,5.723h.1c.416-1.249,1.145-3.226,2.081-5.827l3.435-9.157h1.56l-7.388,19.146a23.8,23.8,0,0,1-1.457,3.122,3.463,3.463,0,0,1-1.457,1.249,3.719,3.719,0,0,1-1.976.416,5.9,5.9,0,0,1-1.873-.312v-1.353a5.765,5.765,0,0,0,1.873.208,2.882,2.882,0,0,0,1.352-.312,2.814,2.814,0,0,0,1.04-1.145,17.65,17.65,0,0,0,1.145-2.393c.416-1.04.728-1.873.831-2.185Z" transform="translate(4.065 -60.931)" fill="#75787d"/>
  <path id="Контур_193" data-name="Контур 193" d="M263.28,99.657a17.252,17.252,0,0,0,2.5-.208V100.7a9.11,9.11,0,0,1-2.5.312,4.337,4.337,0,0,1-3.226-1.145,5.084,5.084,0,0,1-1.04-3.642V85.609h-2.5v-.832l2.393-.728.728-3.746h.728v3.954h4.786v1.353h-4.786V96.015a5.107,5.107,0,0,0,.624,2.809A3.428,3.428,0,0,0,263.28,99.657Z" transform="translate(9.134 -62.198)" fill="#75787d"/>
  <path id="Контур_194" data-name="Контур 194" d="M264.223,80.345c0-.937.312-1.457.936-1.457a.785.785,0,0,1,.728.416,1.891,1.891,0,0,1,0,2.081.785.785,0,0,1-.728.416C264.535,81.8,264.223,81.386,264.223,80.345Zm1.769,21.019h-1.457V84.924h1.457Z" transform="translate(12.769 -62.865)" fill="#75787d"/>
  <path id="Контур_195" data-name="Контур 195" d="M274.755,99.843a7.058,7.058,0,0,1-5.516-2.185c-1.352-1.457-1.976-3.538-1.976-6.243a9.137,9.137,0,0,1,2.081-6.347,7.431,7.431,0,0,1,5.723-2.289,10.414,10.414,0,0,1,4.057.728l-.416,1.353a11.215,11.215,0,0,0-3.745-.728A5.667,5.667,0,0,0,270.384,86a8.186,8.186,0,0,0-1.561,5.411,7.958,7.958,0,0,0,1.561,5.2,5.375,5.375,0,0,0,4.371,1.873,11.007,11.007,0,0,0,4.162-.832V99.01A8.5,8.5,0,0,1,274.755,99.843Z" transform="translate(14.203 -61.031)" fill="#75787d"/>
  <path id="Контур_196" data-name="Контур 196" d="M288.109,95.3a3.97,3.97,0,0,1-1.664,3.434,7.962,7.962,0,0,1-4.787,1.145,10.5,10.5,0,0,1-5.2-1.041V97.17a11.6,11.6,0,0,0,5.2,1.249,7.4,7.4,0,0,0,3.747-.832,2.261,2.261,0,0,0,1.248-2.185,2.428,2.428,0,0,0-1.04-2.081,10.8,10.8,0,0,0-3.329-1.665,18.9,18.9,0,0,1-3.435-1.561,4.867,4.867,0,0,1-1.457-1.457,3.986,3.986,0,0,1-.519-1.977,3.347,3.347,0,0,1,1.561-2.913,7.546,7.546,0,0,1,4.369-1.041,12.429,12.429,0,0,1,5.1,1.041L287.38,85.1a13.12,13.12,0,0,0-4.474-1.041,7.12,7.12,0,0,0-3.226.624,1.9,1.9,0,0,0-1.145,1.873,2.617,2.617,0,0,0,.937,2.081,15.348,15.348,0,0,0,3.538,1.769,16.434,16.434,0,0,1,3.226,1.457,7.007,7.007,0,0,1,1.56,1.457A6.034,6.034,0,0,1,288.109,95.3Z" transform="translate(18.538 -61.064)" fill="#75787d"/>
</svg>
