<svg xmlns="http://www.w3.org/2000/svg" width="214.98" height="61.227" viewBox="0 0 214.98 61.227">
  <g id="hotjar" transform="translate(-571.02 -14461)">
    <path id="Hotjar-2" data-name="Hotjar" d="M37.587,59.5c4.523-16.22,2.9-24.4-5.034-25.967,1.211,5.507,2.574,11.166-3.217,14.989-3.028,2.006-5.432,1.23-10.807-2.9-2.479,5.091-1.647,10.163-.492,15.6-7.7-1.344-13.778-4.542-16.6-11.98a17.7,17.7,0,0,1,3.993-19.74,47.208,47.208,0,0,1,6-5.167C20.1,17.828,21.783,11.507,17.2,1.722A11.14,11.14,0,0,1,16.711,0,58.194,58.194,0,0,1,43.227,11.242c16.9,13.816,14.857,38.666-3.8,47.789A4.791,4.791,0,0,0,37.587,59.5Z" transform="translate(571.02 14461)" fill="#ee4854"/>
    <text id="Hotjar-3" data-name="Hotjar" transform="translate(647 14482)" fill="#75787d" font-size="28" font-family="SegoeUI, Segoe UI"><tspan x="0" y="30">Hotjar</tspan></text>
  </g>
</svg>
