<svg xmlns="http://www.w3.org/2000/svg" width="50" height="50" viewBox="0 0 50 50">
  <path id="language-white" d="M25,0A25,25,0,1,0,50,25,25,25,0,0,0,25,0ZM46.621,33.758l-7.11,1.227a37.307,37.307,0,0,0,1.308-9.152h7.493a23.179,23.179,0,0,1-1.691,7.925ZM1.687,25.833H9.18a37.307,37.307,0,0,0,1.308,9.152l-7.11-1.227a23.179,23.179,0,0,1-1.691-7.925Zm1.691-9.591,7.11-1.227A37.307,37.307,0,0,0,9.18,24.167H1.687a23.179,23.179,0,0,1,1.691-7.925ZM25.833,13.38a57.328,57.328,0,0,1,8.934.816l2.941.507a35.77,35.77,0,0,1,1.446,9.463H25.833Zm9.218-.827a59.069,59.069,0,0,0-9.218-.84v-10c4.777.459,8.927,4.833,11.279,11.2Zm-10.884-.84a59.059,59.059,0,0,0-9.217.84l-2.063.357c2.352-6.368,6.5-10.743,11.279-11.2ZM15.234,14.2a57.313,57.313,0,0,1,8.933-.816V24.167H10.846A35.771,35.771,0,0,1,12.292,14.7ZM10.846,25.833H24.167V36.62a57.328,57.328,0,0,1-8.934-.816L12.292,35.3a35.77,35.77,0,0,1-1.446-9.463Zm4.1,11.613a59.268,59.268,0,0,0,9.218.844v10c-4.777-.459-8.927-4.834-11.279-11.2Zm10.884.844a59.262,59.262,0,0,0,9.217-.844l2.063-.357c-2.352,6.368-6.5,10.743-11.279,11.2ZM34.766,35.8a57.313,57.313,0,0,1-8.933.816V25.833H39.154A35.771,35.771,0,0,1,37.708,35.3ZM40.82,24.167a37.307,37.307,0,0,0-1.308-9.152l7.11,1.227a23.179,23.179,0,0,1,1.691,7.925Zm4.959-9.762-6.815-1.176a22.98,22.98,0,0,0-6.63-10.375A23.444,23.444,0,0,1,45.778,14.405ZM17.667,2.854a22.98,22.98,0,0,0-6.63,10.375L4.222,14.405A23.444,23.444,0,0,1,17.667,2.854ZM4.222,35.595l6.815,1.176a22.98,22.98,0,0,0,6.63,10.375A23.444,23.444,0,0,1,4.222,35.595ZM32.333,47.146a22.98,22.98,0,0,0,6.63-10.375l6.815-1.176A23.444,23.444,0,0,1,32.333,47.146Zm0,0" fill="#fff"/>
</svg>
