<svg xmlns="http://www.w3.org/2000/svg" width="309.065" height="46.122" viewBox="0 0 309.065 46.122">
  <g id="lyst-market" transform="translate(-1466.935 -13151.878)">
    <g id="_15896496731" data-name="15896496731" transform="translate(1466.935 13151.878)">
      <path id="Контур_246" data-name="Контур 246" d="M0,40.2V1.144A6.009,6.009,0,0,1,.258.037c0,6.9-.111,13.844-.037,20.748.111,5.464,4.725,8.75,10.079,7.273.3-.074.775-.406.775-.591a15.919,15.919,0,0,0-.665-3.507c-.111-.3-1.329-.185-2.03-.222-2.326-.111-3.064-.923-3.1-3.286,0-2.03-.037-4.061-.037-6.091,0-4.8.037-9.6.037-14.361Q44.154.055,83.065.037V40.2H69.11Q34.555,40.148,0,40.2ZM9.968,8.9c.258.628.406,1.034.591,1.44,2.289,4.615,4.578,9.266,6.978,13.844a3.419,3.419,0,0,1,.074,3.507c-1.144,2.289-2.252,4.652-3.36,6.978-.369.775-.665,1.587-1.108,2.584,1.44,0,2.658-.074,3.913,0A1.619,1.619,0,0,0,18.9,36.069c3.876-8.6,7.827-17.167,11.777-25.769.185-.406.332-.849.554-1.4-1.329,0-2.51.074-3.692-.037a1.931,1.931,0,0,0-2.178,1.4c-1.108,2.7-2.326,5.316-3.507,7.974-.259.554-.554,1.108-.96,1.883C19.087,16.5,17.388,13.106,15.69,9.746c-.185-.369-.554-.849-.849-.849C13.327,8.86,11.7,8.9,9.968,8.9Zm45.04,4.172c0,2.769-.074,5.316,0,7.9.222,5.575,5.464,8.86,10.854,6.756-.222-1.329-.443-2.658-.628-3.95a14,14,0,0,1-3.175-.258c-.738-.259-1.772-1-1.809-1.588-.185-2.916-.074-5.833-.074-8.9h6.018V8.86h-6.2V3.692H54.9V8.9H49.8v4.172ZM32.414,25.584c2.806,2.621,8.085,3.36,11.7,1.7a5.081,5.081,0,0,0,3.323-4.541,5.036,5.036,0,0,0-2.99-5.169c-1.181-.591-2.473-1-3.729-1.514a10.936,10.936,0,0,1-1.772-.812c-1.071-.7-1.034-1.846.185-2.141a9.941,9.941,0,0,1,3.47-.037,7.655,7.655,0,0,1,1.92.812C45.3,12.663,46,11.555,46.7,10.448c-2.953-2.658-9.266-2.51-11.924.222a4.817,4.817,0,0,0,1.071,7.937c1.366.738,2.916,1.145,4.356,1.772,1.034.443,2.326.7,2.178,2.252-.074.886-1.551,1.551-3.027,1.329a16.04,16.04,0,0,1-3.138-.923,10.37,10.37,0,0,1-1.4-.738C33.965,23.369,33.226,24.44,32.414,25.584Z" fill="#fff"/>
      <path id="Контур_247" data-name="Контур 247" d="M0,35.646H83.065V40.63H0Z" transform="translate(0 4.557)"/>
      <path id="Контур_248" data-name="Контур 248" d="M5.254.033c0,4.8-.037,9.6-.037,14.361,0,2.031,0,4.061.037,6.091,0,2.363.775,3.175,3.1,3.286.7.037,1.92-.074,2.03.222A12.3,12.3,0,0,1,11.05,27.5c.037.148-.48.48-.775.591C4.921,29.568.307,26.282.233,20.818.159,13.877.233,6.937.27.033Z" transform="translate(0.026 0.004)"/>
      <path id="Контур_249" data-name="Контур 249" d="M8.838,7.891c1.772,0,3.36-.037,4.947.037.3,0,.665.517.849.849,1.7,3.36,3.4,6.756,5.205,10.374.406-.775.7-1.329.96-1.883,1.181-2.658,2.363-5.279,3.507-7.974a1.9,1.9,0,0,1,2.178-1.4c1.181.111,2.363.037,3.692.037-.222.554-.369,1-.554,1.4Q23.642,22.178,17.772,35.062a1.676,1.676,0,0,1-1.846,1.181c-1.218-.074-2.474,0-3.913,0,.406-1,.738-1.809,1.108-2.584,1.108-2.326,2.178-4.652,3.36-6.978a3.505,3.505,0,0,0-.074-3.507c-2.4-4.578-4.689-9.229-6.977-13.844C9.244,8.924,9.1,8.518,8.838,7.891Z" transform="translate(1.13 1.007)"/>
      <path id="Контур_250" data-name="Контур 250" d="M49.358,12.651H44.189V8.479h5.095V3.273h5.095V8.442h6.2v4.172H54.563c0,3.064-.111,6.018.074,8.9.037.591,1.071,1.329,1.809,1.587a14,14,0,0,0,3.175.258c.222,1.292.443,2.621.628,3.95-5.39,2.067-10.6-1.181-10.854-6.756C49.284,18,49.358,15.419,49.358,12.651Z" transform="translate(5.649 0.418)"/>
      <path id="Контур_251" data-name="Контур 251" d="M28.74,24.621c.812-1.145,1.588-2.215,2.4-3.323a8.687,8.687,0,0,0,1.4.738,16.037,16.037,0,0,0,3.138.923c1.514.222,2.953-.443,3.027-1.329.148-1.551-1.144-1.809-2.178-2.252-1.44-.628-2.99-1.034-4.356-1.772-3.138-1.7-3.544-5.39-1.071-7.937,2.658-2.732,9.008-2.88,11.924-.222-.7,1.108-1.4,2.215-2.178,3.433a7.127,7.127,0,0,0-1.92-.812,9.941,9.941,0,0,0-3.47.037c-1.218.332-1.255,1.44-.185,2.141a8.65,8.65,0,0,0,1.772.812c1.255.517,2.51.923,3.729,1.514a5.086,5.086,0,0,1,2.99,5.169,5.122,5.122,0,0,1-3.323,4.541C36.788,27.981,31.546,27.279,28.74,24.621Z" transform="translate(3.674 0.963)"/>
    </g>
    <text id="LYST_Market" data-name="LYST Market" transform="translate(1561 13161)" fill="#75787d" font-size="28" font-family="SegoeUI, Segoe UI"><tspan x="0" y="30">LYST Market</tspan></text>
  </g>
</svg>
