<svg id="mailchimp" xmlns="http://www.w3.org/2000/svg" width="218.994" height="58.864" viewBox="0 0 218.994 58.864">
  <path id="Контур_159" data-name="Контур 159" d="M170.312,80.293c-2.812,0-4.206,2.212-4.831,3.63-.361.793-.458,1.418-.746,1.418-.408,0-.119-.553-.456-1.755a4.393,4.393,0,0,0-4.568-3.293c-2.956,0-4.206,2.5-4.808,3.87-.408.937-.408,1.2-.721,1.2-.456,0-.072-.745.121-1.611a7.258,7.258,0,0,0,.1-3.053h-4.687V98.3h6.394v-8.75c0-1.731.721-3.918,1.972-3.918,1.442,0,1.706,1.106,1.706,3.125V98.3H166.2V89.523c0-1.538.625-3.918,1.97-3.918,1.444,0,1.707,1.538,1.707,3.125v9.544h6.3V87.913C176.178,83.369,174.543,80.293,170.312,80.293Z" transform="translate(-85.385 -57.788)"/>
  <path id="Контур_160" data-name="Контур 160" d="M244.033,80.293c-2.812,0-4.207,2.212-4.831,3.63-.361.793-.458,1.418-.746,1.418-.409,0-.144-.7-.456-1.755a4.317,4.317,0,0,0-4.568-3.293c-2.956,0-4.207,2.5-4.808,3.87-.409.937-.409,1.2-.721,1.2-.456,0-.072-.745.121-1.611a7.288,7.288,0,0,0,.1-3.053h-4.687V98.3h6.394v-8.75c0-1.731.721-3.918,1.97-3.918,1.442,0,1.707,1.106,1.707,3.125V98.3h6.419V89.523c0-1.538.624-3.918,1.97-3.918,1.442,0,1.707,1.538,1.707,3.125v9.544h6.3V87.913C249.9,83.369,248.264,80.293,244.033,80.293Z" transform="translate(-50.617 -57.788)"/>
  <path id="Контур_161" data-name="Контур 161" d="M178.14,80.293a20.1,20.1,0,0,0-8.413,1.8v5.289s3.87-2.236,7.02-2.236c2.524,0,2.812,1.346,2.717,2.476a13.638,13.638,0,0,0-2.933-.192c-5.217,0-7.838,2.356-7.838,6.154,0,3.606,2.958,5.1,5.457,5.1a5.991,5.991,0,0,0,5.722-3.606c.337-.793.409-1.346.7-1.346.337,0,.24.385.216,1.178a13.321,13.321,0,0,0,.265,3.341h4.808V89.6C185.857,84.235,183.934,80.293,178.14,80.293Zm-1.563,13.895c-1.538.361-2.331-.12-2.331-1.13,0-1.394,1.442-1.947,3.485-1.947.914,0,1.756.072,1.756.072A4.437,4.437,0,0,1,176.577,94.187Z" transform="translate(-76.434 -57.788)"/>
  <path id="Контур_162" data-name="Контур 162" d="M193.905,76.944h-6.394V99.877h6.394Z" transform="translate(-67.558 -59.367)"/>
  <path id="Контур_163" data-name="Контур 163" d="M198.329,89.523c0-1.587,1.466-3.029,4.182-3.029a11.862,11.862,0,0,1,5.841,1.731V82.1s-1.875-1.8-6.466-1.8c-4.855,0-8.869,2.837-8.869,8.943s3.654,9.471,8.869,9.471a10.134,10.134,0,0,0,6.491-2.236V90.653a11.209,11.209,0,0,1-5.817,1.9C199.434,92.577,198.329,91.158,198.329,89.523Z" transform="translate(-64.962 -57.788)"/>
  <path id="Контур_164" data-name="Контур 164" d="M215.708,81.872c-3.7,0-5.1,3.51-5.385,4.111s-.433.962-.649.962c-.409-.024-.121-.745.024-1.226a20.83,20.83,0,0,0,.937-6.154,8.1,8.1,0,0,0-.265-2.62h-5.529V99.877h6.394v-8.75c0-1.418.578-3.918,2.188-3.918,1.322,0,1.754.986,1.754,2.981V99.9h6.4V90.574C221.549,86.055,220.8,81.872,215.708,81.872Z" transform="translate(-59.385 -59.367)"/>
  <path id="Контур_165" data-name="Контур 165" d="M217.617,80.587v17.6h6.394v-17.6a8.49,8.49,0,0,1-6.394,0Z" transform="translate(-53.36 -57.649)"/>
  <path id="Контур_166" data-name="Контур 166" d="M221.029,81.926c2.165,0,3.919-1.141,3.919-2.548s-1.754-2.548-3.919-2.548-3.919,1.141-3.919,2.548S218.864,81.926,221.029,81.926Z" transform="translate(-53.599 -59.421)"/>
  <path id="Контур_167" data-name="Контур 167" d="M181.761,80.587v17.6h6.394v-17.6a8.49,8.49,0,0,1-6.394,0Z" transform="translate(-70.27 -57.649)"/>
  <path id="Контур_168" data-name="Контур 168" d="M185.173,81.926c2.165,0,3.919-1.141,3.919-2.548s-1.754-2.548-3.919-2.548-3.919,1.141-3.919,2.548S183.008,81.926,185.173,81.926Z" transform="translate(-70.509 -59.421)"/>
  <path id="Контур_169" data-name="Контур 169" d="M253.455,80.293A5.981,5.981,0,0,0,248,84.163c-.433.937-.409,1.2-.721,1.2-.456,0-.072-.745.121-1.611a7.288,7.288,0,0,0,.1-3.053h-4.687v22.477H249.2V96.062a5.007,5.007,0,0,0,4.327,2.644c4.616,0,6.947-3.918,6.947-9.183C260.474,83.514,257.686,80.293,253.455,80.293ZM251.7,94.524c-1.467,0-2.549-1.851-2.549-4.447,0-2.524,1.107-4.447,2.5-4.447,1.779,0,2.549,1.635,2.549,4.447C254.176,93.009,253.48,94.524,251.7,94.524Z" transform="translate(-41.48 -57.788)"/>
  <path id="Контур_170" data-name="Контур 170" d="M134.664,85.341a5.219,5.219,0,0,1,1.226,0,4.033,4.033,0,0,0,.047-2.308c-.288-1.394-.7-2.26-1.514-2.115-.817.12-.84,1.154-.552,2.548A5.212,5.212,0,0,0,134.664,85.341Z" transform="translate(-92.935 -57.5)"/>
  <path id="Контур_171" data-name="Контур 171" d="M131.267,85.233c.577.264.937.433,1.082.288q.144-.144-.072-.5a3.392,3.392,0,0,0-1.514-1.226,4.158,4.158,0,0,0-4.015.481c-.386.288-.77.673-.721.937a.2.2,0,0,0,.216.144c.312.048,1.442-.529,2.764-.625A4.837,4.837,0,0,1,131.267,85.233Z" transform="translate(-96.557 -56.286)"/>
  <path id="Контур_172" data-name="Контур 172" d="M129.365,85.136a2.626,2.626,0,0,0-1.444.6.789.789,0,0,0-.361.577.205.205,0,0,0,.049.144.182.182,0,0,0,.121.048,2.449,2.449,0,0,0,.552-.144,4.889,4.889,0,0,1,2.453-.264c.384.048.552.072.649-.072a.226.226,0,0,0-.025-.24A2.2,2.2,0,0,0,129.365,85.136Z" transform="translate(-95.833 -55.516)"/>
  <path id="Контур_173" data-name="Контур 173" d="M134.217,87.063a1.079,1.079,0,1,0-1.267.235A.932.932,0,0,0,134.217,87.063Z" transform="translate(-93.596 -55.2)"/>
  <path id="Контур_174" data-name="Контур 174" d="M136.017,85.88c.01-.571-.327-1.039-.752-1.047s-.777.45-.786,1.021.327,1.039.751,1.047S136.007,86.45,136.017,85.88Z" transform="translate(-92.569 -55.647)"/>
  <path id="Контур_175" data-name="Контур 175" d="M117.949,94.017c-.1-.12-.288-.1-.433-.048a1.87,1.87,0,0,1-.384.048.853.853,0,0,1-.721-.361,1.3,1.3,0,0,1,.024-1.226c.024-.072.072-.144.1-.216a3.591,3.591,0,0,0,.265-3.221,2.843,2.843,0,0,0-2.188-1.587,2.777,2.777,0,0,0-2.4.865,3.391,3.391,0,0,0-.889,2.909c.072.192.168.24.24.24.168.024.384-.1.528-.481a.425.425,0,0,1,.049-.12,4.477,4.477,0,0,1,.384-.914,1.644,1.644,0,0,1,1.058-.721,1.753,1.753,0,0,1,1.3.24,1.651,1.651,0,0,1,.625,2,4.707,4.707,0,0,0-.337,1.779,1.733,1.733,0,0,0,1.563,1.8A1.388,1.388,0,0,0,118,94.377.448.448,0,0,0,117.949,94.017Z" transform="translate(-103.529 -54.444)"/>
  <path id="Контур_176" data-name="Контур 176" d="M159.315,102.289c-.024-.1-.191-.7-.433-1.442s-.456-1.25-.456-1.25a4.6,4.6,0,0,0,.817-3.317,3.957,3.957,0,0,0-1.226-2.356,9.946,9.946,0,0,0-4.3-2.139c-.24-.072-1.033-.288-1.105-.313,0-.048-.049-2.572-.1-3.678a11.852,11.852,0,0,0-.48-3.221,8.7,8.7,0,0,0-2.237-3.99c2.717-2.837,4.424-5.938,4.424-8.606,0-5.144-6.322-6.707-14.086-3.486,0,0-1.635.7-1.659.7,0,0-2.982-2.933-3.03-2.957-8.846-7.717-36.587,23.1-27.716,30.578l1.947,1.635a9.382,9.382,0,0,0-.528,4.4,8.7,8.7,0,0,0,2.98,5.553,9.111,9.111,0,0,0,5.866,2.356c3.461,7.957,11.323,12.837,20.578,13.1,9.9.288,18.245-4.35,21.731-12.716a17.687,17.687,0,0,0,1.2-5.553C161.478,103.25,160.157,102.289,159.315,102.289Zm-40.578,6.25a5.831,5.831,0,0,1-.912.072,7.173,7.173,0,0,1-6.54-5.986c-.361-3.534,1.444-6.25,4.64-6.9a5.812,5.812,0,0,1,1.347-.1c1.8.1,4.424,1.466,5.024,5.385C122.823,104.476,121.983,107.986,118.737,108.539ZM115.4,93.611a7.527,7.527,0,0,0-4.808,3.077,12.477,12.477,0,0,1-2.044-1.971c-1.707-3.245,1.875-9.568,4.375-13.149,6.178-8.822,15.865-15.505,20.361-14.279.721.216,3.149,3,3.149,3a62.023,62.023,0,0,0-8.63,5.962A39.2,39.2,0,0,0,115.4,93.611Zm31.443,13.606a.138.138,0,0,0,.1-.168.155.155,0,0,0-.193-.144,20.787,20.787,0,0,1-9.111-.937c.481-1.563,1.754-1.01,3.7-.841a27.3,27.3,0,0,0,8.943-.962,20.622,20.622,0,0,0,6.683-3.317,13.174,13.174,0,0,1,.937,3.2,1.61,1.61,0,0,1,.986.168c.433.264.721.793.53,2.188A12.111,12.111,0,0,1,156,113.082a13.7,13.7,0,0,1-4.087,3.053,19.02,19.02,0,0,1-2.668,1.13c-7.02,2.282-14.207-.216-16.539-5.65a7.9,7.9,0,0,1-.456-1.274,11.258,11.258,0,0,1,2.475-10.553.951.951,0,0,0,.337-.625,1.132,1.132,0,0,0-.265-.6c-.912-1.322-4.087-3.606-3.461-7.981a6,6,0,0,1,5.794-5.241,5.9,5.9,0,0,1,.649.048c1.105.072,2.091.216,3.005.24a6.022,6.022,0,0,0,4.543-1.515,3.489,3.489,0,0,1,1.731-.986,2.233,2.233,0,0,1,.674-.072,2.164,2.164,0,0,1,1.129.361c1.3.865,1.491,2.981,1.563,4.519.049.889.144,3,.193,3.63.072,1.394.456,1.587,1.2,1.851.408.144.817.24,1.37.409a7.87,7.87,0,0,1,3.413,1.611,2.078,2.078,0,0,1,.625,1.226c.216,1.49-1.154,3.341-4.759,5a24.308,24.308,0,0,1-12.02,1.923c-.265-.024-1.154-.12-1.154-.12-2.644-.361-4.159,3.053-2.572,5.409,1.033,1.514,3.8,2.5,6.587,2.5,6.394,0,11.3-2.716,13.125-5.072l.144-.216c.1-.144.024-.216-.1-.144-1.491,1.01-8.126,5.072-15.218,3.846a9.409,9.409,0,0,1-1.659-.457,2.961,2.961,0,0,1-2.091-2.188C143.233,108.9,146.839,107.217,146.839,107.217ZM126.814,81.543a25.866,25.866,0,0,1,7.332-5.986.089.089,0,0,1,.121.12,7.671,7.671,0,0,0-.674,1.659.091.091,0,0,0,.146.1,13.991,13.991,0,0,1,6.441-2.26.111.111,0,0,1,.072.192,5.735,5.735,0,0,0-1.009,1.01.111.111,0,0,0,.072.168,12.392,12.392,0,0,1,5.385,1.418c.1.048.025.24-.072.216a21.909,21.909,0,0,0-9.735.024,22.727,22.727,0,0,0-7.91,3.486C126.863,81.759,126.742,81.639,126.814,81.543Z" transform="translate(-106 -65)"/>
  <path id="Контур_177" data-name="Контур 177" d="M159,98.9h3.389a4.072,4.072,0,0,1,2.717.769,2.826,2.826,0,0,1,.865,2.212v.047a2.578,2.578,0,0,1-.889,2.14,4.047,4.047,0,0,1-2.572.746h-.961v3.005H159Zm3.293,4.184a1.4,1.4,0,0,0,.961-.288,1.042,1.042,0,0,0,.313-.842V101.9a.966.966,0,0,0-.337-.817,1.466,1.466,0,0,0-.914-.241h-.745v2.26h.721Z" transform="translate(-81.005 -49.013)" fill="#231f20"/>
  <path id="Контур_178" data-name="Контур 178" d="M167.2,98.9h3.317l2.837,8.942h-2.717l-.481-1.659H167.2l-.481,1.659h-2.38Zm.5,5.53h1.971l-.986-3.438Z" transform="translate(-78.485 -49.013)" fill="#231f20"/>
  <path id="Контур_179" data-name="Контур 179" d="M171.872,98.9h3.51a4.5,4.5,0,0,1,2.693.7,2.515,2.515,0,0,1,.937,2.139v.049a2.231,2.231,0,0,1-.458,1.514,3.112,3.112,0,0,1-1.154.842l2.14,3.7h-2.717l-1.8-3.2h-.6v3.2h-2.549Zm3.366,4.086a1.53,1.53,0,0,0,.961-.263,1.022,1.022,0,0,0,.313-.818v-.047a.872.872,0,0,0-.337-.77,1.708,1.708,0,0,0-.961-.24h-.793v2.138Z" transform="translate(-74.934 -49.013)" fill="#231f20"/>
  <path id="Контур_180" data-name="Контур 180" d="M180.223,100.886h-2.307V98.915h7.212v1.971h-2.309v6.971h-2.6Z" transform="translate(-72.084 -49.005)" fill="#231f20"/>
  <path id="Контур_181" data-name="Контур 181" d="M184.295,98.9h2.884l2.861,5.049V98.9h2.235v8.942H189.8l-3.27-5.6v5.6h-2.259V98.9Z" transform="translate(-69.086 -49.013)" fill="#231f20"/>
  <path id="Контур_182" data-name="Контур 182" d="M191.589,98.9h6.178v1.971h-3.63v1.538h2.886v1.828h-2.886v1.635h3.823v1.97h-6.371Z" transform="translate(-65.635 -49.013)" fill="#231f20"/>
  <path id="Контур_183" data-name="Контур 183" d="M197.486,98.9H201a4.49,4.49,0,0,1,2.692.7,2.511,2.511,0,0,1,.937,2.139v.049a2.238,2.238,0,0,1-.456,1.514,3.124,3.124,0,0,1-1.154.842l2.14,3.7h-2.693l-1.8-3.2h-.6v3.2H197.51V98.9Zm3.389,4.086a1.538,1.538,0,0,0,.962-.263,1.021,1.021,0,0,0,.312-.818v-.047a.872.872,0,0,0-.337-.77,1.708,1.708,0,0,0-.961-.24h-.842v2.138Z" transform="translate(-62.854 -49.013)" fill="#231f20"/>
</svg>
