<svg xmlns="http://www.w3.org/2000/svg" width="197.721" height="69.988" viewBox="0 0 197.721 69.988">
  <g id="main_logo" transform="translate(266 -6190.35)">
    <g id="main_logo-2" data-name="main_logo" transform="translate(-266 6190.35)">
      <g id="Group_451" data-name="Group 451" transform="translate(25.874 33.623)">
        <path id="Path_544" data-name="Path 544" d="M640.226,4004.706c6.669-9.769,31.686-24.645,32.44-23.607a11,11,0,0,1,1.7,4.094,10.363,10.363,0,0,1,.142,5.651c-1.038,3.154-4.2,4.745-6.067,5.685-3.638,1.831-4.995.857-6.772,2.821-.93,1.028-1.391,2.213-3.1,3.383a9.258,9.258,0,0,1-2.257,1.126c-.147.773-.294,1.547-.436,2.321h-6.233l-1.523,11.233q-4.51-1.271-9.015-2.546Q639.658,4009.784,640.226,4004.706Z" transform="translate(-639.1 -3981.048)"/>
      </g>
      <circle id="Ellipse_503" data-name="Ellipse 503" cx="30.051" cy="30.051" r="30.051" transform="translate(4.99)"/>
      <path id="Path_545" data-name="Path 545" d="M145.6,3294.4a34.986,34.986,0,0,0,0,69.973Z" transform="translate(-110.7 -3294.4)"/>
      <g id="Group_452" data-name="Group 452" transform="translate(19.053 17.496)">
        <path id="Path_546" data-name="Path 546" d="M504.765,3651.779q5.582-.037,11.164-.078a38.445,38.445,0,0,1,5.984.426c.641.127,1.229.284,1.229.284.436.117.916.264,1.445.456a12.535,12.535,0,0,1,2.737,1.444,9.6,9.6,0,0,1,2.439,2.316,9.373,9.373,0,0,1,1.444,3.477,13.517,13.517,0,0,1,.122,4.8,14.2,14.2,0,0,1-2.3,6.287,12.047,12.047,0,0,1-4.079,3.883,26.2,26.2,0,0,1-4.407,1.939,17.753,17.753,0,0,1-3.628.857l-1.415.059H510.21l-1.293,9.534H499.8Zm17.089,13.118a4.118,4.118,0,0,0-.69-3.535,3.9,3.9,0,0,0-3.011-1.126h-5.416l-1.293,9.235h5.416Q521.164,3669.47,521.854,3664.9Z" transform="translate(-499.8 -3651.7)" fill="#fff"/>
      </g>
      <path id="Path_547" data-name="Path 547" d="M1721.8,3570.8h8.716c.122,0,.279,0,.48.02a9.209,9.209,0,0,1,1.151.191,12.2,12.2,0,0,1,1.616.446,7.431,7.431,0,0,1,1.65.872,5.819,5.819,0,0,1,1.469,1.4,5.705,5.705,0,0,1,.872,2.1,8.2,8.2,0,0,1,.073,2.894,8.59,8.59,0,0,1-1.391,3.795,7.281,7.281,0,0,1-2.458,2.341,16.1,16.1,0,0,1-2.659,1.17,11.076,11.076,0,0,1-2.189.519l-.852.034h-3.2l-.779,5.753h-5.5Zm10.312,7.913a2.487,2.487,0,0,0-.416-2.135,2.36,2.36,0,0,0-1.817-.681h-3.266l-.779,5.573h3.266Q1731.7,3581.477,1732.114,3578.713Z" transform="translate(-1640.058 -3557.266)"/>
      <path id="Path_548" data-name="Path 548" d="M2106.982,3574.45a12.5,12.5,0,0,1,4.431-7.918,12.759,12.759,0,0,1,8.554-3.232,9.673,9.673,0,0,1,7.653,3.251,9.416,9.416,0,0,1,2.208,7.9,12.429,12.429,0,0,1-4.412,7.908,12.755,12.755,0,0,1-8.569,3.261,9.671,9.671,0,0,1-7.644-3.242A9.517,9.517,0,0,1,2106.982,3574.45Zm14.881,4.294a7.083,7.083,0,0,0,2.306-4.294,5.247,5.247,0,0,0-1.082-4.294,4.714,4.714,0,0,0-3.829-1.768,6.242,6.242,0,0,0-4.314,1.768,7.084,7.084,0,0,0-2.306,4.294,5.247,5.247,0,0,0,1.082,4.294,4.713,4.713,0,0,0,3.829,1.768A6.211,6.211,0,0,0,2121.863,3578.744Z" transform="translate(-2009.123 -3550.133)"/>
      <path id="Path_549" data-name="Path 549" d="M2556.7,3592.235l3-21.535h8.442a9.016,9.016,0,0,1,7.325,3.07,9.507,9.507,0,0,1,1.944,7.717,12.252,12.252,0,0,1-12.286,10.748Zm10.822-16.394h-3.051l-1.562,11.257h3.051a5.349,5.349,0,0,0,3.922-1.562,6.792,6.792,0,0,0,1.915-4.05,5.5,5.5,0,0,0-.8-4.069A4,4,0,0,0,2567.522,3575.842Z" transform="translate(-2436.929 -3557.171)"/>
      <path id="Path_550" data-name="Path 550" d="M2909.4,3570.8h6.1l4.867,21.535h-5.954l-.779-3.506h-7.482l-1.709,3.506h-5.94Zm1.958,7.516-2.668,5.431h3.868Z" transform="translate(-2761.992 -3557.266)"/>
      <path id="Path_551" data-name="Path 551" d="M1697.9,4045.7h6.1l4.867,21.535h-5.954l-.779-3.506h-7.482l-1.709,3.506H1687Zm1.959,7.517-2.669,5.43h3.868Z" transform="translate(-1609.815 -4008.912)"/>
      <path id="Path_552" data-name="Path 552" d="M2118.9,4043.287a6.243,6.243,0,0,0-4.314,1.767,7.085,7.085,0,0,0-2.306,4.295,5.247,5.247,0,0,0,1.082,4.294,4.713,4.713,0,0,0,3.829,1.768,6.133,6.133,0,0,0,2.061-.337,5.556,5.556,0,0,0,1.528-.779,7.128,7.128,0,0,0,.979-.906,3.117,3.117,0,0,0,.553-.808l.147-.328h-4.52l.651-4.612h10.425l-.636,4.3a11.789,11.789,0,0,1-1.582,3.594,8.432,8.432,0,0,1-2.394,2.453,21.344,21.344,0,0,1-2.551,1.435,9.08,9.08,0,0,1-2.541.764c-.891.132-1.508.22-1.861.264a7.733,7.733,0,0,1-.965.064,9.669,9.669,0,0,1-7.644-3.242,9.5,9.5,0,0,1-2.213-7.927,12.5,12.5,0,0,1,4.431-7.918,12.759,12.759,0,0,1,8.554-3.232,11.514,11.514,0,0,1,3.775.593,8.286,8.286,0,0,1,2.722,1.444,14.976,14.976,0,0,1,1.724,1.714,8.707,8.707,0,0,1,1.033,1.444l.255.6-4.466,2.8a5.741,5.741,0,0,0-2.341-2.585A6.681,6.681,0,0,0,2118.9,4043.287Z" transform="translate(-2008.787 -4001.779)"/>
      <path id="Path_553" data-name="Path 553" d="M2550.909,4062.133h9.734l-.71,5.1H2544.7l3-21.535h15.253l-.71,5.1h-9.735l-.49,3.266h8.971l-.71,5.1h-8.971Z" transform="translate(-2425.516 -4008.912)"/>
      <path id="Path_554" data-name="Path 554" d="M2891.152,4045.605l-3.016,21.535h-5.391l-6.684-11.189-1.562,11.184H2869l3-21.536h5.068l6.953,11.64,1.635-11.64h5.5Z" transform="translate(-2733.937 -4008.817)"/>
      <path id="Path_555" data-name="Path 555" d="M3315.9,4051.526h5.847a13.006,13.006,0,0,1-4.823,6.38,12.757,12.757,0,0,1-7.634,2.512,9.67,9.67,0,0,1-7.644-3.241,9.5,9.5,0,0,1-2.213-7.927,12.5,12.5,0,0,1,4.432-7.918,12.759,12.759,0,0,1,8.554-3.232,9.945,9.945,0,0,1,6.929,2.507,9.127,9.127,0,0,1,3.041,6.37h-5.851a4.952,4.952,0,0,0-1.714-2.752,4.823,4.823,0,0,0-3.114-1.043,6.241,6.241,0,0,0-4.314,1.768,7.084,7.084,0,0,0-2.306,4.294,5.247,5.247,0,0,0,1.082,4.294,4.714,4.714,0,0,0,3.829,1.768,6,6,0,0,0,3.379-1.063A7.623,7.623,0,0,0,3315.9,4051.526Z" transform="translate(-3143.18 -4001.683)"/>
      <path id="Path_556" data-name="Path 556" d="M3725.954,4045.7l3.305,8.662,5.773-8.662h5.954l-9.749,14.288-1,7.242h-5.5l1-7.242L3720,4045.7Z" transform="translate(-3543.266 -4008.912)"/>
    </g>
  </g>
</svg>
