<svg xmlns="http://www.w3.org/2000/svg" width="275.968" height="56.861" viewBox="0 0 275.968 56.861">
  <g id="mybestbrand" transform="translate(-510.032 -12955.139)">
    <g id="_15896496541" data-name="15896496541" transform="translate(510.033 12955.139)">
      <path id="Контур_241" data-name="Контур 241" d="M5.916,14.027c0-1.565.084-3.025-.021-4.471A3.226,3.226,0,0,1,8.087,6.123a9.772,9.772,0,0,1,7.381-.243c1.753.611,2.34,1.592,2.341,3.452,0,4.454.04,8.907-.015,13.36a3.6,3.6,0,0,0,2.529,3.8c1.1.414,2.177.883,3.4,1.381,0-.6,0-1.1,0-1.59q-.007-8.2-.011-16.391c0-2.269.883-3.532,3.112-4.068a16.65,16.65,0,0,1,4.216-.452c3.421.075,4.867,1.649,4.87,5.079.007,6.336.025,12.672,0,19.008a3.277,3.277,0,0,0,2.111,3.359c1.289.554,2.564,1.142,3.887,1.734a4.854,4.854,0,0,0,.061-.539q0-12.809,0-25.619a6.954,6.954,0,0,0-4.346-6.768,18.53,18.53,0,0,0-15.6.193c-.41.179-1.02.413-1.327.243C16.653-.182,12.33-.187,7.953.4,2.708,1.106-.139,4.39,0,9.348A3.014,3.014,0,0,0,1.869,12.29C3.157,12.861,4.457,13.4,5.916,14.027Zm-5.905.59v1.615q0,15.277,0,30.554a8.076,8.076,0,0,0,6.359,8.36,20.784,20.784,0,0,0,10.75.014c4.151-1.1,6.469-3.706,6.568-7.453q.146-5.5,0-11.009A7.953,7.953,0,0,0,17.9,29.014q-4.617-1.581-9.2-3.254a3.862,3.862,0,0,1-2.776-3.981c-.01-.6-.021-1.193,0-1.789a3.626,3.626,0,0,0-1.808-3.35C2.875,15.887,1.514,15.347.011,14.617ZM26.789,32.093c.231,1.793.556,3.442.613,5.1a1.513,1.513,0,0,0,1.222,1.644,40.053,40.053,0,0,1,4.6,1.8c2.242,1.086,3.19,3.488,2.619,6.223a4.473,4.473,0,0,1-4.59,3.6,23.443,23.443,0,0,1-3.39-.342l-.394-.042L25.162,54.9c2.018.986,6.782,1.207,10.065.348,3.5-.917,5.972-3.1,6.513-6.676a25.463,25.463,0,0,0-.231-7.629,5.991,5.991,0,0,0-3.546-4.658C34.266,34.75,30.466,33.458,26.789,32.093Z" transform="translate(0 0)" fill="#fff"/>
      <path id="Контур_242" data-name="Контур 242" d="M5.916,14.028c-1.459-.624-2.759-1.166-4.047-1.737A3.014,3.014,0,0,1,0,9.349C-.139,4.391,2.708,1.107,7.953.4c4.377-.588,8.7-.584,12.737,1.662.306.171.916-.063,1.327-.243a18.53,18.53,0,0,1,15.6-.193A6.954,6.954,0,0,1,41.958,8.4q.024,12.809,0,25.619a4.745,4.745,0,0,1-.061.539c-1.324-.592-2.6-1.179-3.887-1.734A3.277,3.277,0,0,1,35.9,29.463c.028-6.336.01-12.672,0-19.008,0-3.43-1.45-5-4.87-5.079a16.65,16.65,0,0,0-4.216.452c-2.229.536-3.11,1.8-3.112,4.068q-.006,8.2.011,16.391c0,.492,0,.985,0,1.59-1.218-.5-2.3-.967-3.4-1.381a3.6,3.6,0,0,1-2.529-3.8c.055-4.453.017-8.907.015-13.36,0-1.859-.588-2.841-2.341-3.452a9.772,9.772,0,0,0-7.381.243A3.226,3.226,0,0,0,5.895,9.557C6,11,5.916,12.463,5.916,14.028Z" transform="translate(0 0)"/>
      <path id="Контур_243" data-name="Контур 243" d="M.008,10.468c1.5.729,2.865,1.27,4.1,2.022a3.627,3.627,0,0,1,1.808,3.35c-.017.6-.006,1.193,0,1.789a3.861,3.861,0,0,0,2.776,3.981q4.581,1.68,9.2,3.254a7.953,7.953,0,0,1,5.792,7.684q.139,5.5,0,11.009c-.1,3.747-2.417,6.349-6.568,7.453A20.784,20.784,0,0,1,6.369,51a8.075,8.075,0,0,1-6.359-8.36Q0,27.36.008,12.082ZM5.943,26.5c0,5.091-.021,10.267.01,15.443A3.842,3.842,0,0,0,9.2,46.105a15.549,15.549,0,0,0,4.218.253c2.807-.164,4.405-1.912,4.459-4.749q.069-3.641.008-7.284a4.758,4.758,0,0,0-3.033-4.512c-1-.449-2.063-.747-3.092-1.129C9.85,27.974,7.942,27.253,5.943,26.5Z" transform="translate(0.003 4.151)"/>
      <path id="Контур_244" data-name="Контур 244" d="M19.644,22.981c3.677,1.365,7.477,2.657,11.175,4.2a5.992,5.992,0,0,1,3.546,4.658,25.463,25.463,0,0,1,.231,7.629c-.541,3.576-3.01,5.759-6.513,6.676-3.283.859-8.047.638-10.066-.348l2.309-4.828.394.042a23.509,23.509,0,0,0,3.39.342,4.473,4.473,0,0,0,4.591-3.6c.57-2.735-.377-5.137-2.619-6.223a40.1,40.1,0,0,0-4.6-1.8,1.513,1.513,0,0,1-1.222-1.644C20.2,26.423,19.875,24.775,19.644,22.981Z" transform="translate(7.145 9.113)"/>
      <path id="Контур_245" data-name="Контур 245" d="M4.26,21.95c2,.75,3.907,1.472,5.819,2.181,1.029.382,2.094.68,3.092,1.129A4.757,4.757,0,0,1,16.2,29.772q.059,3.641-.008,7.284c-.053,2.837-1.652,4.585-4.459,4.749a15.583,15.583,0,0,1-4.218-.253,3.841,3.841,0,0,1-3.25-4.159C4.239,32.217,4.26,27.041,4.26,21.95Z" transform="translate(1.687 8.704)" fill="#fff"/>
    </g>
    <text id="MyBestBrand-2" data-name="MyBestBrand" transform="translate(571 12975)" fill="#75787d" font-size="28" font-family="SegoeUI, Segoe UI"><tspan x="0" y="30">MyBestBrand</tspan></text>
  </g>
</svg>
