<svg xmlns="http://www.w3.org/2000/svg" width="160.11" height="99" viewBox="0 0 160.11 99">
  <g id="oiler-logo-text" transform="translate(-617 -2969)">
    <path id="Контур_416" data-name="Контур 416" d="M154.469,31.062s-5.64,15.489-5.64,19.362,2.526,6.987,5.64,6.987,5.641-3.115,5.641-6.985S154.469,31.062,154.469,31.062Zm-.673-8,5.3-7.156h0l-8.586-6.4L91.675,28.621,84.1,20.792H64.649v-8.25h9.09V4.209H47.308v8.334H56.4v8.334H37.712v-6.4L0,0V30.809l28.789,9.348v25.59H104.8l44.11-46.3ZM28.789,30.725l-19.87-6.4V13.048l19.87,7.66Zm71.977,26.011H37.712V29.8h42.6l8.755,9.09,41.921-13.636Z" transform="translate(617 2969)"/>
    <g id="Сгруппировать_271" data-name="Сгруппировать 271" transform="translate(645.065 3043.917)">
      <path id="Контур_417" data-name="Контур 417" d="M91.4,206.52V188.763l3.168-3.163h9l3.168,3.163v17.756l-3.168,3.163h-9Zm9.336-.665,1.167-1.165v-14.1l-1.167-1.165H97.4l-1.167,1.165v14.094l1.167,1.165Z" transform="translate(-91.4 -185.6)"/>
      <path id="Контур_418" data-name="Контур 418" d="M126.156,206.131h3.223v-16.98H126.1V185.6h11.392v3.551h-3.279v16.98h3.279v3.551H126.156Z" transform="translate(-106.773 -185.6)"/>
      <path id="Контур_419" data-name="Контур 419" d="M154.2,185.6h4.888v20.031h6.836v4.05H154.256Z" transform="translate(-119.221 -185.6)"/>
      <path id="Контур_420" data-name="Контур 420" d="M179.2,185.6h12.778v4h-7.89v5.826h7.168v4h-7.168v6.215h8v4.05H179.2Z" transform="translate(-130.295 -185.6)"/>
      <path id="Контур_421" data-name="Контур 421" d="M208.2,185.6h12.337l3.056,3.107v8.046l-2.612,2.608,3,10.321h-4.946l-2.667-9.655h-3.282v9.655H208.2Zm9.447,10.82,1.115-1.11v-5.049l-1.115-1.11h-4.559v7.214Z" transform="translate(-143.135 -185.6)"/>
    </g>
  </g>
</svg>
