<svg xmlns="http://www.w3.org/2000/svg" width="228.505" height="91.232" viewBox="0 0 228.505 91.232">
  <g id="logo-001" transform="translate(-0.006)">
    <path id="path0" d="M9.079,75.532C1.536,77.194-2.235,86.078,1.408,93.493c3.643,7.351,15.468,8.373,20.262,1.726l.831-1.151-.511-.959a8.251,8.251,0,0,1-.575-1.6,2.506,2.506,0,0,0-.256-.895c-.639-.959-.128-6.9.7-8.565l.575-1.214-.7-1.087c-2.621-3.579-7.67-5.241-12.656-4.219m21.477.384c-2.685.575-2.812.639-4.346,1.79-4.474,3.2-6.008,10.419-3.324,15.724.575,1.151,2.3,3.452,2.3,3.132,0-.128.064-.064.192.064a9.8,9.8,0,0,0,1.214.959,11.273,11.273,0,0,0,10.674.639l1.214-.511V92.087l-.575.447a7.482,7.482,0,0,1-6.456,1.278c-6.456-1.918-4.858-13.231,1.79-12.784.575.064,1.342.064,1.662.064a5.605,5.605,0,0,1,1.981.895,14.57,14.57,0,0,0,1.406.895,16.082,16.082,0,0,0,.128-2.748V77.386l-1.342-.575a7.043,7.043,0,0,0-2.621-.831,6.271,6.271,0,0,0-3.9-.064m35.219.256c-8.245,1.918-11.314,12.975-5.369,19.5,4.41,4.922,13.806,4.794,17.45-.32l.767-1.023V87.485c0-6.648,0-6.839-.575-7.542-2.685-3.516-7.351-4.922-12.272-3.771M153.79,87.485V98.99l6.456-.064c9.843-.128,12.017-1.406,12.017-6.967,0-4.794-2.365-6.775-8.437-6.967l-3.388-.128v-3h9.2l-1.47-2.94-1.47-2.94H153.79V87.485m57.015-8.693V81.6h8.949l-.895,1.854c-.511,1.023-2.365,4.922-4.155,8.693l-3.26,6.839h7.031l1.79-4.027c.959-2.237,3.26-7.287,4.986-11.25,1.79-3.963,3.26-7.351,3.26-7.478,0-.192-2.621-.256-8.821-.256h-8.821v2.812M38.737,87.421V98.479h5.88V89.53h7.926v8.949h5.88v-2.3a6.83,6.83,0,0,0-.256-2.429c-1.726-1.087-1.726-10.61.064-12.528a8.908,8.908,0,0,0,.192-2.493V76.491h-5.88l.064,4.091.064,4.091H44.617V76.491l-2.94-.064-2.94-.064V87.421M84.822,76.427l-5.689.064V98.479l5.689.064c3.132,0,6.072.064,6.52.064a5.623,5.623,0,0,0,2.045-.511L94.6,97.52,95.816,94c.895-2.621,1.151-3.643.959-4.091a7.816,7.816,0,0,0-3.26-2.748c-1.087-.384-1.087-.575.256-1.342a5.134,5.134,0,0,0,.767-7.926c-1.47-1.47-2.173-1.534-9.716-1.47m102.973,6.711c.064,6.072,0,6.9-.384,7.734-.511,1.087-2.109,2.557-2.493,2.365-.128-.064-.256-.064-.256.128,0,.128-.256.32-.575.32-.575.064-.575.192-.639,2.748-.128,4.027-.256,3.835,2.685,3.835h2.429l-.128-.895-.128-.895h13.423v1.79h4.6V93.621h-2.557V76.491l-8.054-.064-7.99-.064.064,6.775m-85.4-6.072c-.128.32-.959,2.748-1.918,5.433-.895,2.685-2.557,7.351-3.643,10.419s-1.918,5.625-1.918,5.689a18.125,18.125,0,0,0,2.94.128h2.94l.447-1.342c.256-.767.511-1.662.7-2.045l.256-.7h8.054l.575,2.045.575,2.045h6.008l-.7-1.981c-.895-2.429-2.109-6.008-4.922-14.062l-2.109-6.2h-3.516c-3.452,0-3.579,0-3.771.575m65.453-.447c0,.064,1.79,3.707,3.963,7.99s3.963,7.926,3.963,7.99c0,.128-.575,1.342-1.278,2.812s-1.278,2.685-1.278,2.812a9.89,9.89,0,0,0,2.876.192h2.876l.7-1.6c.384-.895,2.3-5.305,4.283-9.843,3.068-7.031,3.579-8.437,3.516-9.332l-.064-1.087-2.3-.064c-2.429-.064-3,.128-3.2,1.342-.064.384-1.278,3.835-2.876,8.054-.192.575-.511.064-2.493-4.346l-2.237-4.986-3.26-.064a21.518,21.518,0,0,0-3.2.128M89.872,80.837c1.534.767,1.278,4.091-.32,4.283-.192,0-1.278.128-2.429.192l-2.109.192V80.645l1.6-.064a6.539,6.539,0,0,1,3.26.256m-18.025.639c3.963,2.3,3.771,10.291-.32,12.272-.959.447-3.579.767-4.027.447a1.914,1.914,0,0,0-.639-.256c-3-.447-4.858-6.711-3-10.227.447-.831,2.365-2.621,2.812-2.621a5.781,5.781,0,0,0,1.662-.384c.32-.32,2.557.192,3.516.767M107.7,85.631c.7,2.429,1.342,4.474,1.342,4.538a18.125,18.125,0,0,1-2.94.128c-2.493,0-2.94-.064-2.812-.384.064-.192.767-2.365,1.47-4.858.767-2.493,1.406-4.346,1.534-4.155.064.192.7,2.3,1.406,4.73M14.448,81.668c3.963,2.109,3.963,9.524-.064,11.505-4.091,2.045-7.926-1.151-7.542-6.328.256-4.538,4.027-7.095,7.606-5.177m183.83,5.817v6.136h-7.862l1.087-1.087c1.406-1.406,1.662-2.621,1.662-7.478V81.349h5.113v6.136m8.949,1.662v1.918h6.648V87.229h-6.648v1.918M90,89.658c1.087.192,1.534.831,1.6,2.173.064,2.045-.895,2.685-4.538,2.748l-2.109.064V89.53l1.726-.064A10.394,10.394,0,0,1,90,89.658m74.657.384c2.812,1.087,1.023,4.091-2.429,4.091h-1.79V89.786h1.79a10.337,10.337,0,0,1,2.429.256" transform="translate(0 -27.146)" fill="#252525" fill-rule="evenodd"/>
    <path id="path1" d="M163.305,1.151V2.3l-1.087.128c-.575.064-13.1,1.214-27.8,2.557S106.545,7.542,105.139,7.67s-6.967.639-12.4,1.151-9.843.895-9.907.959a6.6,6.6,0,0,0,.064.895l.128.831H94.529V29.658c0,17.961,0,18.153.511,18.153s.511-.192.511-18.153V11.505h4.091V47.811h1.278V11.505h62.384v.639c0,.639,0,.639-2.429.639h-2.429V23.266h3.324v1.342c0,1.151.192,1.726,1.534,4.091.831,1.534,1.6,3,1.662,3.26.192.511.511.639.767.256.128-.192,1.534.7,4.922,3.068a1.024,1.024,0,0,1,.511,1.087c-.064.7-.064.7-2.493-1.023a15.184,15.184,0,0,0-2.557-1.534c-.447.447,1.214,2.429,3.068,3.643l1.981,1.342v3.835h-5.881v3.388h41.739V21.732H177.111V12.784h-2.3c-2.3,0-2.3,0-2.3-.639v-.639h7.159V10.355c0-1.087.064-1.151.639-1.151h.639V2.812h-.639c-.575,0-.639-.128-.639-1.023,0-1.023,0-1.023-.7-.895-.384.064-1.6.192-2.748.32a19.169,19.169,0,0,0-2.876.32c-.767.128-.831.128-.831-.639V0h-9.2V1.151m13.1,4.858-.064,3.2h.767c.447,0,.767.128.767.256a7.1,7.1,0,0,1-2.685.256h-2.685V3.068L173.979,3c.831-.064,1.726-.128,1.981-.128.447-.064.511.064.447,3.132m-13.1-.384V7.159l-1.214.7c-.639.384-1.6.895-2.045,1.214l-.831.511V4.474l1.087-.128c.575-.064,1.534-.128,2.045-.128l.959-.064v1.47m-13.3,1.534c-2.876,1.278-5.241,2.3-5.305,2.3a9.624,9.624,0,0,1-.064-1.854V5.689l4.155-.384c7.223-.639,7.159-.767,1.214,1.854m7.862,2.493c-.064.064-2.365.064-5.113.064l-5.05-.064,5.05-2.237,5.05-2.237.064,2.173c.064,1.214,0,2.237,0,2.3M139.016,6.775c-2.045.959-5.88,2.685-6.008,2.685a8.579,8.579,0,0,1-.064-2.557c.128-.064,6.136-.639,6.839-.7q.671-.1-.767.575m4.346,1.278V9.716h-3.771c-3.068,0-3.643-.064-3.132-.32,3.516-1.6,6.584-3,6.711-3a4.783,4.783,0,0,1,.192,1.662m-11.825,1.6c-.064.064-1.79.064-3.835.064l-3.771-.128L127.7,8.437l3.771-1.151.064,1.151a6.937,6.937,0,0,1,0,1.214M126.1,7.542c-.128.064-1.662.575-3.388,1.087l-3.132,1.023V7.99l2.876-.256c3.388-.256,3.963-.32,3.643-.192m-7.8,1.406v.767h-4.986l2.429-.7c1.342-.384,2.429-.767,2.493-.767s.064.256.064.7m-7.67.128c-.639.192-1.342.447-1.6.511-.32.128-.447,0-.447-.256s.32-.384,1.214-.511c1.981-.128,1.981-.064.831.256m52.669.128c0,.447-.192.511-.959.511h-.959l.895-.511c.511-.256.895-.511.959-.511s.064.256.064.511m-55.993.256a5.441,5.441,0,0,1-2.493.192c-2.429-.064-2.429-.064-.831-.192,2.685-.256,3.324-.256,3.324,0m58.294,8.054v2.429H161.9V15.085h3.707v2.429m23.011,1.406v2.3h17.13v-4.6h-17.13v2.3m-42.761,3.643a25.516,25.516,0,0,0-2.748,2.557,42.755,42.755,0,0,0,6.008.192c3.324,0,6.008-.064,6.008-.064a60.317,60.317,0,0,0-6.328-4.986,20.767,20.767,0,0,0-2.94,2.3m25.248.895c-.128.128-1.662,1.214-3.452,2.429l-3.2,2.173V23.2h3.452c1.918.064,3.324.128,3.2.256m6.008,9.524V42.7h-3.324V23.266h3.324v9.716m8.437,1.79v9.716H184.27V25.056h1.278v9.716m-14.318-8.757c0,1.087-4.858,4.346-5.817,3.9-.767-.384-.895-.256,2.748-2.685,3.388-2.237,3.068-2.109,3.068-1.214m25.823,1.214v1.918h-5.369V25.312h5.369v1.918m7.415,0v1.918h-2.557V25.312h2.557v1.918m-73.251,1.214c-2.621,4.474-6.775,12.017-6.775,12.208a6.275,6.275,0,0,0,2.429.256H129.3l.064,13.231.064,13.231,1.087,2.237,1.087,2.237h32.982l-.064-15.468-.064-15.468h1.981a8.225,8.225,0,0,0,1.981-.128c0-.128-4.922-9.524-6.456-12.336l-.575-1.087h-29.53l-.639,1.087m40.013,2.748a13.585,13.585,0,0,1-.128,2.557,30.778,30.778,0,0,1-3.643-2.557,26.289,26.289,0,0,1,3.643-2.557s.128,1.151.128,2.557M197.054,34V36.05h-5.369V31.959h5.369V34m7.415,0V36.05h-2.557V31.959h2.557V34m-7.415,6.775V42.7h-5.369V38.862h5.369V40.78m7.415,0V42.7h-2.557V38.862h2.557V40.78m-42.7.639c0,.511-.192.511-14.829.511s-14.829,0-14.829-.511.128-.511,14.829-.511,14.829,0,14.829.511m-21.221,4.6v2.812h-8.309V43.209h8.309v2.812m10.483,0v2.812h-8.182V43.209h8.182v2.812m10.738,0v2.812h-8.437V43.209h8.437v2.812m17.13,2.94a47.446,47.446,0,0,0,2.748,5.433,8.637,8.637,0,0,0-.767-1.726c-.831-1.662-.895-1.918-.511-1.662.128.064.064-.192-.128-.639s-.384-.831-.384-.895a20.806,20.806,0,0,1,3.2-.128h3.2l.384.7c.447.831.511.639.128-.32-.384-.831-7.095-1.023-7.095-.192,0,.32-.064.32-.384-.192-.192-.32-.383-.511-.383-.384m-126.495.32a22.567,22.567,0,0,0,2.94,0c.831-.064.128-.064-1.47-.064-1.662,0-2.3,0-1.47.064m13.679,0a24.564,24.564,0,0,0,3.068,0c.831-.064.064-.064-1.6-.064-1.726,0-2.365,0-1.47.064m27.868,0c1.6.064,4.155.064,5.753,0s.256-.064-2.876-.064c-3.2,0-4.474,0-2.876.064m20.518,0a6.772,6.772,0,0,0,2.493.128c4.6-.128,5.05-.192,1.278-.256a14.962,14.962,0,0,0-3.771.128m79.9.192c-.256.639-.192.767.192.256.256-.384.639-.447,2.685-.384a6.092,6.092,0,0,0,2.365-.128c0-.384-5.05-.128-5.241.256m9.652-.192c2.237.064,5.817.064,8.054,0s.384-.064-4.027-.064-6.264,0-4.027.064m-97.54,1.342a7.392,7.392,0,0,1,1.214,1.79c.192.511.384.767.384.575a4.952,4.952,0,0,0-1.534-2.493l-.831-.767.767.895m15.724.064c.064.192.32.959.575,1.662.256.767.511,1.342.575,1.278a11.518,11.518,0,0,0-1.087-3.26c-.128,0-.128.128-.064.32m-85.4.767c-1.151,1.278-1.47,1.726-1.342,1.726a6.394,6.394,0,0,0,1.087-1.151c1.023-1.151,1.214-1.6.256-.575m150.272-.447a3.59,3.59,0,0,0,.511,1.151c.32.511.511.767.511.639a3.59,3.59,0,0,0-.511-1.151c-.32-.511-.511-.767-.511-.639m-73.634,1.151c-.128.447-.256.895-.192.895.064.064.256-.256.384-.7s.256-.895.192-.895c-.064-.064-.192.256-.384.7m-41.8.575c-.575.767-1.406,2.237-1.151,1.981A29.779,29.779,0,0,0,72.349,51.9s-.32.384-.7.831m18.472.064c.767,1.023.831,13.934.128,15.021l-.447.639.575-.511c.575-.447.575-.639.575-7.478V53.436l-.639-.7-.639-.7.447.767M140.55,54.97v2.812h-8.309V52.157h8.309V54.97m10.483,0v2.812h-8.182V52.157h8.182V54.97m10.738,0v2.812h-8.437V52.157h8.437V54.97m36.817-1.151c-.447.959-.32,1.151.128.256.192-.384.32-.767.256-.831,0,0-.192.256-.384.575m-163.567,0c-.064.192-.256.32-.384.256-.32-.192-1.342,2.109-1.151,2.557.064.192.128.064.192-.192l.064-.511.192.511c.128.32.256.384.256.128a10.529,10.529,0,0,1,.639-1.726A6.484,6.484,0,0,0,35.34,53.5c-.128-.064-.256.128-.32.32m153.34,0a3.59,3.59,0,0,0,.511,1.151c.256.511.511.767.511.639a3.59,3.59,0,0,0-.511-1.151c-.256-.511-.511-.767-.511-.639M34.318,55.226c-.192.447-.384.7-.384.575,0-.384.575-1.662.7-1.534a5.072,5.072,0,0,1-.32.959m175.9,5.113c0,3.452.064,4.858.064,3.132.064-1.726.064-4.538,0-6.264s-.064-.32-.064,3.132M69.473,55.865c-.192.511-.256,1.023-.128,1.087.064.064.192-.064.192-.32,0-.447,0-.447.256,0,.192.384.192.256.064-.384-.064-.575-.064-.767.064-.575.192.256.256.256.384-.128.064-.256.128-.511.064-.575s-.128,0-.128.256c0,.32-.064.32-.256,0-.128-.192-.32-.064-.511.639m42.058,1.79a20.251,20.251,0,0,0-.831,2.812,15.39,15.39,0,0,0,1.023-2.621,20.251,20.251,0,0,0,.831-2.812,15.388,15.388,0,0,0-1.023,2.621m86.29-2.045c-.447.959-.32,1.151.128.256.192-.384.32-.767.256-.831,0,0-.192.256-.384.575m-121.253.064a7.16,7.16,0,0,0-1.214,2.685c0,.192.256-.256.511-.895a8.243,8.243,0,0,1,.895-1.726c.256-.256.383-.511.32-.511a1.325,1.325,0,0,0-.511.447m-35.794.256c-.575.639-1.023,1.6-.831,1.79.064.064.128,0,.128-.128a3.628,3.628,0,0,1,.639-1.214c.639-.959.7-1.151.064-.447M124,55.737l.959,2.876a11.819,11.819,0,0,0,.959,2.429,35.442,35.442,0,0,0-1.854-5.561c-.128-.064-.192.064-.064.256M107.5,57.079l-.447.831.511-.575c.447-.511.7-1.087.447-1.087a3.864,3.864,0,0,0-.511.831m82.135-.447a3.59,3.59,0,0,0,.511,1.151c.32.511.511.767.511.639a3.59,3.59,0,0,0-.511-1.151c-.32-.511-.511-.767-.511-.639m6.9,1.981a7.859,7.859,0,0,0-.7,1.918,6.4,6.4,0,0,0,.895-1.726,7.859,7.859,0,0,0,.7-1.918,9.766,9.766,0,0,0-.895,1.726M58.67,57.463c1.151.064,3.068.064,4.219,0s.192-.064-2.109-.064c-2.365,0-3.26,0-2.109.064m60.659.064a5.672,5.672,0,0,0,.192.895c.128.32.192.384.192.128a5.672,5.672,0,0,0-.192-.895c-.064-.32-.192-.384-.192-.128m64.43.128a2.732,2.732,0,0,0,.384.767c.192.256.384.384.384.256a2.731,2.731,0,0,0-.384-.767c-.192-.32-.384-.384-.384-.256m-85.97.575a8.37,8.37,0,0,0,1.79,0c.511-.064.128-.128-.831-.128s-1.406.064-.959.128m-64.3,1.981c0,.575.064.767.128.447a2.745,2.745,0,0,0,0-1.023c-.064-.256-.128,0-.128.575m35.283.128c0,.511.064.7.128.447a2.112,2.112,0,0,0,0-.895c-.064-.256-.128-.064-.128.447m17.9,0c0,.511.064.7.128.447a2.112,2.112,0,0,0,0-.895c-.064-.256-.128-.064-.128.447m20.007.192c.128.128.7.639,1.278,1.087l1.023.895-.767-.831a7.692,7.692,0,0,0-1.278-1.087c-.256-.128-.384-.192-.256-.064m93.257.7c0,.575.064.767.128.447a2.745,2.745,0,0,0,0-1.023c-.064-.256-.128,0-.128.575m-59.38,2.685v2.812h-8.309V61.106h8.309v2.812m10.483,0v2.812h-8.182V61.106h8.182v2.812m10.738,0v2.812h-8.437V61.106h8.437v2.812M39.559,62.257a2.37,2.37,0,0,0,.256.895c.192.256.192.192.064-.384-.192-.959-.32-1.151-.32-.511m147.076,1.023c.32.639.575,1.087.639,1.023a5.8,5.8,0,0,0-1.087-2.173,3.27,3.27,0,0,0,.447,1.151m-65.772-.639c0,.192-.959.256-2.812.192a8.516,8.516,0,0,0-2.812.128,10.52,10.52,0,0,0,2.94.192c2.429,0,2.94-.064,2.94-.384,0-.192-.064-.384-.128-.384s-.128.128-.128.256m-11.953.32a6.412,6.412,0,0,1-.511,2.3,9.134,9.134,0,0,0-.511,1.981c.064.064.128-.064.128-.256,0-.32.064-.32.256,0,.192.256.192.192.128-.384-.128-.511-.064-.639.064-.384.32.447.639-.447.447-1.023a2.357,2.357,0,0,1,.128-1.087,1.207,1.207,0,0,0,0-1.151c-.256-.447-.256-.384-.128,0m-33.3.32a10.077,10.077,0,0,0,1.662,2.685c.064,0,.064-.128-.128-.32a13.727,13.727,0,0,1-.895-1.47c-.384-.639-.639-1.023-.639-.895m-6.392.511A7.764,7.764,0,0,0,70.24,66.6q.192.1,0-.384c-.384-.7-.384-1.342,0-.831.256.32.256.32.128-.064a5.353,5.353,0,0,1-.128-.639c0-.064-.128,0-.256.192-.192.256-.256.128-.128-.511s.064-.767-.064-.384l-.192.511-.128-.511c-.128-.192-.256-.32-.256-.192m-35.283.32a1.926,1.926,0,0,1-.192.767c-.128.384-.128.384.128.064s.256-.32.256,0c0,.192.064.32.128.256s0-.384-.128-.767c-.064-.384-.192-.511-.192-.32M203.7,65.325l-.895,1.023,1.023-.959a3.462,3.462,0,0,0,.895-1.023c-.064-.064-.511.384-1.023.959m-5.753.064c-.575.511-.767.767-.511.639.447-.256,1.918-1.6,1.662-1.6a9.951,9.951,0,0,0-1.151.959M187.466,65.2a3.51,3.51,0,0,1-.384,1.534c-.767,1.47-.639,1.726.128.32.639-1.214.767-1.918.384-2.173-.128-.128-.192,0-.128.32m-138.511.511c-1.023.7-1.214.895-.256.447.447-.256.895-.511.959-.7.192-.32.128-.32-.7.256M33.934,65.58a1.407,1.407,0,0,0,.384.767c.192.256.384.384.384.256s.192,0,.384.256c.32.384.32.256-.064-.447-.256-.575-.511-.831-.639-.7-.128.192-.192.192-.32-.064-.064-.192-.128-.192-.128-.064m69.543.064c0,.192-.256.511-.511.831-.256.256-.384.511-.256.511.32,0,1.151-1.278.959-1.47-.128-.064-.192,0-.192.128m89.742.447c-.447.959-.32,1.151.128.256.192-.384.32-.767.256-.831,0,0-.192.256-.384.575M71.135,67.178a9.7,9.7,0,0,0,1.6,1.918l1.151,1.087L72.733,68.9a22.584,22.584,0,0,1-1.6-1.918c-.384-.639-.384-.639,0,.192M218.595,69.8c0,1.918.064,2.685.064,1.726s.064-2.493,0-3.452-.064-.192-.064,1.726M45.248,66.923a2.112,2.112,0,0,0,.895,0c.256-.064.064-.128-.447-.128s-.7.064-.447.128m52.8.511a10.927,10.927,0,0,0,2.045,0c.511-.064,0-.128-1.087-.128-1.151,0-1.6.064-.959.128m94.28.7c-.575,1.278-.511,1.47.128.256a6.243,6.243,0,0,0,.447-1.087,2.192,2.192,0,0,0-.575.831m-74.209-.447,4.027.064.192.639c.064.384.192.575.256.511a1.111,1.111,0,0,0-.064-.767l-.192-.639-4.155.064-4.155.064,4.091.064m-11.25,2.045a1.774,1.774,0,0,1-.831.959c-.32.128-.511.256-.447.32.256.256,1.214-.511,1.47-1.087.128-.384.192-.7.128-.767-.064-.128-.192.192-.32.575m84.564.447c-.447.959-.32,1.151.128.256.192-.384.32-.767.256-.831,0,0-.192.256-.384.575m-68.521.128a5.671,5.671,0,0,0,.192.895c.128.32.192.384.192.128a5.672,5.672,0,0,0-.192-.895c-.064-.32-.192-.384-.192-.128m62.129.831c0,.384.32.447,3.132.384l3.132-.064-2.94-.064c-1.918-.064-3-.192-3.132-.384s-.192-.192-.192.128m-132.759.384a24.562,24.562,0,0,0,3.068,0c.831-.064.064-.064-1.6-.064-1.726,0-2.365,0-1.47.064m13.806,0a24.562,24.562,0,0,0,3.068,0c.831-.064.064-.064-1.6-.064-1.726,0-2.365,0-1.47.064m28,0c1.662.064,4.283.064,5.881,0s.192-.064-3-.064c-3.26,0-4.538,0-2.876.064m112.88,0,6.711.064.128.831c.128.831.128.831.128-.128l.064-.959-6.839.064-6.839.064,6.648.064M92.483,74.209c0,1.79,2.557,5.817,3.771,6.008.639.064.767.831.192.831-.959,0-.447,1.534.895,2.748.895.831,1.214,1.214.959,1.342a.926.926,0,0,1-1.47-.447c-.192-.511-.384-.639-1.278-.639H94.465l.128.895.128.895-1.342.256c-.7.128-2.621.511-4.155.767-6.2,1.151-5.817,1.023-5.05,1.918l.447.575,5.625-1.087c3.835-.767,5.817-1.023,6.2-.895a4.282,4.282,0,0,0,4.41-.831c.256-.32,1.79-.7,5.369-1.406,2.748-.511,10.738-2.045,17.769-3.388,25.631-4.858,34.132-6.52,34.26-6.52.256,0,.128-.639-.256-1.087-.32-.447-.7-.384-7.606.959-8.565,1.662-23.586,4.538-38.351,7.287l-10.61,2.045-1.342-1.214c-.831-.767-1.342-1.406-1.342-1.79,0-.32-.128-.575-.384-.575a.412.412,0,0,1-.384-.384c0-.256.256-.384.895-.384.511,0,.895-.064.895-.192a21.5,21.5,0,0,1,1.534-2.557c1.342-2.109,1.534-2.557,1.534-3.643V72.42H92.483v1.79m70.055,1.854c-1.47.32-16.171,3.26-32.662,6.52C111.148,86.29,99.9,88.655,99.9,88.847c0,1.406-1.79,1.662,33.749-5.369C168.61,76.51,167.332,76.83,166.884,76c-.383-.7-.895-.7-4.346.064m.384,3.707c-10.8,2.237-21.157,4.346-40.46,8.309-5.369,1.087-9.78,2.109-9.78,2.237.064,1.278.256,1.278,8.373-.384,4.219-.831,18.153-3.707,31.064-6.392,25.312-5.177,23.906-4.858,23.394-5.625-.447-.639-.32-.7-12.592,1.854" transform="translate(-12.072)" fill="#cc232b" fill-rule="evenodd"/>
  </g>
</svg>
