<svg xmlns="http://www.w3.org/2000/svg" width="282" height="58" viewBox="0 0 282 58">
  <g id="rakuten-affilate" transform="translate(-107 -12954)">
    <path id="_15896496061" data-name="15896496061" d="M29,0A29,29,0,1,0,58,29,28.992,28.992,0,0,0,29,0Zm6.743,44.559L28.478,34.51H25.419V44.559H19.488V13.442H29.725A10.364,10.364,0,0,1,39.962,23.969,10.284,10.284,0,0,1,34.7,33.06l8.236,11.484H35.743Zm-1.624-20.59a4.633,4.633,0,0,1-4.785,4.6H25.4v-9.28h3.929A4.707,4.707,0,0,1,34.119,23.969Z" transform="translate(107 12954)" fill="#c02229"/>
    <text id="Rakuten_Affilate" data-name="Rakuten Affilate" transform="translate(174 12972)" fill="#75787d" font-size="28" font-family="SegoeUI, Segoe UI"><tspan x="0" y="30">Rakuten Affilate</tspan></text>
  </g>
</svg>
