<svg xmlns="http://www.w3.org/2000/svg" width="306.118" height="70.652" viewBox="0 0 306.118 70.652">
  <g id="rozetka" transform="translate(0.001 0.003)">
    <g id="Сгруппировать_179" data-name="Сгруппировать 179" transform="translate(-0.001 -0.001)">
      <path id="Контур_252" data-name="Контур 252" d="M70.752,35.5A35.377,35.377,0,1,1,35.53,0,35.331,35.331,0,0,1,70.752,35.5" transform="translate(0.001 0.001)" fill="#221f1f"/>
      <path id="Контур_253" data-name="Контур 253" d="M20.394,28.92c1.2.274,2.533-1.2,2.978-3.286.445-2.054-.137-3.971-1.335-4.21-.822-.171-1.677.445-2.293,1.472a1.19,1.19,0,0,1-.787,2.225c-.24,1.917.342,3.56,1.438,3.8Zm-5.751-4.347c.958-5.134,3.936-8.866,6.641-8.352s4.108,5.1,3.149,10.235-3.936,8.866-6.641,8.352-4.108-5.1-3.149-10.235ZM61.436,28.92c-30.225,20.2-51,9.961-51,9.961C10.125,45.9,22.14,67.463,36.516,67.737c14.377.24,24.919-38.817,24.919-38.817ZM17.587,35.663c3.149.616,6.606-3.457,7.667-9.037s-.65-10.611-3.8-11.227-6.572,3.457-7.633,9.037c-1.1,5.579.616,10.611,3.765,11.227Zm10.851-2.875A24.974,24.974,0,0,1,32.1,29.4c6.23-4.792,13.076-5.99,15.267-2.67a5.761,5.761,0,0,1,.24,5.032c2.225-3.663,2.944-7.051,1.54-8.934-2.293-3.115-9.447-.993-15.951,4.792a34.872,34.872,0,0,0-4.758,5.169Zm6.949-15.3c5-3.389,13.589-5.237,18.176,1.814C50.79,3.077,38.81,12.421,35.387,17.487ZM71.671,37.272A34.436,34.436,0,0,1,2.8,36.964,33.209,33.209,0,0,1,14.78,11.052c7.154-5.819,12.015-1.335,13.726,2.02a27.458,27.458,0,0,0-2.4-8.523,34.43,34.43,0,0,1,45.56,32.724ZM49.935,54.627C46.2,61.336,41.548,66.813,36.345,66.71a17.333,17.333,0,0,1-9.139-3.183c.993-1.677,6.606-9.858,22.729-8.9" transform="translate(-1.841 -1.775)" fill="#05bc52"/>
    </g>
    <g id="Сгруппировать_180" data-name="Сгруппировать 180" transform="translate(93.823 23.07)">
      <path id="Контур_254" data-name="Контур 254" d="M811.931,83.34l3.628-8.8,3.628,8.831h-7.257Zm8.9-14.24H810.322L799.3,92.719h8.8l1.917-4.621H821.1l1.883,4.621h8.831L820.831,69.1Z" transform="translate(-619.525 -68.518)" fill="#221f1f"/>
      <path id="Контур_255" data-name="Контур 255" d="M626.9,75.159h9.79V92.684h8.044V75.159h9.79V69.1H626.9Z" transform="translate(-506.137 -68.518)" fill="#221f1f"/>
      <path id="Контур_256" data-name="Контур 256" d="M557.1,83.237h13.829V78.513H557.1V75.056H573.3V69.1h-24V92.684h24.577V86.865H557.1Z" transform="translate(-455.099 -68.518)" fill="#221f1f"/>
      <path id="Контур_257" data-name="Контур 257" d="M488.789,73.31V69.1H462.705v6.059H476.74L462.5,88.508v4.176h26.357V86.626H474.72Z" transform="translate(-398.011 -68.518)" fill="#221f1f"/>
      <path id="Контур_258" data-name="Контур 258" d="M377.538,86.021c-5.134,0-8.284-1.746-8.284-6.23s3.115-6.2,8.284-6.2c5.1,0,8.318,1.711,8.318,6.2s-3.218,6.23-8.318,6.23Zm0-18.621c-10.3,0-16.738,3.971-16.738,12.391,0,8.386,6.435,12.425,16.738,12.425,10.337,0,16.773-4,16.773-12.425S387.876,67.4,377.538,67.4Z" transform="translate(-331.123 -67.4)" fill="#221f1f"/>
      <path id="Контур_259" data-name="Контур 259" d="M282.076,74.579h7.8c2.43,0,3.355,1.3,3.355,2.978a3.138,3.138,0,0,1-3.491,3.149h-7.668V74.579Zm19.306,2.978c0-5-3.183-8.557-10.817-8.557H274.1V92.619h7.941V85.944h5.134l5.716,6.675h9.927l-6.641-7.667a8.257,8.257,0,0,0,5.2-7.394Z" transform="translate(-274.1 -68.452)" fill="#221f1f"/>
      <path id="Контур_260" data-name="Контур 260" d="M733.731,69.1l-9.79,8.626V69.1H716V92.684h7.941v-6.5l3.012-2.533,6.812,9.037h9.892L732.7,78.753l11.33-9.653Z" transform="translate(-564.738 -68.518)" fill="#221f1f"/>
    </g>
  </g>
</svg>
