<svg xmlns="http://www.w3.org/2000/svg" width="248" height="36.657" viewBox="0 0 248 36.657">
  <g id="sendpulse" transform="translate(0.003)">
    <path id="Контур_215" data-name="Контур 215" d="M843.979,428.77c1.591.013,3.179,0,4.773.021q1.138,9.7,2.307,19.4c1.7-.021,3.412,0,5.119,0a4.717,4.717,0,0,1,6.576-1.7,4.64,4.64,0,0,1,.675,7.3,4.7,4.7,0,0,1-7.277-1.182h-9.33c-.432-3.259-.931-6.511-1.366-9.77-2.046,7.5-4,15.055-5.983,22.585h-4.594c-1.1-4.566-2.152-9.142-3.246-13.71-2.069-.018-4.118,0-6.177,0-.016-1.472,0-2.944-.016-4.4H835.6c.548,2.421,1.128,4.832,1.689,7.243C839.553,445.951,841.729,437.366,843.979,428.77Z" transform="translate(-616.906 -428.77)" fill="#199fbf"/>
    <path id="Контур_216" data-name="Контур 216" d="M322.841,435.544c1.9-.021,3.792,0,5.691,0V466.45h-5.621c0-.215.016-.639.021-.854-2.527,1.384-5.512,1.389-8.309,1.2-2.069-.2-4.374-.7-5.691-2.457a8.528,8.528,0,0,1-1.345-5.031c0-3.267-.018-6.537,0-9.809a6.2,6.2,0,0,1,2.346-5.065,10.3,10.3,0,0,1,4.915-1.477,17.1,17.1,0,0,1,8.037,1.009c-.1-2.8-.034-5.611-.049-8.415m-8.73,12.181a1.219,1.219,0,0,0-.861,1.355c-.031,3.621,0,7.22-.016,10.828a2.313,2.313,0,0,0,.561,1.71,5.72,5.72,0,0,0,2.926.724,13.714,13.714,0,0,0,4.78-.46,1.826,1.826,0,0,0,1.332-1.666c.026-3.606,0-7.209,0-10.815.083-.988-.962-1.474-1.769-1.671A18.022,18.022,0,0,0,314.106,447.735Z" transform="translate(-233.004 -433.785)" fill="#199fbf"/>
    <path id="Контур_217" data-name="Контур 217" d="M602.845,435.53h5.691v30.9h-5.691C602.843,456.134,602.819,445.833,602.845,435.53Z" transform="translate(-451.883 -433.781)" fill="#199fbf"/>
    <path id="Контур_218" data-name="Контур 218" d="M26.658,436a51.831,51.831,0,0,1,12.753.313c-.021,1.679,0,3.363,0,5.034-3.958-.592-8-1.28-11.995-.647-.965.129-2.069.613-2.2,1.707-.124,1.436-.059,2.889-.041,4.333-.021,1.035,1.089,1.438,1.943,1.536,3.474.388,7.176-.453,10.474,1.019,2.219.993,3.086,3.554,3.174,5.82.07,2.928.3,6.188-1.526,8.684-1.837,2.328-5,2.936-7.8,3.156a57.241,57.241,0,0,1-11.578-.776c-.016-1.811,0-3.622,0-5.432A41.418,41.418,0,0,0,31.144,462a6.867,6.867,0,0,0,3.275-.89c.75-.9.445-2.163.517-3.236-.083-1.275.259-2.721-.517-3.844-1.389-.967-3.213-.66-4.814-.722-2.778.013-5.95.142-8.187-1.811-1.9-1.738-2.212-4.5-2.121-6.94-.083-2.054.054-4.351,1.531-5.95C22.235,436.868,24.54,436.312,26.658,436Z" transform="translate(-19.28 -433.924)" fill="#199fbf"/>
    <path id="Контур_219" data-name="Контур 219" d="M409.09,437.449c4.222.039,8.446-.062,12.675.054,2.408.2,5.174.481,6.845,2.46A6.368,6.368,0,0,1,430,443.807c.031,2.24.016,4.483,0,6.726a6.154,6.154,0,0,1-3.332,5.432c-3.58,1.811-7.716,1.552-11.607,1.552v10.347H409.09V437.449m5.926,4.457c.013,3.722-.021,7.447.018,11.167,2.6-.171,5.432.466,7.817-.864a2.433,2.433,0,0,0,1.262-2.328v-5.6a1.958,1.958,0,0,0-1.446-1.917C420.19,441.613,417.564,442,415.016,441.906Z" transform="translate(-308.257 -435.201)" fill="#199fbf"/>
    <path id="Контур_220" data-name="Контур 220" d="M121.559,465.769c2.2-1.645,5.075-1.883,7.734-1.919,2.468.049,5.13.285,7.176,1.811,1.725,1.306,2.341,3.547,2.419,5.618.023,2.142,0,4.286,0,6.428H124.795c.065,1.676-.491,4.154,1.518,4.915,3.826,1.345,7.978.259,11.772-.706-.016,1.632,0,3.262,0,4.894a33.444,33.444,0,0,1-11.286.905c-2.2-.277-4.524-.918-6.069-2.61a6.667,6.667,0,0,1-1.666-4.8c.013-2.9,0-5.8,0-8.7a7.389,7.389,0,0,1,2.483-5.828m4.452,2.9c-1.873.693-1.017,3.1-1.208,4.625h8.441c-.189-1.49.579-3.647-.991-4.573a10.911,10.911,0,0,0-6.232-.054Z" transform="translate(-93.254 -454.776)" fill="#199fbf"/>
    <path id="Контур_221" data-name="Контур 221" d="M219.374,465.085a14.323,14.323,0,0,1,7.685-1.154c1.883.176,3.991.623,5.174,2.238a8.043,8.043,0,0,1,1.387,5.174v16.1h-5.691V470.646a1.883,1.883,0,0,0-1.526-1.974,13.709,13.709,0,0,0-5.618.142,1.832,1.832,0,0,0-1.363,1.927c-.026,5.569,0,11.136,0,16.708H213.73V464.324h5.712C219.426,464.513,219.4,464.9,219.374,465.085Z" transform="translate(-163.432 -454.787)" fill="#199fbf"/>
    <path id="Контур_222" data-name="Контур 222" d="M645.943,464.806c4.426-1.526,9.168-.717,13.733-.5-.016,1.586,0,3.169-.013,4.752a33.706,33.706,0,0,0-10.031-.636c-.9.065-2.031.577-1.855,1.663.111.918-.427,2.328.706,2.758,2.191.683,4.532.085,6.772.453,1.865.259,3.865,1.084,4.773,2.845.9,1.568.66,3.435.68,5.161a5.764,5.764,0,0,1-2.587,5.034c-2.548,1.48-5.6,1.617-8.477,1.552a52.947,52.947,0,0,1-7.1-.639v-4.822c3.823.466,7.76,1.552,11.586.605,1.257-.279.929-1.751.973-2.7.041-.856.041-2.069-1.061-2.235-3.228-.574-6.958.486-9.765-1.694-2.1-1.48-2.313-4.245-2.157-6.591A5.24,5.24,0,0,1,645.943,464.806Z" transform="translate(-480.981 -454.811)" fill="#199fbf"/>
    <path id="Контур_223" data-name="Контур 223" d="M730.723,467.411c1.415-2.455,4.416-3.228,7.049-3.43,2.954-.189,6.159-.181,8.8,1.381,1.963,1.141,2.776,3.495,2.877,5.655.06,2.243,0,4.488.028,6.726-4.7-.021-9.4,0-14.1-.013.041,1.71-.455,4.2,1.6,4.951,3.818,1.293,7.918.222,11.692-.735-.016,1.63,0,3.257,0,4.886a31.585,31.585,0,0,1-12.378.74c-2.3-.4-4.721-1.487-5.846-3.658-1.231-2.344-.667-5.075-.794-7.61.119-2.97-.481-6.208,1.092-8.9m5.3,1.552c-1.12,1.151-.517,2.936-.634,4.374,2.8-.023,5.608,0,8.412,0a15.555,15.555,0,0,0-.2-3.787c-.5-.973-1.751-1.073-2.719-1.187a9.424,9.424,0,0,0-4.874.611Z" transform="translate(-545.876 -454.81)" fill="#199fbf"/>
    <path id="Контур_224" data-name="Контур 224" d="M507.3,465.6h5.691V482.2a1.991,1.991,0,0,0,1.1,2.036,14.013,14.013,0,0,0,5.559.124c.812-.124,1.857-.517,1.847-1.5.041-5.756,0-11.514.023-17.272h5.691q-.015,11.56,0,23.121h-5.691v-.776c-2.253,1.257-4.915,1.293-7.432,1.174a7.9,7.9,0,0,1-4.9-1.689,7.023,7.023,0,0,1-1.886-5.174C507.291,476.69,507.3,471.144,507.3,465.6Z" transform="translate(-381.058 -456.066)" fill="#199fbf"/>
  </g>
</svg>
