<svg id="stylight" xmlns="http://www.w3.org/2000/svg" width="168.877" height="51.405" viewBox="0 0 168.877 51.405">
  <path id="Контур_225" data-name="Контур 225" d="M55.137,38.221h7.529V0L55.137,1.873Z" transform="translate(15.721)" fill="#010101"/>
  <path id="Контур_226" data-name="Контур 226" d="M72.421,10.231H64.892V35.3h7.529Z" transform="translate(18.502 2.917)" fill="#010101"/>
  <path id="Контур_227" data-name="Контур 227" d="M68.783,9.743a4.395,4.395,0,1,0-4.395-4.395A4.395,4.395,0,0,0,68.783,9.743Z" transform="translate(18.359 0.272)" fill="#010101"/>
  <path id="Контур_228" data-name="Контур 228" d="M95.165,14.756v-9.4L86.2,10.074Z" transform="translate(24.576 1.527)" fill="#010101"/>
  <path id="Контур_229" data-name="Контур 229" d="M95.642,38.276h7.493V.056L95.642,1.929Z" transform="translate(27.27 0.016)" fill="#010101"/>
  <path id="Контур_230" data-name="Контур 230" d="M110.522,9.559c-6.735,0-7.924,4.035-8.321,4.863v.792a6,6,0,0,1,4.719-2.233c3.494,0,4.4,2.414,4.4,4.395V35.531h7.528V17.988C118.807,16.007,118.556,9.559,110.522,9.559Z" transform="translate(29.14 2.725)" fill="#010101"/>
  <path id="Контур_231" data-name="Контур 231" d="M135.233,32.939s-3.891,2.882-6.557.324c-1.009-.973-1.333-2.99-1.333-4.755V12.838h7.528l-.432-.937h-7.1V4.373l-7.53,1.873V11.9h-3.458l.433.937h3.025V29.445c0,3.242.829,8.141,7.566,8.141,6.7,0,8.321-4.179,8.321-4.179Z" transform="translate(33.176 1.247)" fill="#010101"/>
  <path id="Контур_232" data-name="Контур 232" d="M31.569,33.264c-1.009-.973-1.333-2.99-1.333-4.755V12.838h6.736L36.54,11.9h-6.3V4.373L22.707,6.246V11.9H19.285l.432.937h2.99V29.445c0,3.242.829,8.141,7.565,8.141,6.7,0,8.321-4.179,8.321-4.179l-.432-.468C38.125,32.939,34.235,35.821,31.569,33.264Z" transform="translate(5.499 1.247)" fill="#010101"/>
  <path id="Контур_233" data-name="Контур 233" d="M84.8,27.306c5.872,0,10.663-3.927,10.663-8.79S90.712,9.727,84.8,9.727c-5.872,0-10.663,3.926-10.663,8.79S78.933,27.306,84.8,27.306ZM82.319,13.293a2.5,2.5,0,0,1,4.971,0,36.888,36.888,0,0,1,.252,5.259,36.887,36.887,0,0,1-.252,5.259,2.5,2.5,0,0,1-4.971,0,36.867,36.867,0,0,1-.252-5.259A36.578,36.578,0,0,1,82.319,13.293Z" transform="translate(21.14 2.773)" fill="#010101"/>
  <path id="Контур_234" data-name="Контур 234" d="M90.536,27.408H78.972a2.183,2.183,0,0,1-2.2-2.2A2.918,2.918,0,0,1,78.5,22.833l-.5-.324a6.714,6.714,0,0,0-4.035,6.016,6.312,6.312,0,0,0,2.341,4.935c-2.2,1.189-3.566,2.954-3.566,4.935,0,3.53,4.107,6.592,12.788,6.592,10.05,0,13.509-4.143,13.509-9.078A8.564,8.564,0,0,0,90.536,27.408ZM86.1,44.051c-3.818,0-8.429-1.621-8.429-5.367a5.991,5.991,0,0,1,1.369-3.854,7.943,7.943,0,0,0,1.333.144H90.86a3.744,3.744,0,0,1,3.747,3.746C94.606,43.654,87.582,44.051,86.1,44.051Z" transform="translate(20.74 6.418)" fill="#010101"/>
  <path id="Контур_235" data-name="Контур 235" d="M33.693,10.231,45.581,36.42l4.9-9.33L42.447,10.231Z" transform="translate(9.607 2.917)" fill="#010101"/>
  <path id="Контур_236" data-name="Контур 236" d="M51.045,19.2l4.719-8.97h-9.4Z" transform="translate(13.219 2.917)" fill="#010101"/>
  <path id="Контур_237" data-name="Контур 237" d="M39.041,40.969a4.395,4.395,0,1,0-4.395-4.395A4.395,4.395,0,0,0,39.041,40.969Z" transform="translate(9.879 9.175)" fill="#010101"/>
  <path id="Контур_238" data-name="Контур 238" d="M.477,31.879h8.79L.477,24.387Z" transform="translate(0.136 6.953)" fill="#010101"/>
  <path id="Контур_239" data-name="Контур 239" d="M20.965,20.578,8.97,9.339A4.574,4.574,0,0,1,7.493,6.133,4.775,4.775,0,0,1,12.5,1.594h.324V.981H11.275C5.043.981,0,5.16,0,10.347a8.271,8.271,0,0,0,2.522,5.872s12,11.239,12.032,11.311a6.208,6.208,0,0,1,1.729,4.395,5.769,5.769,0,0,1-5.475,6.016h-.468v.612h1.873c6.736,0,12.212-4.755,12.212-10.591A9.981,9.981,0,0,0,20.965,20.578Z" transform="translate(0 0.28)" fill="#010101"/>
  <path id="Контур_240" data-name="Контур 240" d="M19.49.981H10.736L19.49,8.474Z" transform="translate(3.061 0.28)" fill="#010101"/>
</svg>
