<svg xmlns="http://www.w3.org/2000/svg" width="342" height="111.192" viewBox="0 0 342 111.192">
  <g id="stylius" transform="translate(-1025 -14436)">
    <g id="stylius-2" data-name="stylius" transform="translate(885 14388)">
      <path id="Контур_269" data-name="Контур 269" d="M194.642,154.348A47.957,47.957,0,0,1,151.98,128.48l-.795-1.539.795-1.539a41.419,41.419,0,0,0,0-38.417l-.795-1.539.795-1.539a48.1,48.1,0,0,1,85.324.027l.8,1.539-.8,1.539a41.431,41.431,0,0,0,0,38.417l.8,1.539-.8,1.539A48.04,48.04,0,0,1,194.642,154.348Z" transform="translate(5.397 4.845)" fill="#10d8b1"/>
      <path id="Контур_270" data-name="Контур 270" d="M233.178,84.385a44.829,44.829,0,0,0-79.488,0,44.8,44.8,0,0,1,0,41.495,44.83,44.83,0,0,0,79.488,0,44.8,44.8,0,0,1,0-41.495Z" transform="translate(6.606 5.933)" fill="#fff"/>
      <path id="Контур_271" data-name="Контур 271" d="M192.224,145.574A41.479,41.479,0,0,1,156.2,124.72a48.068,48.068,0,0,0,0-41.335,41.552,41.552,0,0,1,72.06,0,48.067,48.067,0,0,0,0,41.335A41.459,41.459,0,0,1,192.224,145.574Z" transform="translate(7.815 7.012)" fill="#cfd9dc"/>
      <path id="Контур_272" data-name="Контур 272" d="M165.877,107.7h2.759a1.859,1.859,0,0,1,1.99,1.91,1.84,1.84,0,0,1-1.99,1.884h-1.512v2.122h-1.247V107.7Zm2.574,1.06h-1.327v1.619h1.327a.808.808,0,0,0,.875-.823A.818.818,0,0,0,168.451,108.76Z" transform="translate(12.487 28.809)" fill="#555"/>
      <path id="Контур_273" data-name="Контур 273" d="M173.709,112.581h-2.627l-.371,1.008h-1.38l2.282-5.889h1.566l2.282,5.889h-1.38Zm-2.308-1.087h1.963l-.981-2.707Z" transform="translate(14.154 28.809)" fill="#555"/>
      <path id="Контур_274" data-name="Контур 274" d="M176.607,111.467h-.93v2.122h-1.247V107.7h2.759a1.845,1.845,0,0,1,1.99,1.91,1.713,1.713,0,0,1-1.3,1.751l1.325,2.255h-1.432Zm.4-2.707h-1.327v1.619H177a.812.812,0,1,0,0-1.619Z" transform="translate(16.615 28.809)" fill="#555"/>
      <path id="Контур_275" data-name="Контур 275" d="M180.271,108.8h-1.724v-1.115h4.7V108.8h-1.724v4.8h-1.273v-4.8Z" transform="translate(18.601 28.8)" fill="#555"/>
      <path id="Контур_276" data-name="Контур 276" d="M184.125,109.636v3.952h-1.248V107.7h1.3l2.734,3.819V107.7h1.247v5.889h-1.222Z" transform="translate(20.691 28.809)" fill="#555"/>
      <path id="Контур_277" data-name="Контур 277" d="M187.817,107.7h4.166v1.087h-2.919v1.274h2.866v1.088h-2.866v1.38h2.919v1.087h-4.166Z" transform="translate(23.075 28.809)" fill="#555"/>
      <path id="Контур_278" data-name="Контур 278" d="M194.054,111.467h-.928v2.122h-1.247V107.7h2.759a1.845,1.845,0,0,1,1.99,1.91,1.712,1.712,0,0,1-1.3,1.751l1.327,2.255h-1.432Zm.4-2.707h-1.327v1.619h1.327a.808.808,0,0,0,.875-.823A.789.789,0,0,0,194.453,108.76Z" transform="translate(25.035 28.809)" fill="#555"/>
      <path id="Контур_279" data-name="Контур 279" d="M257.957,88.551a615.141,615.141,0,0,1-69.909,2.627q-23-.438-45.979-2.627,3.463,5.81,7.084,11.621-4.5,5.134-9.153,10.188,23.76,2.228,47.6,2.707a634.722,634.722,0,0,0,72.4-2.707c-3.1-3.368-6.127-6.765-9.153-10.188Q254.509,94.4,257.957,88.551Z" transform="translate(0 19.568)" fill="#808184"/>
      <path id="Контур_280" data-name="Контур 280" d="M149.98,93.777c1.22.08,2.44.186,3.634.265a2.433,2.433,0,0,1,2.468,2.653,2.4,2.4,0,0,1-2.786,2.282c-.664-.053-1.327-.08-1.991-.133-.052.929-.132,1.831-.185,2.759-.557-.027-1.113-.08-1.671-.133C149.608,98.9,149.793,96.35,149.98,93.777Zm3.316,1.645c-.584-.053-1.168-.08-1.778-.133-.053.716-.107,1.406-.16,2.122.584.053,1.195.08,1.778.133a1.06,1.06,0,0,0,1.22-.982A1.034,1.034,0,0,0,153.3,95.422Z" transform="translate(4.56 22.09)" fill="#fff"/>
      <path id="Контур_281" data-name="Контур 281" d="M157.868,99.237l-1.22-.08-.159,2.759c-.557-.027-1.115-.053-1.672-.106.16-2.574.319-5.147.479-7.694,1.22.08,2.44.133,3.66.212a2.424,2.424,0,0,1,2.494,2.627,2.251,2.251,0,0,1-1.831,2.2c.531,1.008,1.088,2.016,1.619,3.025-.636-.027-1.3-.053-1.936-.106C158.8,101.148,158.32,100.192,157.868,99.237Zm.718-3.5c-.584-.027-1.168-.053-1.752-.106-.052.716-.079,1.406-.132,2.123.584.027,1.167.08,1.751.106a1.067,1.067,0,0,0,1.22-1.008A1.049,1.049,0,0,0,158.586,95.735Z" transform="translate(7.15 22.254)" fill="#fff"/>
      <path id="Контур_282" data-name="Контур 282" d="M164.469,94.459a3.938,3.938,0,0,1,3.952,4.139,4.1,4.1,0,1,1-3.952-4.139Zm-.08,1.459a2.382,2.382,0,0,0-2.494,2.441,2.394,2.394,0,1,0,4.775.186A2.326,2.326,0,0,0,164.389,95.918Z" transform="translate(9.756 22.417)" fill="#fff"/>
      <path id="Контур_283" data-name="Контур 283" d="M167.091,94.689l5.518.159c0,.478-.027.929-.027,1.406-1.3-.027-2.574-.053-3.874-.106-.027.557-.027,1.114-.053,1.672,1.274.027,2.522.079,3.8.106,0,.478-.027.929-.027,1.406-1.274-.027-2.547-.053-3.821-.106-.027,1.061-.053,2.149-.107,3.21-.557-.027-1.115-.027-1.671-.053C166.931,99.81,167.011,97.237,167.091,94.689Z" transform="translate(12.945 22.531)" fill="#fff"/>
      <path id="Контур_284" data-name="Контур 284" d="M171.977,94.815c1.831.027,3.687.08,5.518.08,0,.478,0,.929-.027,1.406-1.3-.027-2.574-.027-3.874-.053,0,.557-.025,1.114-.025,1.671,1.274.027,2.547.053,3.794.053,0,.478,0,.929-.027,1.406-1.274-.027-2.547-.027-3.821-.053,0,.61-.027,1.194-.027,1.8,1.3.027,2.6.053,3.9.053,0,.478,0,.955-.027,1.432l-5.6-.08C171.87,99.962,171.924,97.388,171.977,94.815Z" transform="translate(15.329 22.591)" fill="#fff"/>
      <path id="Контур_285" data-name="Контур 285" d="M177.436,100.307a3.408,3.408,0,0,0,2.494,1.061c.928,0,1.379-.424,1.379-.875,0-.584-.689-.769-1.591-.982-1.273-.292-2.946-.663-2.919-2.388,0-1.274,1.142-2.308,2.971-2.308A4.331,4.331,0,0,1,182.82,95.9c-.317.4-.609.8-.928,1.194a3.355,3.355,0,0,0-2.228-.849c-.743,0-1.142.318-1.167.769,0,.531.663.69,1.564.9,1.3.292,2.946.663,2.946,2.388,0,1.406-1.035,2.468-3.158,2.468a4.541,4.541,0,0,1-3.343-1.248C176.825,101.129,177.117,100.7,177.436,100.307Z" transform="translate(17.616 22.591)" fill="#fff"/>
      <path id="Контур_286" data-name="Контур 286" d="M182.609,100.307a3.564,3.564,0,0,0,2.52,1.035c.928,0,1.379-.451,1.352-.875,0-.584-.689-.769-1.591-.982-1.3-.292-2.946-.61-2.946-2.335,0-1.274,1.115-2.335,2.946-2.335a4.429,4.429,0,0,1,3.051,1.035c-.292.4-.611.822-.9,1.22a3.343,3.343,0,0,0-2.255-.823c-.743,0-1.142.345-1.142.8,0,.531.664.69,1.566.875,1.3.265,2.946.637,2.973,2.361.025,1.406-1.008,2.495-3.131,2.52a4.642,4.642,0,0,1-3.37-1.22C182,101.156,182.316,100.731,182.609,100.307Z" transform="translate(20.113 22.591)" fill="#fff"/>
      <path id="Контур_287" data-name="Контур 287" d="M187.173,94.859c.557,0,1.113-.027,1.671-.027.053,2.573.107,5.147.133,7.72-.557,0-1.115.027-1.672.027C187.253,100.006,187.2,97.433,187.173,94.859Z" transform="translate(22.764 22.6)" fill="#fff"/>
      <path id="Контур_288" data-name="Контур 288" d="M193.524,94.654a3.93,3.93,0,0,1,4.218,3.874,4.115,4.115,0,0,1-8.225.212A3.94,3.94,0,0,1,193.524,94.654Zm.052,1.459a2.37,2.37,0,0,0-2.308,2.6,2.381,2.381,0,1,0,2.308-2.6Z" transform="translate(23.895 22.513)" fill="#fff"/>
      <path id="Контур_289" data-name="Контур 289" d="M197.925,97.171c.08,1.725.133,3.449.213,5.174-.557.027-1.115.053-1.672.053-.105-2.574-.185-5.147-.292-7.721.557-.027,1.142-.053,1.7-.053,1.274,1.618,2.547,3.237,3.846,4.829-.079-1.671-.159-3.316-.239-4.988l1.672-.079c.132,2.573.239,5.147.371,7.72l-1.617.08C200.552,100.54,199.225,98.842,197.925,97.171Z" transform="translate(27.107 22.384)" fill="#fff"/>
      <path id="Контур_290" data-name="Контур 290" d="M207.8,100.5c-1.167.08-2.334.133-3.528.212-.132.451-.292.9-.424,1.353-.611.027-1.22.053-1.858.106q1.314-3.94,2.627-7.88c.689-.027,1.379-.08,2.07-.106,1.14,2.52,2.308,5.014,3.5,7.508-.611.027-1.22.08-1.831.106A10.961,10.961,0,0,0,207.8,100.5Zm-3.13-1.247,2.6-.159c-.5-1.141-1.008-2.308-1.512-3.449C205.413,96.841,205.041,98.062,204.67,99.256Z" transform="translate(29.914 22.289)" fill="#fff"/>
      <path id="Контур_291" data-name="Контур 291" d="M208.092,94.026c.557-.027,1.115-.08,1.672-.106.132,2.1.292,4.165.424,6.261l3.343-.239c.027.478.08.955.105,1.433-1.671.133-3.342.239-5.014.345C208.437,99.147,208.252,96.6,208.092,94.026Z" transform="translate(32.859 22.159)" fill="#fff"/>
      <path id="Контур_292" data-name="Контур 292" d="M172.176,64.929l8.571,17.139,15.812.027,3.821-5.386Z" transform="translate(15.527 8.169)" fill="#10d8b1"/>
      <path id="Контур_293" data-name="Контур 293" d="M168.168,66.2l11.515,15.813,18.811.027,3.821-5.916Z" transform="translate(13.593 8.783)" fill="#34b196"/>
      <path id="Контур_294" data-name="Контур 294" d="M177.473,55.315l5.6,4.351,5.067-9.737-1.724-1.088Z" transform="translate(18.083 0.406)" fill="#34b196"/>
      <path id="Контур_295" data-name="Контур 295" d="M194,89.155l-16.529-35.1,3.5-2.6,19.263,28.07Z" transform="translate(18.083 1.667)" fill="#10d8b1"/>
      <path id="Контур_296" data-name="Контур 296" d="M182.43,50.388l10.772,8.7L185.641,48Z" transform="translate(20.475)" fill="#10d8b1"/>
      <path id="Контур_297" data-name="Контур 297" d="M169.859,82.33c0-.716.636-1.274,1.671-1.274.769,0,1.486.371,1.486.875v.451h1.247v-.8c0-1.3-1.7-1.751-2.706-1.751-1.8,0-3.051,1.114-3.051,2.547,0,2.972,4.617,2.653,4.617,4.669a1.5,1.5,0,0,1-1.646,1.433,3.421,3.421,0,0,1-2.387-1.141l-.8.955a4.261,4.261,0,0,0,3.158,1.433,2.772,2.772,0,0,0,3.024-2.706C174.449,83.816,169.859,84.267,169.859,82.33Z" transform="translate(13.653 15.363)" fill="#1d1e1c"/>
      <path id="Контур_298" data-name="Контур 298" d="M178.215,82.45,176.782,86.3a7.162,7.162,0,0,0-.239.822h-.025a6.988,6.988,0,0,0-.24-.822l-1.564-3.847a.878.878,0,0,0-.981-.69h-.744v1.114h.16a.38.38,0,0,1,.424.265l2.335,5.412-.319.743c-.265.61-.663.982-1.193.982a1.51,1.51,0,0,1-1.008-.478l-.531.955a2.265,2.265,0,0,0,1.619.663,2.342,2.342,0,0,0,2.2-1.618l2.706-6.686a.4.4,0,0,1,.426-.265h.185V81.733h-.8A.938.938,0,0,0,178.215,82.45Z" transform="translate(15.855 16.278)" fill="#1d1e1c"/>
      <path id="Контур_299" data-name="Контур 299" d="M180.15,88.071V80.8c0-.61-.265-.875-.876-.875h-1.3V81.04h.556a.265.265,0,0,1,.292.292V88.6c0,.61.265.876.876.876H181V88.362h-.557A.266.266,0,0,1,180.15,88.071Z" transform="translate(18.325 15.406)" fill="#1d1e1c"/>
      <path id="Контур_300" data-name="Контур 300" d="M182.9,87.19V82.627c0-.61-.265-.876-.876-.876h-1.273v1.114h.557a.266.266,0,0,1,.292.292v4.563c0,.61.265.875.875.875h1.274V87.482h-.557A.265.265,0,0,1,182.9,87.19Z" transform="translate(19.663 16.287)" fill="#1d1e1c"/>
      <path id="Контур_301" data-name="Контур 301" d="M182.506,79.926h-1.168v1.353h1.168Z" transform="translate(19.948 15.406)" fill="#1d1e1c"/>
      <path id="Контур_302" data-name="Контур 302" d="M190.295,87.181V81.769h-1.3v3.21a2.347,2.347,0,0,1-2.228,2.573c-1.088,0-1.273-.769-1.273-1.7V82.618c0-.584-.265-.849-.876-.849h-1.274v1.114h.557a.266.266,0,0,1,.292.292v2.972c0,1.8.8,2.626,2.335,2.626a2.781,2.781,0,0,0,2.52-1.565h.027a3.144,3.144,0,0,0-.027.4v.265c0,.478.292.769.875.769h1.247V87.526h-.556C190.4,87.473,190.295,87.367,190.295,87.181Z" transform="translate(20.916 16.296)" fill="#1d1e1c"/>
      <path id="Контур_303" data-name="Контур 303" d="M190.689,83.5c0-.531.5-.823,1.273-.823.424,0,1.035.186,1.035.584v.345h1.167V82.97c0-1.035-1.432-1.327-2.255-1.327-1.405,0-2.547.61-2.547,1.91,0,2.2,3.741,2.069,3.741,3.29,0,.584-.557.875-1.193.875a2.937,2.937,0,0,1-2.07-1.008l-.663.876a3.517,3.517,0,0,0,2.732,1.194c1.432,0,2.52-.8,2.52-1.99C194.43,84.536,190.689,84.8,190.689,83.5Z" transform="translate(23.731 16.235)" fill="#1d1e1c"/>
    </g>
    <text id="Stylius-3" data-name="Stylius" transform="translate(1152 14482)" fill="#75787d" font-size="28" font-family="SegoeUI, Segoe UI"><tspan x="0" y="30">Stylius</tspan></text>
  </g>
</svg>
