<svg xmlns="http://www.w3.org/2000/svg" width="257.177" height="89.992" viewBox="0 0 257.177 89.992">
  <g id="vue" transform="translate(-101.331 -58)">
    <path id="Контур_261" data-name="Контур 261" d="M111.342,99.949a1.6,1.6,0,0,0-.771.21.93.93,0,0,0-.421.7.527.527,0,0,0,.07.28v-.07l4.482,14.564a1.123,1.123,0,0,0,.489.63,1.428,1.428,0,0,0,1.891-.63L121.564,101v-.209a.824.824,0,0,0-.419-.7,3,3,0,0,0-.771-.14.825.825,0,0,0-.841.631l-3.641,12.113-3.641-12.044a.893.893,0,0,0-.35-.489A1.819,1.819,0,0,0,111.342,99.949Zm35.709.7a1.317,1.317,0,0,0-1.33,1.262,1.272,1.272,0,0,0,1.33,1.26,1.255,1.255,0,0,0,1.26-1.26A1.214,1.214,0,0,0,147.051,100.648Zm-10.5,4.691a4.429,4.429,0,0,0-4.482,4.272v2.381a4.082,4.082,0,0,0,1.4,3.22,5.354,5.354,0,0,0,3.57,1.191,5.169,5.169,0,0,0,2.521-.561,1.91,1.91,0,0,0,.7-.56.977.977,0,0,0,.35-.7.683.683,0,0,0-.28-.63.861.861,0,0,0-.7-.35.8.8,0,0,0-.561.209,2.9,2.9,0,0,1-.489.28,2.762,2.762,0,0,1-1.541.35,3.145,3.145,0,0,1-2.1-.7,2.169,2.169,0,0,1-.771-1.749v-.421h4.482a2.763,2.763,0,0,0,1.469-.28,1.91,1.91,0,0,0,.771-1.751A4.244,4.244,0,0,0,136.548,105.339Zm16.943,0a3.857,3.857,0,0,0-2.87,1.05,3.181,3.181,0,0,0-.91,2.242,2.522,2.522,0,0,0,.98,2.1,6.3,6.3,0,0,0,1.96.911,7.135,7.135,0,0,1,1.751.63,1.227,1.227,0,0,1,.63,1.19.822.822,0,0,1-.35.771,2.357,2.357,0,0,1-1.471.35,3.149,3.149,0,0,1-1.751-.421,2.848,2.848,0,0,1-.489-.35.8.8,0,0,0-.56-.209.942.942,0,0,0-.632.35,1.035,1.035,0,0,0,.141,1.4,3.137,3.137,0,0,0,.771.56,5.463,5.463,0,0,0,2.59.56,4.448,4.448,0,0,0,2.8-.839,2.8,2.8,0,0,0,1.05-2.31,2.758,2.758,0,0,0-.982-2.31,5.174,5.174,0,0,0-1.96-.982,7.068,7.068,0,0,1-1.751-.63.9.9,0,0,1-.63-.91,1.457,1.457,0,0,1,.35-.839,1.851,1.851,0,0,1,1.4-.491,3.439,3.439,0,0,1,1.33.28c.141.07.35.141.491.211a1.021,1.021,0,0,0,.489.139.819.819,0,0,0,.7-.421,1.121,1.121,0,0,0,.211-.63.808.808,0,0,0-.421-.63,8.151,8.151,0,0,0-.771-.421A6.617,6.617,0,0,0,153.491,105.339Zm-30.736.141a.963.963,0,0,0-1.05.91v5.742a4.411,4.411,0,0,0,8.823,0v-5.742a.738.738,0,0,0-.35-.63,1.276,1.276,0,0,0-1.4,0,.738.738,0,0,0-.35.63v5.742a2.311,2.311,0,1,1-4.621,0v-5.742a.738.738,0,0,0-.35-.63A1.255,1.255,0,0,0,122.755,105.48Zm24.3,0a1.185,1.185,0,0,0-.7.209.834.834,0,0,0-.35.632v10.572a6.656,6.656,0,0,1-.211,1.89c-.139.421-.35.561-.98.561a.99.99,0,0,0-.7,1.68,1.058,1.058,0,0,0,.771.28,2.688,2.688,0,0,0,2.451-1.33,5.913,5.913,0,0,0,.7-3.081V106.321a.738.738,0,0,0-.35-.632C147.611,105.55,147.331,105.48,147.051,105.48Zm-10.5,1.68a2.342,2.342,0,0,1,2.31,2.381v.35a4.076,4.076,0,0,1-.7.07h-3.92v-.491A2.244,2.244,0,0,1,136.548,107.16Zm6.651,6.581a1.331,1.331,0,0,0,0,2.662,1.331,1.331,0,0,0,0-2.662Z" transform="translate(5.611 26.689)" fill="#35495e"/>
    <path id="Контур_262" data-name="Контур 262" d="M110.542,58.184h13.813L133.364,73.2l9.007-15.013h13.813L133.423,97.639Z" transform="translate(5.86 0.117)" fill="#35495e"/>
    <path id="Контур_263" data-name="Контур 263" d="M101.331,58.3l15.073-.12,22.94,39.455,22.7-39.455h15.073L139.285,123.1Z" transform="translate(0 0.117)" fill="#41b883"/>
    <path id="Контур_264" data-name="Контур 264" d="M221.426,104.673a.851.851,0,0,1,.219.612v12.072a1.144,1.144,0,0,1-.239.7.839.839,0,0,1-.617.283,1.165,1.165,0,0,1-.4-.065.847.847,0,0,1-.278-.2l-7.1-10.169v9.557a.82.82,0,0,1-.735.874h-.061a.732.732,0,0,1-.537-.241,1.028,1.028,0,0,1-.239-.612V105.4a.941.941,0,0,1,.278-.679.769.769,0,0,1,.578-.262.806.806,0,0,1,.4.088.736.736,0,0,1,.317.241l7.059,10.19v-9.667a.821.821,0,0,1,.735-.874h.061a.661.661,0,0,1,.537.241Zm14.613.043a1.214,1.214,0,0,1,.237.679v7.631a6.011,6.011,0,0,1-.635,2.822,4.72,4.72,0,0,1-1.751,1.968,4.441,4.441,0,0,1-2.505.722,4.67,4.67,0,0,1-4.274-2.647,6.022,6.022,0,0,1-.637-2.821v-7.631a.9.9,0,0,1,.278-.679.844.844,0,0,1,1.253,0,1.012,1.012,0,0,1,.259.679v7.61a3.757,3.757,0,0,0,.437,1.859,3.077,3.077,0,0,0,2.7,1.728,3.4,3.4,0,0,0,3.24-3.542v-7.677a1.124,1.124,0,0,1,.219-.7.69.69,0,0,1,.6-.283A.758.758,0,0,1,236.039,104.716Zm13.977,12.095a.976.976,0,0,1,.139.568.853.853,0,0,1-.258.679.832.832,0,0,1-1.293-.154l-3.479-5.139-3.441,5.139a.818.818,0,0,1-.7.416.781.781,0,0,1-.556-.241.856.856,0,0,1-.239-.569,1.073,1.073,0,0,1,.219-.656l3.717-5.553-3.717-5.512a1,1,0,0,1,.059-1.245.787.787,0,0,1,.995-.175.743.743,0,0,1,.317.306l3.48,5.116,3.42-5.074a.887.887,0,0,1,.7-.437.713.713,0,0,1,.576.306,1.047,1.047,0,0,1,.259.591,1.022,1.022,0,0,1-.178.591l-3.758,5.511ZM263,104.673a.873.873,0,0,1,.259.656.885.885,0,0,1-.9.9h-3.2v11.152a.915.915,0,0,1-1.571.656,1.018,1.018,0,0,1-.278-.656V106.226h-3.2a.767.767,0,0,1-.617-.263,1,1,0,0,1-.259-.656.883.883,0,0,1,.239-.633.768.768,0,0,1,.615-.241h8.271A.868.868,0,0,1,263,104.673Z" transform="translate(70.057 29.432)" fill="#2e495e"/>
    <path id="Контур_265" data-name="Контур 265" d="M245.969,118.058a3.988,3.988,0,0,1-1.412-1.53A1.227,1.227,0,0,1,244.4,116a.928.928,0,0,1,.278-.656.966.966,0,0,1,.556-.306,1.194,1.194,0,0,1,.815.5,2.107,2.107,0,0,0,1.89,1.16,2.435,2.435,0,0,0,2.386-2.472v-8.769a.941.941,0,0,1,.278-.679.911.911,0,0,1,.637-.283.859.859,0,0,1,.636.262.933.933,0,0,1,.237.677v8.726a4.388,4.388,0,0,1-2.008,3.85A3.916,3.916,0,0,1,245.969,118.058Zm12.425.044a5.727,5.727,0,0,1-1.929-1.334,1.172,1.172,0,0,1-.376-.81.921.921,0,0,1,.278-.656.781.781,0,0,1,.576-.283.671.671,0,0,1,.517.218,5.514,5.514,0,0,0,1.471,1.072,4.4,4.4,0,0,0,1.749.35,3.119,3.119,0,0,0,1.929-.591,1.714,1.714,0,0,0,.776-1.443,1.893,1.893,0,0,0-.776-1.6,6.532,6.532,0,0,0-2.346-.939,6.36,6.36,0,0,1-2.863-1.378,3.465,3.465,0,0,1-.993-2.647,3.643,3.643,0,0,1,2.088-3.433,5.571,5.571,0,0,1,4.354-.065,4.2,4.2,0,0,1,1.61,1.049,1.139,1.139,0,0,1,.4.854.922.922,0,0,1-.239.633.722.722,0,0,1-.6.306.65.65,0,0,1-.4-.152,4.059,4.059,0,0,0-2.883-1.2,3.2,3.2,0,0,0-1.929.524,1.875,1.875,0,0,0-.437,2.449,1.6,1.6,0,0,0,.437.481,6.886,6.886,0,0,0,2.127.9,10.019,10.019,0,0,1,2.307.789,3.353,3.353,0,0,1,1.391,1.268,3.947,3.947,0,0,1,.478,2.121,3.442,3.442,0,0,1-.576,2.034,3.981,3.981,0,0,1-1.612,1.4A6.019,6.019,0,0,1,258.394,118.1Z" transform="translate(91.022 29.365)" fill="#00c48d"/>
    <path id="Контур_266" data-name="Контур 266" d="M255.3,76.02l-2.723,5.271-9.305-18.02-28.57,55.351h19.345a5.015,5.015,0,0,0,4.712,5.271H214.707a4.616,4.616,0,0,1-4.074-2.646,5.851,5.851,0,0,1,0-5.27L239.2,60.646a4.462,4.462,0,0,1,8.152,0Z" transform="translate(69.141)" fill="#00c58e"/>
    <path id="Контур_267" data-name="Контур 267" d="M266.587,108.969,248.676,74.284l-2.724-5.271-2.724,5.271-17.892,34.685a5.851,5.851,0,0,0,0,5.27,4.639,4.639,0,0,0,4.076,2.646h33.081a4.635,4.635,0,0,0,4.076-2.624A5.9,5.9,0,0,0,266.587,108.969Zm-37.177,2.646,16.541-32.038,16.541,32.038Z" transform="translate(78.495 7.007)" fill="#2f495e"/>
    <path id="Контур_268" data-name="Контур 268" d="M271.112,117a4.643,4.643,0,0,1-4.076,2.646h-12.8a5.015,5.015,0,0,0,4.712-5.27h8.091L244.094,69.94l-3.678,7.129-2.724-5.27,2.327-4.483a4.462,4.462,0,0,1,8.152,0l22.943,44.416A5.741,5.741,0,0,1,271.112,117Z" transform="translate(86.755 4.243)" fill="#108775"/>
  </g>
</svg>
